<svg width="81" height="80" viewBox="0 0 81 80" fill="none" xmlns="http://www.w3.org/2000/svg">
<g opacity="0.65">
<g style="mix-blend-mode:lighten">
<rect x="1.55882" y="1.05882" width="77.8824" height="77.8824" rx="38.9412" stroke="#E7E7E7" stroke-width="2.11765"/>
<path d="M25.4272 51.0832C25.5102 51.308 25.5831 51.5429 25.9065 51.5925C25.8672 51.5283 25.8381 51.4845 25.8147 51.4393C25.6312 51.0891 25.7317 50.7462 26.093 50.5959C26.2897 50.5142 26.5141 50.4762 26.7283 50.4617C27.1085 50.4368 27.4917 50.4456 27.8735 50.4412C27.958 50.4412 28.0439 50.4412 28.1284 50.4412C28.3892 50.4412 28.5786 50.5317 28.634 50.8162C28.6515 50.9052 28.6952 50.9899 28.736 51.073C28.8628 51.3313 29.0041 51.4116 29.2838 51.3342C30.005 51.1358 30.7219 50.9227 31.4416 50.7155C31.4023 50.9242 31.3542 51.1766 31.3018 51.4568C31.9676 51.3401 32.4193 50.7987 33.072 50.6017C33.0021 50.86 32.9394 51.0891 32.868 51.3488C32.9613 51.3255 33.0501 51.3182 33.1259 51.2817C33.4071 51.1474 33.6839 51.0045 33.9608 50.8644C34.0496 50.8191 34.1414 50.7812 34.2245 50.7258C34.7607 50.3668 35.3041 50.3741 35.868 50.6995C35.2138 51.5079 34.6936 52.4052 34.4226 53.5025C34.816 53.4266 35.1657 53.3595 35.5431 53.288C35.3886 53.8965 35.2415 54.5108 35.2502 55.217C35.6742 55.0375 36.0603 54.8741 36.4682 54.7005C36.4245 55.3513 36.4347 56.002 36.5833 56.6747C37.0802 56.4427 37.4706 56.11 37.8393 55.7642C38.0199 56.4296 38.1948 57.0804 38.3871 57.7866C38.8519 57.4349 39.1622 57.0468 39.4696 56.6105C39.7188 57.3007 40.0073 57.9325 40.4793 58.4899C40.9179 57.8887 41.2282 57.2496 41.4715 56.574C41.8314 56.9797 42.1796 57.3707 42.5585 57.7983C42.8877 57.111 43.0291 56.4442 43.1383 55.7306C43.5477 56.1071 43.9353 56.4427 44.4554 56.6849C44.4919 56.3231 44.5385 56.0035 44.5545 55.6825C44.5706 55.3586 44.5574 55.0317 44.5574 54.7019C44.9363 54.8668 45.3136 55.0303 45.7391 55.2156C45.7638 54.5166 45.6181 53.9096 45.4506 53.2895C45.8134 53.3595 46.166 53.4281 46.5739 53.5069C46.3248 52.4155 45.8177 51.5385 45.1271 50.717C45.471 50.6105 45.7886 50.5054 46.1106 50.4164C46.1703 50.4004 46.2519 50.4325 46.3131 50.4617C46.7109 50.647 47.1043 50.8396 47.5006 51.0263C47.7541 51.146 48.009 51.2598 48.3106 51.3984C48.229 51.1008 48.1664 50.8673 48.0935 50.6003C48.7419 50.8002 49.1892 51.3342 49.8623 51.4568C49.8113 51.1839 49.7633 50.93 49.7152 50.6688C50.1319 50.7739 50.5413 50.8688 50.9463 50.9811C51.2989 51.0789 51.6501 51.1868 51.9968 51.3065C52.2649 51.3984 52.431 51.3415 52.5417 51.076C52.5986 50.9388 52.6335 50.7929 52.6933 50.6572C52.7807 50.4514 52.9206 50.3376 53.1697 50.3478C53.4728 50.361 53.7787 50.3274 54.0818 50.3289C54.2712 50.3289 54.4679 50.3289 54.6485 50.3785C55.1862 50.5244 55.3377 50.9242 55.058 51.4057C55.2634 51.413 55.3464 51.3342 55.5009 50.9767C55.5431 50.9738 55.5912 50.9636 55.6378 50.968C55.9598 51.0001 56.0895 51.1226 56.0487 51.3546C55.9802 51.7472 55.7908 51.8931 55.4601 51.8128C55.3581 51.788 55.2576 51.7603 55.1876 51.7413C55.2561 51.826 55.345 51.9223 55.4193 52.0288C55.5125 52.1616 55.4659 52.2885 55.3727 52.3979C55.2561 52.5351 55.157 52.7379 54.9385 52.6737C54.7753 52.6256 54.6325 52.5088 54.5232 52.4461C54.5232 52.6212 54.5917 52.859 54.5028 52.9962C54.4213 53.1246 54.1779 53.1728 53.9973 53.2136C53.7044 53.2778 53.6549 53.183 53.5762 52.4957C53.3999 52.681 53.3737 52.9962 53.515 53.2559C53.6287 53.4646 53.8035 53.5375 54.0774 53.4806C54.2012 53.4544 54.3251 53.4179 54.4431 53.3712C54.7549 53.2472 54.8074 53.1582 54.7782 52.8269C55.0696 52.9772 55.1833 52.9685 55.4076 52.7759C55.7049 52.5205 55.7777 52.3162 55.683 52.039C55.8214 51.9792 56.0152 51.9573 56.0837 51.8522C56.2119 51.6567 56.2993 51.4188 56.343 51.1883C56.3998 50.8892 56.1449 50.8045 55.8943 50.717C58.2167 48.8785 60.5202 47.056 62.8499 45.2116C62.8703 45.3634 62.8864 45.4816 62.9097 45.6537C63.3249 45.0993 63.7081 44.5856 64.0927 44.072C64.0855 44.0603 64.0767 44.0472 64.0694 44.0355C63.4794 44.3099 62.8893 44.5842 62.2482 44.8819C62.4158 44.9329 62.5309 44.9694 62.6868 45.0176C60.2885 46.9145 57.9151 48.7938 55.5271 50.682C55.4703 50.5565 55.4208 50.4427 55.3596 50.307C56.7932 47.3945 58.2357 44.4675 59.6883 41.5156C59.7684 41.6498 59.8325 41.7578 59.9287 41.9183C60.07 41.234 60.1997 40.6022 60.3293 39.9703C60.3148 39.9616 60.2987 39.9543 60.2842 39.9455C59.8646 40.4329 59.4435 40.9217 58.9918 41.447C59.1681 41.4251 59.2905 41.4105 59.4508 41.3916C57.9996 44.3347 56.563 47.2486 55.1119 50.1902C54.4795 49.8123 53.7977 50.0545 53.1435 49.9801C52.5111 49.9072 51.8948 49.8138 51.3514 49.4519C51.2946 49.414 51.2392 49.3717 51.1911 49.3366C51.4344 49.2374 51.6719 49.1426 51.9094 49.0463C51.9181 49.0229 51.9254 49.001 51.9342 48.9777C51.449 48.7077 50.9624 48.4378 50.4291 48.1416C50.7394 48.0249 50.9857 47.9315 51.2625 47.8264C50.4743 47.4821 49.8609 46.9626 49.3976 46.3862C49.5491 45.5297 49.6904 44.7389 49.8332 43.9378C50.1435 44.18 50.502 44.4222 50.9609 44.5141C51.1722 43.6678 51.0993 42.8493 50.856 42.0263C51.3004 42.7457 51.8978 43.2637 52.7486 43.5117C52.973 42.591 52.7384 41.7257 52.517 40.8488C53.0779 41.7257 53.8967 42.2306 54.8904 42.5487C54.9909 41.555 54.7811 40.6401 54.4708 39.7223C55.1716 40.3731 55.989 40.7641 56.9491 40.9027C57.0351 39.8843 56.7248 38.9577 56.3678 38.0297C57.1094 38.7169 57.9443 39.1941 58.9816 39.3531C59.0501 38.304 58.6815 37.4241 58.1774 36.5749C58.9889 37.2417 59.8864 37.6664 60.985 37.6313C60.9311 36.572 60.5639 35.6702 59.8762 34.8896C60.8757 35.4163 61.916 35.6673 63.0597 35.4587C62.8412 34.2271 62.1069 33.4115 61.1001 32.7826C61.9422 32.9577 62.7785 33.1561 63.6717 33.0802C64.4322 35.6396 64.76 38.2442 64.6624 40.964C64.9626 40.6401 65.2219 40.3599 65.5104 40.0477C65.3501 40.0229 65.235 40.0054 65.1214 39.9879C65.1141 39.9733 65.1068 39.9572 65.101 39.9426C65.6357 39.6041 66.1719 39.2656 66.7066 38.9271L66.7416 38.9562C66.4385 39.5195 66.134 40.0812 65.8105 40.6824C65.7697 40.5234 65.7391 40.4037 65.6969 40.2432C65.4827 40.4796 65.3006 40.7043 65.0952 40.9027C64.7659 41.2179 64.5429 41.5608 64.5808 42.0496C64.6012 42.324 64.5357 42.6056 64.5561 42.9062C64.8125 42.6902 65.0689 42.4728 65.3589 42.2277C65.2059 42.1795 65.0908 42.1416 64.9174 42.0876C65.5454 41.8001 66.1238 41.5346 66.7022 41.269C66.7124 41.2792 66.7212 41.2909 66.7314 41.3011C66.3554 41.8147 65.9781 42.3283 65.6022 42.842C65.5862 42.8376 65.5701 42.8332 65.5541 42.8288C65.5454 42.7121 65.5366 42.5968 65.5264 42.4524C65.4667 42.4888 65.4186 42.5093 65.3778 42.5428C65.1797 42.7033 64.9975 42.8887 64.7848 43.0258C64.489 43.217 64.3637 43.4752 64.3433 43.8167C64.3288 44.0545 64.2705 44.2894 64.2239 44.5754C64.4657 44.4193 64.6697 44.2865 64.9087 44.1304C64.7673 44.0647 64.6581 44.0122 64.4905 43.9334C65.1476 43.7306 65.7552 43.5423 66.3613 43.3556L66.3802 43.3818C65.9285 43.7962 65.4769 44.2092 65.0252 44.6236C65.0412 44.6469 65.0587 44.6688 65.0748 44.6922C65.082 44.5696 65.0908 44.447 65.101 44.2748C64.7863 44.4777 64.4934 44.6455 64.2297 44.8527C64.1496 44.9154 64.1379 45.0832 64.1204 45.2058C64.0942 45.3969 64.0024 45.4947 63.8115 45.5516C63.3322 45.6946 62.8616 45.8653 62.3473 46.039C62.4944 46.1075 62.6066 46.1601 62.745 46.2257C61.1307 47.3493 59.4406 48.3167 57.8903 49.4884C57.9005 49.5059 57.9107 49.5249 57.9209 49.5424C57.9865 49.5117 58.0506 49.4796 58.1162 49.4505C59.19 48.9719 60.1283 48.2671 61.1117 47.6382C61.661 47.2865 62.203 46.9261 62.7494 46.5701C62.8004 46.5365 62.8558 46.5088 62.9257 46.4694V46.9159C63.2783 46.5292 63.5988 46.1761 63.9194 45.823C63.931 45.8274 63.9427 45.8318 63.9543 45.8376C63.9281 45.9675 63.9004 46.0973 63.8625 46.2856C64.1933 46.1046 64.4818 45.9456 64.8096 45.7661C64.6581 45.6917 64.5473 45.6377 64.3973 45.5647C65.0456 45.3648 65.6546 45.1781 66.2651 44.9898C66.2739 45.003 66.2826 45.0161 66.2928 45.0292C65.8572 45.483 65.4201 45.9354 64.9422 46.4329V45.9835C64.5386 46.2082 64.1612 46.3994 63.8086 46.6285C63.7096 46.6927 63.6862 46.8707 63.6207 47.0137C63.1297 47.1202 62.6285 47.2296 62.0836 47.3478C62.2263 47.4339 62.3312 47.4981 62.4609 47.5754C61.4323 48.092 60.427 48.5939 59.4246 49.1032C58.4236 49.611 57.4066 50.0866 56.4086 50.6411C56.4727 50.7331 56.5077 50.7827 56.5528 50.8469C58.5576 49.843 60.5566 48.8449 62.5891 47.8264C62.5687 47.9855 62.5527 48.108 62.5309 48.2831C62.8645 47.9942 63.1617 47.7374 63.4997 47.4441C63.4473 47.6265 63.4109 47.7578 63.3613 47.9315C63.6469 47.8162 63.8975 47.7155 64.1816 47.6017C64.049 47.52 63.95 47.4587 63.7941 47.3624C64.4628 47.2223 65.0791 47.0954 65.694 46.967C65.7027 46.9801 65.7115 46.9932 65.7187 47.0064C65.2379 47.4208 64.7586 47.8366 64.2399 48.2831C64.2603 48.1124 64.2749 47.9942 64.2953 47.8293C64.0417 47.9388 63.8203 48.0555 63.5843 48.1299C63.2943 48.2218 63.1544 48.4057 63.0452 48.6873C60.2405 55.9262 54.0512 61.4709 46.4093 63.3708C43.944 63.9836 41.4439 64.2025 38.9087 64.023C34.156 63.6859 29.8754 62.0809 26.061 59.2268C24.706 58.2127 23.4792 57.0585 22.369 55.7803C22.3456 55.754 22.3267 55.7248 22.3005 55.6898C22.3282 55.6475 22.3515 55.6037 22.3835 55.5672C22.9649 54.88 23.1222 54.1008 22.8891 53.2384C22.7463 52.7058 22.5963 52.1747 22.4272 51.6406C22.4535 51.8975 22.4709 52.1572 22.5074 52.4125C22.5963 53.0254 22.6706 53.6353 22.5278 54.2511C22.3573 54.9792 21.977 55.5891 21.4846 56.1655C21.1611 55.7992 20.9936 55.3907 20.9236 54.9456C20.8857 54.7092 20.8522 54.4612 20.8828 54.2277C20.9236 53.9111 20.7721 53.7053 20.5987 53.5054C20.2359 53.663 19.8833 53.8162 19.5031 53.9826C19.3311 53.2778 19.3967 52.6548 19.6866 52.0361C19.5817 51.8522 19.4739 51.664 19.3676 51.4787C18.8518 51.5735 18.352 51.664 17.81 51.7632C17.9747 51.1504 18.2515 50.6382 18.7177 50.215C17.9965 50.2428 17.3103 50.1479 16.6095 49.9115C17.0684 49.4694 17.6119 49.2345 18.2078 49.0404C18.1685 48.9295 18.1306 48.8274 18.0854 48.7034C17.0408 48.7895 16.1899 48.3634 15.4016 47.6966C16.034 47.377 16.6867 47.2938 17.3627 47.2749C16.4055 47.075 15.6187 46.6285 15.0796 45.7544C15.763 45.5516 16.4288 45.5326 17.1355 45.6683C17.0961 45.4918 17.0612 45.3386 17.0174 45.1489C15.6362 45.0978 14.8932 44.3011 14.5682 43.001C15.3215 43.001 16.0267 43.1323 16.7202 43.5351C16.6765 43.1965 16.6415 42.9062 16.5993 42.6158C16.5949 42.5808 16.5527 42.5443 16.5192 42.5224C15.7601 42.0599 15.4672 41.3303 15.3608 40.4942C15.304 40.0448 15.2443 39.5953 15.1875 39.1445C15.1816 39.1036 15.1875 39.0613 15.1875 38.9986C15.6056 39.27 16.0107 39.5341 16.4594 39.8259C16.4944 37.5058 16.8091 35.2529 17.4531 33.0934C18.2981 33.0233 19.1111 32.9562 19.8906 32.892C19.0397 33.5282 18.4977 34.43 18.2107 35.5302C19.3705 35.644 20.3889 35.3463 21.3578 34.7918C20.7357 35.6192 20.3248 36.5253 20.1747 37.5817C21.2587 37.5233 22.1533 37.0623 23.0217 36.4961C22.6283 37.3614 22.1752 38.2004 22.0411 39.197C23.1193 39.0307 24.0518 38.6615 24.8692 37.8838C24.451 38.8687 24.1465 39.8128 24.2121 40.8561C25.1766 40.7218 25.9939 40.3264 26.6977 39.6741C26.3902 40.627 26.2329 41.5871 26.348 42.6012C27.3475 42.2787 28.1066 41.6892 28.6544 40.8152C28.4431 41.6921 28.2669 42.5647 28.5014 43.4884C29.3916 43.2418 29.9293 42.6202 30.3707 41.8775C30.1755 42.7208 29.9948 43.5555 30.276 44.4631C30.6549 44.2778 31.006 44.1056 31.3294 43.948C31.4635 44.7082 31.6034 45.4991 31.7563 46.3644C31.3411 46.9553 30.6417 47.3332 29.906 47.7345C30.177 47.8629 30.4145 47.9753 30.7131 48.1153C30.2032 48.3999 29.7166 48.6698 29.2314 48.9398C29.2357 48.9631 29.2387 48.9864 29.243 49.0098C29.4776 49.1061 29.7122 49.2009 29.957 49.3016C29.9278 49.3264 29.8914 49.3644 29.8477 49.3921C28.9065 49.967 27.8924 50.2326 26.7865 50.1187C26.3684 50.0764 25.9837 50.2048 25.6414 50.4339C25.4141 50.5857 25.4155 50.8425 25.4228 51.0891C25.3995 51.0307 25.3762 50.9738 25.3558 50.9213C24.8458 50.8498 24.4423 50.9855 24.4379 51.2656C24.4335 51.502 24.5034 51.7617 24.6142 51.9704C24.6827 52.1017 24.8895 52.1586 25.0425 52.2549C24.8852 52.5395 25.1008 52.7408 25.2873 52.9451C25.4592 53.1334 25.6632 53.2253 25.9094 53.0589C25.9517 53.5171 26.0814 53.6397 26.6132 53.7447C26.8987 53.8016 27.0779 53.7287 27.1916 53.5113C27.3344 53.237 27.3111 52.9247 27.1362 52.754C27.094 53.3551 27.0066 53.5317 26.7428 53.4792C26.5491 53.4398 26.2941 53.3843 26.2008 53.2442C26.112 53.1115 26.1979 52.8619 26.2052 52.6781C26.0814 52.7438 25.9357 52.8532 25.771 52.8999C25.5569 52.9597 25.4651 52.7627 25.3631 52.6241C25.1882 52.3848 25.2028 52.3512 25.6151 51.9339C25.468 51.9646 25.3543 51.9952 25.2392 52.0113C24.9231 52.0565 24.7526 51.9004 24.7089 51.5312C24.6797 51.2934 24.8109 51.181 25.13 51.1504C25.229 51.1416 25.3252 51.1051 25.4228 51.0818L25.4272 51.0832ZM23.1047 44.5448C23.0829 44.5375 23.0625 44.5317 23.0406 44.5244C22.5729 44.8687 22.2116 45.3079 21.9581 45.8303C21.5516 46.6679 21.4656 47.5317 21.8095 48.4159C21.7191 48.4407 21.6492 48.4539 21.5851 48.4787C21.3797 48.5589 21.2704 48.7457 21.2937 48.9689C21.3156 49.1791 21.4656 49.3439 21.6652 49.379C21.8838 49.4169 22.0761 49.3118 22.1839 49.1309C22.3631 48.8332 22.5569 48.5429 22.7623 48.2233C22.8192 48.413 22.8629 48.5618 22.9066 48.7121C23.08 47.4689 23.5899 46.4855 24.2893 46.1542C23.6686 47.0429 23.2067 47.9665 23.0537 49.0506C23.7662 48.4524 24.4903 47.9081 24.7672 46.9874C24.9318 46.4388 25.0221 45.8828 25.0294 45.2846C24.2485 45.5414 23.638 45.9791 23.1543 46.6066C23.1383 46.5978 23.1208 46.5876 23.1047 46.5788V44.5448ZM20.2301 47.9388C20.064 46.8619 19.9591 45.8055 20.5536 44.8177C20.5506 45.0978 20.5157 45.3765 20.4865 45.6552C20.4574 45.9368 20.4283 46.2184 20.4108 46.5015C20.3933 46.7846 20.3816 47.0677 20.3875 47.3522C20.3918 47.6251 20.4224 47.8994 20.4414 48.1912C20.6628 47.8454 20.8799 47.5477 21.0548 47.2253C21.2194 46.9232 21.3957 46.6109 21.4671 46.2812C21.6579 45.4042 21.3564 44.6061 20.979 43.8313C20.9746 43.8225 20.9542 43.8225 20.9411 43.8181C20.9251 43.805 20.9091 43.7933 20.8916 43.7802C20.6439 44.1041 20.37 44.4105 20.1558 44.7549C19.8076 45.3138 19.7202 45.9441 19.7726 46.5876C19.4462 46.7058 19.3224 46.8502 19.3559 47.0589C19.3938 47.2938 19.5526 47.377 19.9474 47.3741C20.0407 47.5638 20.1339 47.752 20.2272 47.9402L20.2301 47.9388ZM18.4992 45.4144C18.7964 45.1591 19.1038 44.9081 19.3952 44.6396C19.8965 44.1756 20.1602 43.5949 20.1849 42.9105C20.201 42.4378 20.1485 41.9723 20.0261 41.5098C18.352 42.2189 17.8071 44.3332 18.5007 45.4144H18.4992ZM31.1808 57.2423C30.7059 55.1149 29.5271 53.4602 27.8123 52.0988C27.7263 52.3118 27.6549 52.4899 27.5792 52.6796C28.9764 53.806 29.9132 55.1966 30.1784 56.9228C30.5296 57.0337 30.8355 57.1314 31.1823 57.2409L31.1808 57.2423ZM63.0466 41.965C62.9723 42.0526 62.9286 42.108 62.882 42.1591C62.1899 42.9178 61.4964 43.6781 60.8043 44.4368C59.2264 46.163 57.6485 47.8892 56.0749 49.6197C55.9598 49.7452 55.8812 49.9043 55.7865 50.0472C55.8083 50.0633 55.8287 50.0808 55.8506 50.0969C56.1041 49.8736 56.3809 49.6708 56.6082 49.4227C58.7645 47.0735 60.9121 44.7155 63.0612 42.359C63.1166 42.2992 63.1486 42.2189 63.1923 42.1489C63.2156 42.1678 63.239 42.1853 63.2637 42.2043C63.2929 42.3167 63.322 42.429 63.3672 42.6027C63.695 41.9825 63.998 41.412 64.2996 40.8415L64.2574 40.8123C63.7183 41.1654 63.1792 41.517 62.5906 41.9023C62.7771 41.9285 62.8922 41.9446 63.051 41.9679L63.0466 41.965ZM18.065 39.2379C18.0388 39.3006 18.0097 39.3633 17.9863 39.4275C17.8071 39.9412 17.6265 40.4562 17.4516 40.9713C17.4269 41.0428 17.4079 41.1289 17.4239 41.199C17.5114 41.5813 17.609 41.9606 17.7008 42.3283C18.6872 41.5564 18.9159 39.645 18.4132 38.59C17.6731 38.9956 17.2243 39.6289 16.93 40.3833C17.0422 40.535 17.1369 40.6649 17.2447 40.8123C17.44 40.2301 17.6381 39.6756 18.065 39.2393V39.2379ZM63.593 40.7627C63.8713 40.1177 64.1248 39.5297 64.3798 38.9416C64.3667 38.9314 64.3521 38.9198 64.339 38.9095C63.829 39.2991 63.3191 39.6873 62.7625 40.1133C62.949 40.1294 63.0699 40.1396 63.2171 40.1527C63.1574 40.2345 63.1224 40.2855 63.083 40.3351C62.3604 41.2544 61.6319 42.1693 60.9165 43.0929C59.885 44.4251 58.7733 45.699 57.8903 47.1421C57.851 47.2063 57.8131 47.2705 57.7738 47.3332C57.7884 47.3449 57.8044 47.3551 57.819 47.3668C59.7495 45.0745 61.5416 42.6683 63.4444 40.3235C63.4925 40.4621 63.5318 40.5803 63.5945 40.7627H63.593ZM53.4261 53.6441C53.3853 53.7228 53.3475 53.7885 53.3139 53.8571C53.0298 54.4437 52.7515 55.0332 52.4558 55.6139C52.4062 55.7131 52.2809 55.7744 52.1906 55.8518C52.0944 55.9349 51.9633 55.9977 51.9065 56.1013C51.5568 56.7418 51.2246 57.3912 50.8881 58.039C50.8531 58.1047 50.8225 58.1718 50.773 58.2754C50.9944 58.22 51.1751 58.1747 51.3558 58.1295C51.4344 58.3177 51.5014 58.4811 51.5845 58.6825C51.6413 58.5701 51.6763 58.5016 51.7098 58.4315C52.0231 57.788 52.3305 57.1416 52.6496 56.5025C52.7253 56.3522 52.7384 56.2238 52.6816 56.0619C52.6466 55.9641 52.6583 55.824 52.7035 55.7277C52.9293 55.2389 53.1741 54.7589 53.4116 54.2759C53.4917 54.1124 53.5704 53.949 53.6549 53.7768C53.5718 53.7287 53.5063 53.6907 53.4276 53.6441H53.4261ZM47.7235 56.6762C48.2116 56.2574 48.6676 55.8663 49.1207 55.4738C49.2606 55.3527 49.3888 55.2272 49.6015 55.2535C49.6598 55.2608 49.7312 55.2068 49.788 55.1674C50.5602 54.629 51.3383 54.0993 52.0944 53.5405C52.3567 53.3464 52.5592 53.0735 52.7894 52.8371C52.7763 52.824 52.7617 52.8109 52.7486 52.7963C52.6831 52.8386 52.619 52.8795 52.5534 52.9232C51.6748 53.5054 50.7948 54.0862 49.9177 54.6713C49.7982 54.7516 49.689 54.7836 49.5433 54.7472C49.4515 54.7238 49.3247 54.7267 49.246 54.7749C48.5685 55.1849 47.8983 55.6066 47.2252 56.0269C47.1888 56.0502 47.1611 56.0852 47.1159 56.1275C47.3053 56.1713 47.4685 56.2092 47.6346 56.2486C47.6623 56.3843 47.687 56.5069 47.7206 56.6762H47.7235ZM58.0608 48.2992C59.9199 46.8955 61.5153 45.1985 63.2914 43.6532C63.3147 43.8021 63.3337 43.9232 63.3613 44.1041C63.7372 43.5073 64.0811 42.9616 64.4249 42.4144L64.3856 42.3823C63.8232 42.6873 63.2608 42.9923 62.6547 43.322C62.8252 43.3687 62.9417 43.4008 63.0743 43.4388C61.4061 45.0891 59.5907 46.5482 58.0594 48.3006L58.0608 48.2992ZM56.5353 48.664C57.7578 46.8123 58.9787 44.9592 60.2186 43.0798C60.2871 43.233 60.3381 43.3483 60.4109 43.5117C60.6339 42.8449 60.8378 42.2335 61.0418 41.6221C61.0272 41.6148 61.0141 41.6061 60.9996 41.5988C60.5231 42.035 60.0452 42.4699 59.5207 42.9499H59.9666C58.8184 44.8789 57.3746 46.592 56.5339 48.6654L56.5353 48.664ZM50.059 56.7754C50.1304 56.6878 50.1756 56.6353 50.2178 56.5813C50.6287 56.0414 51.041 55.5016 51.4505 54.9587C51.5699 54.7997 51.6777 54.6392 51.9065 54.6202C51.9691 54.6144 52.0347 54.54 52.0828 54.4831C52.4106 54.1022 52.7268 53.7126 53.0604 53.3362C53.1886 53.1917 53.1916 53.0546 53.0983 52.8094C53.0444 52.9028 53.0211 52.9641 52.9803 53.0108C52.6335 53.3931 52.2795 53.7695 51.9371 54.1577C51.8205 54.2905 51.6996 54.3576 51.5204 54.3605C51.4286 54.3605 51.3164 54.4159 51.2479 54.4816C50.6724 55.0463 50.1042 55.6197 49.5345 56.1903C49.4966 56.2282 49.466 56.272 49.415 56.3333H49.9658C49.9935 56.4704 50.0211 56.6003 50.0576 56.7769L50.059 56.7754ZM52.4325 52.646C52.4281 52.6372 52.4237 52.627 52.4179 52.6183C52.3552 52.646 52.2926 52.6693 52.2314 52.7C51.465 53.0808 50.7001 53.4675 49.9294 53.8396C49.823 53.8907 49.6802 53.8702 49.5535 53.879C49.4325 53.8877 49.2956 53.8571 49.1936 53.9038C48.5103 54.2131 47.8342 54.54 47.1567 54.861C47.0984 54.8887 47.0445 54.9223 46.9615 54.969C47.1567 55.0478 47.3141 55.109 47.4685 55.1718C47.4962 55.2739 47.521 55.3673 47.5516 55.4811C47.6346 55.433 47.7031 55.3994 47.7657 55.3571C48.299 55.0084 48.8279 54.6538 49.367 54.3123C49.4529 54.2584 49.5738 54.2598 49.6788 54.2394C49.7837 54.2175 49.906 54.2263 49.9906 54.1737C50.7584 53.7053 51.5189 53.2267 52.2824 52.7511C52.3334 52.719 52.3815 52.6825 52.431 52.6475L52.4325 52.646ZM17.4647 42.6742C17.1835 42.9485 17.134 43.1192 17.2447 43.3176C17.3365 43.4811 17.5376 43.5657 17.7183 43.5146C17.9062 43.4621 18.0271 43.2914 18.014 43.0988C17.9965 42.8536 17.8567 42.7384 17.4953 42.6727C17.3846 42.3371 17.3001 41.9898 17.1544 41.6703C17.0116 41.358 16.8353 41.0501 16.6211 40.7816C16.4099 40.5161 16.1345 40.3001 15.8883 40.0637C15.8839 40.0725 15.8795 40.0812 15.8752 40.09C16.4055 40.9509 16.9344 41.8118 17.4647 42.6727V42.6742ZM20.9047 50.0998C19.9868 50.1187 19.1388 50.3157 18.4803 51.0059C18.878 50.8498 19.2656 50.663 19.6662 50.5171C20.0742 50.3683 20.4967 50.2588 20.893 50.1377C21.1174 50.4529 21.3024 50.5331 21.5108 50.4427C21.7119 50.3537 21.8182 50.1523 21.7789 49.9407C21.7425 49.751 21.5691 49.608 21.368 49.6037C21.1334 49.5978 20.9994 49.7379 20.9047 50.1012V50.0998ZM17.5565 45.0453C17.523 45.073 17.5026 45.0905 17.4822 45.1051C17.3365 45.2131 17.2782 45.3736 17.3759 45.5122C17.4443 45.6085 17.5988 45.6844 17.7197 45.6917C17.8683 45.7004 17.9776 45.5822 17.9907 45.4174C18.0038 45.2408 17.9222 45.1284 17.7561 45.0555C17.6658 45.0161 17.5857 44.9358 17.5216 44.857C17.0437 44.2632 16.4754 43.8021 15.7222 43.608C15.6071 43.5788 15.4891 43.5613 15.3725 43.5394C16.1389 43.9932 16.8776 44.4602 17.5551 45.0438L17.5565 45.0453ZM23.3743 50.7331C23.0945 50.7287 22.8716 50.9417 22.8673 51.2189C22.8629 51.5035 23.0712 51.7224 23.351 51.7267C23.6336 51.7311 23.8536 51.521 23.8595 51.2423C23.8638 50.9607 23.6526 50.7374 23.3757 50.7331H23.3743ZM24.0328 49.7321C24.0328 49.4519 23.8172 49.236 23.5375 49.2374C23.2577 49.2374 23.0392 49.4563 23.0406 49.7321C23.0406 50.0122 23.2592 50.2311 23.5346 50.2311C23.807 50.2311 24.0314 50.0049 24.0328 49.7321ZM21.2922 55.1309C21.4729 53.9155 21.7876 52.7584 22.3427 51.6144C21.521 52.36 20.9586 54.2817 21.2922 55.1309ZM17.5594 49.7379C18.422 49.5803 19.2772 49.3731 20.1631 49.376C20.1733 49.43 20.1777 49.4563 20.182 49.484C20.2082 49.6649 20.3175 49.7613 20.4938 49.7715C20.6555 49.7802 20.7634 49.6912 20.8158 49.5453C20.8712 49.3935 20.8187 49.2637 20.6861 49.1761C20.5463 49.0842 20.4137 49.1061 20.2753 49.2053C20.2039 49.2564 20.1019 49.2812 20.013 49.2856C19.5847 49.3075 19.1519 49.2929 18.7265 49.3381C18.3142 49.3819 17.9179 49.5161 17.558 49.7379H17.5594ZM19.6837 49.1265C19.946 49.1221 20.1558 48.9091 20.1514 48.6508C20.1471 48.3926 19.927 48.1781 19.6706 48.1839C19.4069 48.1898 19.2029 48.4013 19.2073 48.664C19.2117 48.9325 19.4156 49.1309 19.6823 49.128L19.6837 49.1265ZM18.6099 47.1114C18.575 47.3216 18.6041 47.5054 18.8299 47.5798C18.9669 47.6251 19.0995 47.5988 19.1854 47.466C19.2699 47.3332 19.2714 47.1946 19.1665 47.0735C19.0033 46.8853 18.8183 46.9407 18.6405 47.0604C17.9995 46.5044 17.3016 46.1178 16.4376 46.1265C17.1806 46.4096 17.9397 46.6547 18.6114 47.1114H18.6099ZM18.6653 46.6095C18.9174 46.6095 19.1286 46.4037 19.1315 46.1557C19.1344 45.9106 18.9203 45.6946 18.6726 45.6931C18.422 45.6917 18.2078 45.9018 18.2078 46.1484C18.2078 46.4008 18.4147 46.6095 18.6653 46.6095ZM21.5734 50.8556C20.6963 51.4218 20.1033 52.1616 19.8367 53.1771C20.4195 52.3979 20.9877 51.6392 21.5734 50.8556ZM24.6375 50.0035C24.4189 50.0035 24.247 50.1771 24.2499 50.396C24.2528 50.609 24.435 50.7827 24.6521 50.7783C24.856 50.7739 25.0236 50.6017 25.028 50.3931C25.0323 50.1786 24.8575 50.0049 24.6375 50.0049V50.0035ZM22.5161 49.9612C22.3194 49.9655 22.1533 50.1377 22.1577 50.3347C22.1621 50.5156 22.3354 50.6776 22.5249 50.6776C22.7143 50.6776 22.8833 50.4967 22.8775 50.2997C22.8716 50.1056 22.7143 49.9582 22.5161 49.9612ZM54.3338 52.1689C54.5742 52.1338 54.7083 51.9675 54.7899 51.7442C54.9093 51.413 54.7651 51.2408 54.4169 51.3036C54.3571 51.3138 54.3003 51.3401 54.2595 51.3532C54.2858 51.6363 54.3091 51.8989 54.3338 52.1703V52.1689ZM26.5695 51.4962C26.4412 51.4962 26.2985 51.4801 26.1615 51.5035C26.0945 51.5152 25.9998 51.591 25.9867 51.6538C25.9255 51.9223 26.2198 52.29 26.4981 52.3323C26.5199 52.0769 26.5418 51.8187 26.5695 51.4976V51.4962ZM19.2146 48.1066C18.6347 47.7666 18.0228 47.644 17.3176 47.7418C17.9805 47.8687 18.5939 47.9869 19.2146 48.1066ZM53.7787 52.6372C54.0191 52.592 54.1983 52.5584 54.3746 52.5249C54.2216 52.2973 54.0978 52.1119 53.9565 51.8989C53.8997 52.1353 53.8487 52.3498 53.7802 52.6372H53.7787ZM26.4179 52.7219C26.6481 52.7525 26.8303 52.7759 27.0634 52.8065C26.9891 52.5132 26.9337 52.2929 26.8667 52.0229C26.7953 52.1776 26.7589 52.287 26.6991 52.3804C26.635 52.4796 26.5491 52.5643 26.4179 52.7219Z" fill="#E7E7E7"/>
<path d="M27.8596 19.4562C35.5161 14.5666 46.2643 14.4995 54.2442 20.1406C54.1597 20.1843 54.0883 20.2223 54.0169 20.2573C53.3584 20.5769 52.7289 20.9416 52.1942 21.4509C51.3652 22.2417 51.0301 23.2019 51.1918 24.34C51.3011 25.1046 51.4293 25.8692 51.4818 26.6382C51.5182 27.1635 51.5094 27.7106 51.4002 28.2228C51.1015 29.6192 50.1661 30.4787 48.8708 30.9689C48.7047 31.0317 48.4847 30.9616 48.291 30.9368C46.9112 30.7574 45.5329 30.5735 44.1531 30.3896C44.0278 30.3736 43.9025 30.3546 43.7364 30.3313C43.6402 29.5842 43.5543 28.8327 43.4436 28.0856C43.3328 27.3444 43.1959 26.609 43.0691 25.8575C43.7437 25.8663 44.344 25.6372 44.7548 25.0273C43.9608 25.2885 43.3314 24.9426 42.7296 24.5005C42.565 24.3794 42.4149 24.2364 42.2663 24.0949C41.8758 23.7228 41.414 23.5273 40.8763 23.4864C40.0808 23.4251 39.2911 23.4485 38.5175 23.6615C38.3893 23.6965 38.261 23.7461 38.1459 23.8132C37.9085 23.9504 37.8647 24.0803 37.942 24.3575C37.7817 24.3838 37.6171 24.3896 37.467 24.4378C37.2004 24.5253 36.9206 24.6056 36.6831 24.7486C36.0799 25.1134 35.9838 26.0808 36.4908 26.6163C36.5549 26.1639 36.8813 26.0399 37.2586 25.9845C38.1795 25.8517 39.0828 26.4572 39.3086 27.3575C39.4164 27.7851 39.2824 28.144 38.9823 28.4431C38.7914 28.6328 38.5758 28.7948 38.3732 28.9714C37.9347 29.3507 37.5544 29.7753 37.3388 30.3357C36.8973 30.3824 36.4544 30.4203 36.0144 30.4772C35.0265 30.6056 34.0416 30.7457 33.0538 30.8799C32.978 30.8901 32.895 30.9076 32.8236 30.8901C31.0883 30.4655 29.8251 29.4587 29.1301 27.7997C28.7848 26.9738 28.8897 26.1173 29.1039 25.2709C29.2627 24.6479 29.4652 24.0292 29.5541 23.3945C29.761 21.9047 29.3268 20.6338 28.1204 19.6766C28.033 19.608 27.9514 19.5336 27.8611 19.4562H27.8596Z" fill="#E7E7E7"/>
<path d="M63.9763 25.6813C64.4236 25.5543 64.8578 25.4318 65.2934 25.3078C70.9713 34.4493 71.5468 49.2991 61.2416 59.9728C50.54 71.058 33.3635 71.8372 21.7324 61.7792C10.1901 51.7972 9.1003 35.7144 16.1448 24.6511C16.5615 24.8102 16.9811 24.9707 17.3964 25.1297C13.142 32.1162 11.9633 39.5724 14.1473 47.4708C15.801 53.4519 19.2031 58.3006 24.1685 62.0112C34.3295 69.6061 48.3734 69.1815 58.026 61.1066C63.2274 56.7568 66.4488 51.2121 67.5634 44.5117C68.6766 37.8185 67.4367 31.5398 63.9763 25.6784V25.6813Z" fill="#E7E7E7"/>
<path d="M49.4456 38.1903C43.4763 36.9266 37.5464 36.9281 31.5887 38.1917C31.4868 36.0701 31.3862 33.9777 31.2842 31.8634C37.44 30.4932 43.5754 30.4932 49.7472 31.8605C49.6467 33.9616 49.5476 36.0541 49.4456 38.1903ZM44.4773 33.9018C44.2864 33.8872 44.1582 33.877 44.0256 33.8668C43.9935 33.7282 43.9644 33.6012 43.9192 33.4101C43.8508 33.5866 43.8041 33.7063 43.7531 33.8391C43.6118 33.826 43.4807 33.8143 43.2956 33.7982C43.4384 33.9266 43.5375 34.0142 43.6351 34.1032C43.5812 34.2374 43.5346 34.3571 43.4661 34.5263C43.6249 34.4242 43.7357 34.3527 43.8522 34.2768C43.9557 34.3731 44.0562 34.4665 44.1932 34.5935C44.1494 34.4082 44.1174 34.2739 44.0839 34.1338C44.2034 34.0638 44.3141 33.9981 44.4773 33.9018ZM40.7532 32.2515C40.8712 32.1654 40.9747 32.091 41.1233 31.983H40.6643C40.6235 31.8459 40.5857 31.7189 40.5376 31.5541C40.4807 31.7233 40.437 31.8546 40.389 31.9947H39.9562C40.1005 32.0983 40.2083 32.1742 40.3161 32.2515C40.2709 32.3974 40.2316 32.5244 40.1762 32.7009C40.3263 32.5857 40.4312 32.5054 40.539 32.4237C40.6541 32.5127 40.7576 32.5915 40.9018 32.7039C40.8421 32.5244 40.8013 32.3989 40.7532 32.253V32.2515ZM39.8076 34.3761C39.8193 34.3688 39.8324 34.3629 39.844 34.3556C39.7989 34.2331 39.7537 34.109 39.7071 33.9806C39.8149 33.8989 39.9154 33.8201 40.0655 33.7048H39.6167C39.5687 33.5721 39.5235 33.4509 39.4638 33.2904C39.4157 33.4568 39.3793 33.5837 39.3414 33.7136C39.2001 33.7223 39.0704 33.7311 38.8868 33.7428C39.0427 33.8449 39.152 33.9179 39.2685 33.9937C39.2306 34.1251 39.1942 34.2491 39.1447 34.4213C39.286 34.3075 39.388 34.2243 39.4929 34.1397C39.6036 34.2243 39.7042 34.3002 39.8047 34.3761H39.8076ZM47.4801 32.1567C47.3912 32.3216 47.3301 32.4354 47.2689 32.5492C47.1246 32.5258 46.9979 32.5054 46.8216 32.4777C46.9571 32.6032 47.0532 32.6922 47.1508 32.7827C47.0794 32.9257 47.0197 33.0468 46.9381 33.2102C47.1071 33.1241 47.2295 33.0614 47.3738 32.9884C47.4626 33.0876 47.5457 33.1795 47.6579 33.3036C47.6287 33.1314 47.6069 33.003 47.5836 32.8702C47.7103 32.8045 47.8283 32.7433 47.9857 32.6601C47.8021 32.6309 47.6724 32.609 47.5413 32.5886C47.5224 32.4543 47.5063 32.3332 47.4816 32.1581L47.4801 32.1567ZM48.3514 33.9952C48.2596 34.163 48.197 34.2783 48.1314 34.3965C47.9915 34.3702 47.8633 34.3469 47.7351 34.3235C47.7191 34.3425 47.7045 34.3615 47.6885 34.3819C47.8065 34.4578 47.9245 34.5351 48.0338 34.6051C47.9434 34.7729 47.8837 34.8853 47.7992 35.0414C47.9697 34.9597 48.0877 34.9043 48.2072 34.8474C48.3033 34.9524 48.3849 35.0429 48.5073 35.18C48.4767 34.986 48.4563 34.8561 48.4359 34.719C48.567 34.6591 48.6865 34.6037 48.8584 34.5249C48.6749 34.4913 48.5466 34.468 48.4068 34.4417C48.3893 34.3075 48.3747 34.1834 48.3514 33.9952ZM47.7497 36.3722C47.7438 36.3561 47.738 36.3401 47.7322 36.3255C47.6098 36.3123 47.4874 36.2992 47.365 36.2846C47.3388 36.1358 47.3184 36.0088 47.2878 35.8323C47.212 35.9928 47.1596 36.1066 47.0998 36.2336C46.96 36.2102 46.8259 36.1883 46.6263 36.1548C46.7764 36.2846 46.8798 36.3751 46.9833 36.4641C46.9046 36.6144 46.8434 36.7326 46.7516 36.9062C46.9265 36.8055 47.0401 36.7399 47.1975 36.6494C47.2791 36.7632 47.3563 36.8712 47.4335 36.9792C47.4481 36.969 47.4612 36.9587 47.4757 36.9485C47.451 36.8128 47.4277 36.6786 47.4029 36.5414C47.5282 36.4801 47.6375 36.4247 47.7482 36.3707L47.7497 36.3722ZM37.5201 34.0915C37.6309 33.9981 37.7299 33.9135 37.8742 33.7924C37.6848 33.807 37.5507 33.8187 37.4182 33.8289C37.3628 33.6932 37.3147 33.575 37.2462 33.4101C37.204 33.591 37.1734 33.7194 37.1399 33.8581C37.0044 33.8683 36.8747 33.8785 36.6999 33.8916C36.847 33.9835 36.9577 34.0536 37.0801 34.1309C37.0481 34.2652 37.0175 34.395 36.9752 34.5774C37.1151 34.4475 37.2113 34.3585 37.3147 34.2637C37.4342 34.3396 37.5478 34.4111 37.7037 34.5103C37.628 34.3367 37.5741 34.217 37.5187 34.0915H37.5201ZM44.486 35.8965C44.4758 35.9111 44.4671 35.9257 44.4569 35.9417C44.5705 36.0322 44.6827 36.1227 44.7832 36.2029C44.7104 36.3576 44.6594 36.4685 44.5865 36.6231C44.7497 36.5268 44.8634 36.4583 44.9814 36.3882C45.0848 36.486 45.181 36.5764 45.3034 36.6932C45.2713 36.5195 45.2466 36.3838 45.2218 36.2525C45.3529 36.1781 45.4636 36.1154 45.6239 36.0234C45.4258 36.0059 45.2946 35.9957 45.1591 35.984C45.1329 35.844 45.1081 35.717 45.0746 35.539C45.0003 35.7097 44.9479 35.8294 44.8925 35.9534C44.7483 35.933 44.6171 35.9155 44.486 35.8965ZM46.2606 34.3775C46.3874 34.3104 46.5069 34.2476 46.6715 34.1601C46.4806 34.1353 46.351 34.1178 46.2184 34.1003C46.1907 33.9602 46.1659 33.8347 46.1324 33.6596C46.0523 33.8303 45.9984 33.95 45.9401 34.0725C45.8002 34.0507 45.6749 34.0317 45.4928 34.004C45.6356 34.1397 45.7303 34.2301 45.8264 34.3221C45.7638 34.4505 45.7055 34.5687 45.6254 34.7306C45.79 34.6402 45.9095 34.5745 46.0829 34.4796C46.1601 34.5818 46.2373 34.6839 46.3145 34.7875C46.3233 34.7817 46.332 34.7744 46.3422 34.7686C46.316 34.6402 46.2883 34.5103 46.2606 34.3746V34.3775ZM45.3427 32.9767L45.3923 32.9359C45.3646 32.8075 45.3383 32.6805 45.3107 32.5492C45.4403 32.4777 45.5525 32.415 45.7142 32.3259C45.5205 32.3041 45.385 32.288 45.2509 32.2734C45.2247 32.129 45.2028 32.0064 45.1708 31.8298C45.0965 31.9991 45.0411 32.1231 44.9858 32.2471C44.8401 32.2282 44.7104 32.2107 44.5283 32.1859C44.6667 32.3157 44.7672 32.4091 44.8721 32.5054C44.8138 32.6309 44.7585 32.7491 44.6812 32.9111C44.843 32.8191 44.9595 32.752 45.1198 32.6601C45.1956 32.7666 45.2684 32.8702 45.3413 32.9738L45.3427 32.9767ZM34.2492 32.4835C34.0525 32.5083 33.917 32.5244 33.7917 32.5404C33.7247 32.4004 33.6693 32.288 33.5921 32.129C33.5615 32.3201 33.5397 32.4573 33.5178 32.593C33.3765 32.6149 33.2497 32.6338 33.072 32.6615C33.241 32.7476 33.3575 32.8075 33.4785 32.8687C33.4566 33.0074 33.4362 33.1314 33.4173 33.2554C33.4362 33.2715 33.4537 33.2875 33.4726 33.3021C33.5469 33.1839 33.6198 33.0657 33.6941 32.9475C33.7116 32.9621 33.7291 32.9782 33.7465 32.9928C33.8558 33.0555 33.9665 33.1183 34.0758 33.181C34.0831 33.1693 34.0904 33.1591 34.0977 33.1474C34.035 33.0322 33.9738 32.9154 33.9068 32.7929C34.0161 32.6951 34.1093 32.6105 34.2477 32.4864L34.2492 32.4835ZM36.1841 32.5069C36.2904 32.4106 36.3895 32.3201 36.5294 32.1917C36.3429 32.215 36.2176 32.2296 36.085 32.2457C36.0253 32.1187 35.967 31.9962 35.8898 31.8342C35.8548 32.0108 35.83 32.1392 35.8024 32.2763C35.6639 32.2924 35.5372 32.3055 35.3682 32.3245C35.5226 32.4164 35.6348 32.485 35.7499 32.5536C35.7193 32.6907 35.6916 32.8162 35.6639 32.9402C35.6843 32.9548 35.7047 32.968 35.7266 32.9826C35.8009 32.8731 35.8767 32.7622 35.9481 32.6572C36.1083 32.7549 36.2191 32.8221 36.3822 32.9213C36.2977 32.7447 36.2409 32.6265 36.1826 32.504L36.1841 32.5069ZM36.1477 35.5229C36.1098 35.6995 36.0821 35.8264 36.053 35.9578C35.9189 35.9782 35.7936 35.9972 35.6231 36.0234C35.7761 36.1095 35.8854 36.1693 35.9947 36.2306C35.967 36.3707 35.9422 36.4962 35.9058 36.6786C36.0486 36.5502 36.1462 36.4626 36.2453 36.3736C36.3662 36.4495 36.474 36.5181 36.6343 36.6188C36.5527 36.4364 36.4988 36.3167 36.4434 36.1912C36.5469 36.0964 36.643 36.0059 36.7683 35.8892C36.5877 35.9067 36.4565 35.9198 36.3254 35.933C36.2686 35.8016 36.2176 35.6864 36.1462 35.5229H36.1477ZM37.6425 32.1071C37.8115 32.2107 37.9237 32.2792 38.0374 32.3493C37.9951 32.4952 37.9587 32.6221 37.9092 32.7987C38.0549 32.6747 38.1612 32.5857 38.2676 32.4937C38.3769 32.5638 38.4774 32.628 38.5779 32.6907C38.5867 32.6791 38.5954 32.6688 38.6041 32.6572C38.5604 32.5477 38.5182 32.4383 38.4716 32.3216C38.5779 32.2296 38.6799 32.1421 38.811 32.0297C38.6333 32.0385 38.5007 32.0458 38.3667 32.0531C38.32 31.9232 38.2778 31.8079 38.2151 31.6343C38.1612 31.8211 38.1248 31.9451 38.0869 32.075C37.9514 32.0837 37.829 32.0925 37.6425 32.1056V32.1071ZM42.4404 36.3984C42.4506 36.4086 42.4593 36.4189 42.4695 36.4291C42.5788 36.3561 42.6866 36.2832 42.7959 36.2102C42.9095 36.3036 43.0072 36.3853 43.15 36.502C43.096 36.3123 43.0596 36.1854 43.0232 36.0555C43.1456 35.9782 43.2578 35.9082 43.37 35.8381C43.3627 35.8221 43.3568 35.806 43.3496 35.79H42.9547C42.9212 35.6513 42.8921 35.5317 42.8498 35.3551C42.7828 35.5317 42.7362 35.6513 42.6895 35.7739C42.5526 35.7652 42.4302 35.7579 42.2481 35.7462C42.3938 35.8702 42.4928 35.9534 42.5948 36.0395C42.5409 36.1664 42.4928 36.2817 42.4433 36.3984H42.4404ZM33.3779 35.0487C33.289 34.8722 33.2279 34.7511 33.1667 34.6299C33.155 34.611 33.1419 34.5905 33.1302 34.5716L33.4566 34.3512C33.4464 34.3396 33.4377 34.3279 33.4275 34.3148C33.2978 34.3396 33.1696 34.3629 33.0384 34.3877C32.9714 34.2579 32.9117 34.1397 32.8301 33.9792C32.801 34.163 32.7806 34.2929 32.7587 34.4286C32.6203 34.4505 32.4935 34.4709 32.3187 34.4986C32.4848 34.5818 32.6072 34.6431 32.7325 34.7073C32.7063 34.8503 32.6815 34.9816 32.6451 35.1713C32.782 35.021 32.8738 34.9189 32.9656 34.8182C33.0996 34.8926 33.2118 34.9568 33.3765 35.0487H33.3779ZM41.301 34.4184C41.4598 34.3075 41.5691 34.2316 41.6784 34.1543C41.7818 34.2374 41.8765 34.3148 42.0179 34.4286C41.9683 34.2403 41.9348 34.1134 41.9028 33.9908C42.0222 33.9106 42.1228 33.8435 42.2772 33.7399H41.8299C41.7906 33.6042 41.7542 33.4801 41.7046 33.3065C41.6376 33.4772 41.591 33.5969 41.5414 33.7209H41.1218C41.2559 33.8245 41.3579 33.9047 41.4613 33.9835C41.4103 34.1222 41.3666 34.2403 41.301 34.4198V34.4184ZM38.4147 36.1956C38.5313 36.27 38.6449 36.3415 38.8008 36.4422C38.7324 36.2686 38.6857 36.1475 38.6362 36.0234C38.7469 35.93 38.846 35.8469 38.9669 35.7447H38.5255C38.4774 35.6149 38.4322 35.4952 38.371 35.3303C38.3229 35.5127 38.2894 35.6411 38.2545 35.7768C38.1204 35.7856 37.998 35.7929 37.8217 35.8031C37.9718 35.9038 38.0796 35.9767 38.1933 36.0526C38.1583 36.1883 38.1263 36.3167 38.0796 36.4977C38.2166 36.3736 38.3098 36.2905 38.4133 36.1971L38.4147 36.1956ZM42.6036 32.3143C42.5497 32.45 42.5016 32.5711 42.4346 32.7389C42.5861 32.6397 42.6954 32.5682 42.809 32.4937C42.9183 32.5871 43.0174 32.6732 43.1558 32.7914C43.1092 32.6119 43.0756 32.4806 43.0392 32.3435C43.166 32.2676 43.2796 32.2005 43.437 32.1071C43.2374 32.091 43.099 32.0808 42.9635 32.0691C42.9299 31.9276 42.9008 31.8079 42.8615 31.6401C42.7959 31.8065 42.7493 31.9276 42.6997 32.056C42.557 32.0472 42.4258 32.0385 42.2335 32.0268C42.3792 32.1406 42.4812 32.2209 42.6021 32.3143H42.6036ZM34.5537 36.1869C34.545 36.1752 34.5377 36.1635 34.5289 36.1518C34.3949 36.1708 34.2594 36.1898 34.121 36.2102C34.0627 36.0789 34.0103 35.9592 33.933 35.7885C33.9024 35.9826 33.8806 36.1183 33.8587 36.2511C33.7174 36.2715 33.5906 36.289 33.4085 36.3153C33.5804 36.3999 33.6985 36.4568 33.8194 36.5166C33.7946 36.6596 33.7728 36.7836 33.7509 36.9077C33.7669 36.915 33.783 36.9223 33.799 36.9296C33.8777 36.8333 33.9578 36.737 34.0379 36.6377C34.1734 36.7136 34.2871 36.7778 34.4474 36.8668C34.3687 36.699 34.3133 36.5808 34.2405 36.4262C34.3425 36.3474 34.4474 36.2671 34.5523 36.1869H34.5537ZM35.6246 34.058C35.6144 34.0434 35.6057 34.0273 35.5955 34.0127C35.4687 34.0259 35.3434 34.039 35.221 34.0521C35.1613 33.9208 35.1103 33.8084 35.0345 33.6392C34.9981 33.8289 34.9733 33.9573 34.95 34.0842C34.8087 34.1046 34.6848 34.1222 34.5173 34.147C34.6717 34.2345 34.7883 34.3016 34.9063 34.3688C34.8757 34.5103 34.8495 34.6314 34.8116 34.8036C34.9427 34.6796 35.0374 34.5905 35.1394 34.4942C35.2618 34.5614 35.3798 34.627 35.5401 34.7175C35.46 34.5526 35.4031 34.4344 35.3245 34.271C35.4206 34.2024 35.5226 34.1295 35.6246 34.0565V34.058ZM40.2374 36.4072C40.3919 36.2905 40.4982 36.2117 40.6075 36.1299C40.7139 36.2102 40.81 36.2817 40.9076 36.3547C40.9178 36.3459 40.9295 36.3371 40.9397 36.3269C40.9018 36.2102 40.8625 36.092 40.8231 35.9709C40.931 35.8921 41.0315 35.8177 41.132 35.7447C41.1247 35.7316 41.1175 35.7185 41.1087 35.7053H40.7474C40.7037 35.574 40.6614 35.4514 40.6046 35.2822C40.5507 35.45 40.5113 35.574 40.4647 35.7214H40.0451C40.1864 35.8264 40.287 35.8994 40.3875 35.9738C40.3394 36.111 40.2986 36.2292 40.236 36.4086L40.2374 36.4072Z" fill="#E7E7E7"/>
<path d="M29.5299 33.5607C28.6499 34.0204 27.7305 34.2042 26.7427 34.2378C26.766 33.7431 26.868 33.2893 27.0399 32.8589C27.2119 32.4284 27.4319 32.0184 27.6271 31.6084C27.1973 31.6288 26.7354 31.6711 26.2736 31.6653C25.8102 31.6595 25.3469 31.6055 24.8545 31.569C25.1007 30.8321 25.4708 30.2397 26.0069 29.6896C24.8268 29.6794 23.7573 29.4167 22.6996 28.9673C23.1935 28.1925 23.8214 27.5884 24.6155 27.0909C23.4339 26.9391 22.2931 26.8384 21.1566 26.4313C21.416 26.1147 21.6374 25.8141 21.888 25.5427C22.1357 25.2757 22.414 25.0364 22.6821 24.7825C21.4932 24.6555 20.3436 24.3535 19.2203 23.8588C19.4986 23.3802 19.857 22.9965 20.3028 22.6098C19.0921 22.5923 17.995 22.3209 16.9284 21.7868C17.2417 21.247 17.6569 20.8238 18.1436 20.4255C16.9765 20.2839 16.0659 19.7324 15.2631 18.9196C15.7206 18.3447 16.3223 18.0718 17.0261 17.9434C15.9333 17.2168 15.4103 16.0786 15.7789 15.2849C16.1825 15.5534 16.5744 15.8437 16.9925 16.0889C18.3825 16.9001 19.8847 17.4502 21.3999 17.9639C22.5859 18.3651 23.7807 18.7474 24.8953 19.3326C25.7228 19.7674 26.4601 20.3204 27.1317 20.9726C28.0351 21.8496 28.2434 22.8739 27.8558 24.0485C27.6956 24.533 27.5135 25.0101 27.3809 25.5018C26.868 27.409 27.3925 29.0228 28.7854 30.3856C29.3405 30.9299 29.9466 31.4012 30.6518 31.7631C30.7028 32.9421 30.7553 34.1152 30.8077 35.3322C30.4537 35.4679 30.0952 35.605 29.747 35.7393C29.4716 35.3613 29.3988 34.5967 29.5285 33.5622L29.5299 33.5607Z" fill="#E7E7E7"/>
<path d="M65.8166 17.25C65.8661 18.3225 65.5718 19.1951 64.6524 19.7437C64.243 19.9874 63.7826 20.1464 63.344 20.342C63.2756 20.3726 63.1998 20.3901 63.092 20.4251C63.5757 20.8293 64.0011 21.2466 64.3115 21.7938C63.7972 22.0842 63.2523 22.252 62.6899 22.3585C62.1275 22.465 61.5592 22.5394 61.007 22.6255C61.3421 23.0108 61.6918 23.4106 62.075 23.8498C60.9138 24.3488 59.7744 24.6698 58.5258 24.7968C59.1712 25.2608 59.6681 25.8109 60.1328 26.4485C59.0051 26.8658 57.8468 26.9388 56.6434 27.1007C57.4272 27.6012 58.061 28.1893 58.5491 28.9787C57.503 29.4398 56.4277 29.6805 55.2942 29.7112C55.5142 30.0074 55.7429 30.2759 55.9251 30.5735C56.1057 30.8668 56.2398 31.1878 56.4161 31.538C55.4428 31.7452 54.5176 31.6942 53.5487 31.5979C54.1257 32.4077 54.4011 33.289 54.522 34.2579C53.5429 34.2127 52.6148 34.0434 51.7158 33.5677C51.8499 34.325 51.8455 35.0356 51.5381 35.7652C51.0981 35.5886 50.6755 35.4179 50.2355 35.2414C50.2821 34.163 50.3273 33.1095 50.371 32.1086C50.8343 31.7569 51.2729 31.4476 51.6852 31.1047C52.6396 30.3109 53.0592 29.2559 53.03 28.0404C53.0082 27.1489 52.8902 26.2617 52.8158 25.3717C52.7911 25.0755 52.7576 24.7778 52.7517 24.4816C52.7357 23.7403 53.0242 23.1304 53.5851 22.6503C54.8309 21.5837 56.2558 20.8454 57.8119 20.3536C59.1479 19.9319 60.4869 19.5234 61.8273 19.1163C63.2319 18.6887 64.6306 18.2481 65.8166 17.2486V17.25Z" fill="#E7E7E7"/>
<path d="M59.6124 18.3753C59.1549 18.4993 58.744 18.5956 58.3419 18.724C58.1088 18.7984 57.9456 18.7605 57.7504 18.6029C54.156 15.6948 50.0837 13.8096 45.5423 12.9589C42.8512 12.454 40.1427 12.3694 37.421 12.6787C33.3036 13.1457 29.4892 14.4837 25.9778 16.687C25.5101 16.9803 25.0556 17.294 24.5777 17.6107C24.1071 17.4312 23.6219 17.2444 23.0857 17.0401C28.4926 13.0071 34.5172 11.0109 41.2121 11.1685C48.1882 11.3334 54.2959 13.7833 59.611 18.3753H59.6124Z" fill="#E7E7E7"/>
<path d="M31.6405 38.7914C34.467 38.2106 37.3038 37.8838 40.1945 37.84V43.9699C40.0954 43.8605 40.0269 43.7788 39.9511 43.7029C39.855 43.6066 39.7676 43.484 39.6495 43.4286C39.4528 43.3366 39.3232 43.2112 39.2809 43.001C39.1993 42.5954 38.9414 42.3897 38.567 42.2233C38.2625 42.0876 38.0177 41.8133 37.7482 41.6002C37.6928 41.5565 37.6418 41.5098 37.5879 41.4645C37.5602 41.4791 37.5354 41.4835 37.5252 41.4981C37.2688 41.8541 36.9308 42.0657 36.4908 42.1226C36.4179 42.1314 36.3451 42.2233 36.2941 42.2919C36.1601 42.4743 36.0479 42.6727 35.9094 42.8493C35.6297 43.2068 35.2742 43.465 34.8604 43.6562C34.7424 43.7102 34.6404 43.8269 34.5632 43.9378C34.4262 44.1348 34.3155 44.3507 34.1917 44.5579C33.9789 44.9169 33.6977 45.2073 33.2971 45.4437C33.233 45.3444 33.1674 45.2437 33.1018 45.1445C32.6939 45.3809 32.5904 45.7778 32.369 46.1192C32.1679 45.6742 32.0543 45.2277 32.0222 44.771C31.91 43.2024 31.8153 41.6323 31.7162 40.0623C31.69 39.6464 31.6652 39.2306 31.639 38.7928L31.6405 38.7914Z" fill="#E7E7E7"/>
<path d="M40.1999 50.707C39.502 50.0343 38.6205 49.8986 37.7988 49.6302C36.8984 49.3354 35.9863 49.0713 35.0873 48.7722C34.0456 48.4264 33.2442 47.7668 32.6731 46.8286C32.6323 46.7615 32.5973 46.6914 32.5624 46.6228C32.5492 46.598 32.5434 46.5703 32.5259 46.5192H40.1999V50.707Z" fill="#E7E7E7"/>
<path d="M40.8568 41.3639C40.9413 41.4003 41.004 41.4252 41.0667 41.4529C41.8199 41.7943 42.5586 41.7958 43.2842 41.3697C43.529 41.2267 43.7723 41.0823 44.0185 40.9436C44.5474 40.646 45.0675 40.6533 45.5833 40.9845C46.0321 41.2719 46.491 41.5302 47.0374 41.5988C47.7061 41.6834 48.2991 41.5171 48.8295 41.1071C48.9737 40.9947 49.1165 40.8823 49.3045 40.735C49.2578 41.5244 49.2141 42.2612 49.1719 42.9587C48.8251 43.2082 48.4987 43.4329 48.1855 43.6722C47.7193 44.0268 47.2224 44.056 46.7067 43.8182C46.4764 43.7116 46.2623 43.5701 46.0423 43.4402C45.2511 42.9733 44.4469 42.9558 43.6339 43.3746C43.3629 43.5147 43.0991 43.6649 42.8398 43.8255C42.3867 44.1056 41.9263 44.0939 41.463 43.8692C41.2546 43.7671 41.0579 43.6387 40.8568 43.522V41.3639Z" fill="#E7E7E7"/>
<path d="M40.8274 44.7287C41.1757 44.825 41.4831 44.9359 41.8007 44.9899C42.3514 45.0833 42.8687 44.952 43.348 44.6689C43.5855 44.5288 43.8245 44.3887 44.0663 44.2559C44.5763 43.9772 45.0746 43.9933 45.5758 44.2997C45.8832 44.4865 46.1979 44.6747 46.5345 44.7973C47.3329 45.0877 48.0934 44.9884 48.7884 44.4777C48.8788 44.4121 48.9676 44.3435 49.1133 44.2953C49.0376 44.7156 48.9909 45.1431 48.8802 45.5531C48.7797 45.9267 48.634 46.2929 48.465 46.6417C48.1473 47.2939 47.5893 47.5244 46.8987 47.2866C46.6219 47.1903 46.3654 47.0269 46.1105 46.878C45.6675 46.6198 45.2042 46.4505 44.6812 46.4739C44.2455 46.4928 43.8521 46.6402 43.4762 46.8459C43.265 46.9612 43.0552 47.0794 42.8512 47.2078C42.3631 47.5157 41.8721 47.4865 41.3796 47.2312C41.0134 47.0415 40.8308 46.7433 40.8318 46.3367C40.8318 45.8756 40.8318 45.4145 40.8318 44.9534V44.7302L40.8274 44.7287Z" fill="#E7E7E7"/>
<path d="M49.3713 39.5079C48.9648 39.7793 48.6078 39.9821 48.2945 40.2389C47.7438 40.6883 47.177 40.6941 46.5768 40.3819C46.3946 40.287 46.2242 40.1732 46.0464 40.0682C45.2567 39.6012 44.4525 39.5823 43.6395 39.9981C43.3816 40.1309 43.1281 40.2724 42.8833 40.4271C42.3733 40.7496 41.8678 40.7189 41.3564 40.4417C41.0203 40.2588 40.8522 39.9743 40.8522 39.5881C40.8522 39.092 40.8522 38.5959 40.8522 38.0998C40.8522 38.0239 40.8581 37.9466 40.8639 37.8313C43.7531 37.8765 46.5928 38.199 49.4135 38.7739C49.3975 39.0672 49.3829 39.3269 49.3727 39.5079H49.3713Z" fill="#E7E7E7"/>
<path d="M13.6415 55.8915C13.503 55.6931 13.3865 55.5253 13.2553 55.337C13.3413 55.2699 13.4214 55.2072 13.5176 55.1328C13.8003 55.5253 14.0727 55.9032 14.3554 56.2972C13.7216 57.5404 13.0893 58.7806 12.4249 60.0866C13.8075 59.7991 15.132 59.5248 16.4811 59.2446C16.7885 59.6678 17.1003 60.0953 17.4267 60.5418C17.3364 60.6104 17.2562 60.6717 17.1645 60.7417C17.0319 60.5579 16.908 60.3872 16.7652 60.1916C15.5006 61.108 14.2476 62.0156 12.9771 62.9378C13.1082 63.126 13.232 63.3025 13.369 63.4995C13.2743 63.5594 13.1869 63.6148 13.0718 63.6892C12.6012 63.037 12.1349 62.392 11.6599 61.734C11.7488 61.6668 11.8275 61.6085 11.9237 61.5355C12.0606 61.7179 12.1903 61.8901 12.336 62.0871C13.2655 61.41 14.182 60.7432 15.0984 60.0749L15.081 60.034C13.7201 60.3098 12.3593 60.5841 10.9533 60.8687C11.609 59.5846 12.2442 58.3443 12.878 57.1026C12.8678 57.0909 12.859 57.0793 12.8488 57.0676C11.9455 57.7242 11.0422 58.3823 10.1301 59.0462C10.2656 59.2344 10.3895 59.4066 10.5279 59.5992C10.4419 59.6693 10.3632 59.732 10.2685 59.8079C9.90136 59.3001 9.54586 58.8069 9.17578 58.2947C9.26466 58.2247 9.34333 58.1634 9.43658 58.0905C9.57645 58.2787 9.70612 58.4538 9.84745 58.6435C11.115 57.7242 12.368 56.8152 13.6415 55.893V55.8915Z" fill="#E7E7E7"/>
<path d="M51.3777 11.2529C51.232 9.81711 51.0922 8.43237 50.9523 7.04764C50.9363 7.04326 50.9188 7.03888 50.9027 7.03304C50.5035 8.06758 50.1058 9.10212 49.7022 10.1513C49.9237 10.2403 50.1189 10.3205 50.3345 10.4081C50.2937 10.5087 50.2588 10.5963 50.2136 10.7086C49.6293 10.4825 49.0597 10.2607 48.4754 10.0345C48.5147 9.92946 48.5468 9.84483 48.5876 9.73539C48.8032 9.81127 49.0057 9.88277 49.2301 9.96156C49.7954 8.50825 50.3578 7.06369 50.9261 5.60162C50.7148 5.51553 50.5152 5.43236 50.301 5.34481C50.3374 5.24558 50.3709 5.15658 50.4132 5.0413C50.8707 5.21786 51.3107 5.38712 51.7522 5.55784C51.8979 6.96009 52.0407 8.34336 52.1893 9.78063C53.1975 8.78694 54.1635 7.83266 55.144 6.8667C55.6321 7.05785 56.1173 7.24754 56.6258 7.44598C56.5879 7.54958 56.5559 7.63859 56.5151 7.75095C56.3009 7.67215 56.0998 7.5992 55.8725 7.51602C55.3043 8.97517 54.7434 10.4168 54.1737 11.8818C54.385 11.9664 54.5787 12.0438 54.7973 12.1313C54.7579 12.2364 54.723 12.3312 54.6764 12.4523C53.926 12.1605 53.1917 11.876 52.4399 11.5841C52.485 11.4732 52.52 11.3842 52.5623 11.2806C52.7735 11.3594 52.9702 11.4324 53.1975 11.517C53.6113 10.446 54.0192 9.38666 54.4272 8.32731C54.4156 8.31856 54.4039 8.3098 54.3908 8.30105C53.3986 9.27138 52.4064 10.2417 51.3748 11.2515L51.3777 11.2529Z" fill="#E7E7E7"/>
<path d="M10.1641 46.0654C10.1087 45.8553 10.0607 45.6743 10.0068 45.47C9.32925 45.6349 8.67215 45.7954 7.99319 45.9603C8.203 46.8241 8.40844 47.6675 8.6197 48.5372C9.29428 48.3738 9.95139 48.2133 10.6274 48.0498C10.5837 47.8455 10.5444 47.6559 10.5007 47.4487C10.6056 47.4209 10.6915 47.399 10.8081 47.3684C10.9888 48.1067 11.168 48.8305 11.3501 49.5746C11.2394 49.6038 11.1461 49.6272 11.0383 49.6549C10.9844 49.4579 10.9334 49.277 10.8751 49.0654C9.36568 49.436 7.86498 49.8052 6.34243 50.1802C6.38759 50.3801 6.42839 50.5625 6.47501 50.7682C6.37157 50.7974 6.27395 50.8266 6.15156 50.8616C5.96944 50.1204 5.79168 49.3952 5.60956 48.6525C5.72029 48.6233 5.80771 48.6014 5.9199 48.5722C5.97526 48.7663 6.02772 48.953 6.086 49.1632C6.77515 48.9968 7.45265 48.8334 8.1622 48.6627C7.95386 47.8018 7.74988 46.9584 7.53716 46.0844C6.8378 46.2536 6.15593 46.4185 5.45512 46.5878C5.5032 46.7906 5.54545 46.9744 5.59499 47.1816C5.48863 47.2079 5.3983 47.2312 5.28028 47.2604C5.09816 46.5221 4.92186 45.8027 4.73828 45.0571C4.84173 45.0308 4.93352 45.0075 5.04862 44.9783C5.10253 45.1709 5.15352 45.3519 5.21472 45.5678C6.72853 45.1972 8.2336 44.828 9.75906 44.4545C9.71244 44.2458 9.67019 44.062 9.62502 43.8577C9.7241 43.8329 9.81589 43.8095 9.93827 43.7789C10.1204 44.5187 10.2982 45.2439 10.4788 45.9822C10.3666 46.0114 10.2807 46.0347 10.1641 46.0654Z" fill="#E7E7E7"/>
<path d="M70.5605 59.6282C70.6786 59.7186 70.7572 59.7784 70.865 59.8616C70.5824 60.2249 70.3201 60.5912 70.0273 60.9312C69.8495 61.1369 69.5844 61.08 69.3454 61.0625C68.6606 61.0143 67.9773 60.956 67.291 60.9151C67.1905 60.9093 67.0871 60.9706 66.9836 60.9998C66.9807 61.0275 66.9793 61.0552 66.9763 61.0829C67.5169 61.4856 68.0589 61.8898 68.6155 62.3057C68.7408 62.1408 68.8559 61.992 68.9841 61.8256C69.0729 61.8898 69.1502 61.9467 69.2522 62.0197C68.799 62.6282 68.3532 63.2264 67.8986 63.8363C67.8054 63.7648 67.7281 63.7079 67.6364 63.6379C67.7587 63.4701 67.868 63.3169 67.9919 63.1462C66.733 62.2138 65.4902 61.2916 64.2299 60.3577C64.1046 60.5182 63.9881 60.6656 63.854 60.8363C63.7681 60.7721 63.6865 60.7123 63.5903 60.6408C63.7797 60.384 63.9589 60.1389 64.141 59.8966C64.5242 59.3874 64.9001 58.8723 65.2964 58.3733C65.6228 57.9633 66.0482 57.7546 66.5859 57.8524C67.4571 58.0114 67.986 58.8387 67.7704 59.6953C67.7544 59.7566 67.7383 59.8178 67.7179 59.8966C67.7558 59.9083 67.7923 59.9258 67.8272 59.9287C68.4348 59.9711 69.0424 60.0061 69.6485 60.0542C70.0258 60.0834 70.3813 60.0819 70.5576 59.6267L70.5605 59.6282ZM66.6077 60.813C67.0973 60.2673 67.1963 59.8791 66.9691 59.456C66.7447 59.0372 66.207 58.7264 65.802 58.7818C65.48 58.8256 65.0415 59.2532 64.9686 59.5975C65.5106 59.9988 66.0541 60.403 66.6063 60.8115L66.6077 60.813Z" fill="#E7E7E7"/>
<path d="M41.4618 6.76754C41.8989 7.43146 42.3112 8.07494 42.7468 8.70238C42.8182 8.80452 42.9901 8.84538 43.1227 8.89207C43.197 8.91833 43.2874 8.89645 43.3952 8.89645C43.3864 9.0088 43.3792 9.09489 43.3733 9.18536C42.8911 9.18536 42.4248 9.21308 41.9644 9.16931C41.8202 9.15472 41.6628 8.96794 41.5667 8.82349C41.1602 8.20919 40.777 7.57883 40.3778 6.96015C40.3282 6.88282 40.2233 6.84196 40.1446 6.78505C40.1272 6.8011 40.1097 6.81716 40.0922 6.83321V8.86872C40.2787 8.87748 40.4652 8.88623 40.6662 8.89645V9.19411H38.44C38.4341 9.14304 38.4239 9.10219 38.4239 9.06133C38.4239 9.01318 38.4327 8.96503 38.4385 8.89791C38.6337 8.88769 38.8202 8.87894 39.0228 8.86872V4.19214H38.4443V3.88426C38.4604 3.87259 38.4676 3.86529 38.4735 3.86529C39.4628 3.87842 40.455 3.8507 41.4414 3.91782C42.0941 3.9616 42.4831 4.4081 42.5807 5.0224C42.6929 5.72133 42.4248 6.29186 41.8391 6.59682C41.7269 6.65519 41.6089 6.70042 41.4618 6.76608V6.76754ZM40.1403 4.31909V6.4261C40.6313 6.46112 41.1063 6.49176 41.3758 5.99711C41.6206 5.54915 41.6351 5.07493 41.3452 4.64594C41.0509 4.21111 40.5803 4.31179 40.1388 4.31763L40.1403 4.31909Z" fill="#E7E7E7"/>
<path d="M36.1919 75.8877C36.1978 75.79 36.2021 75.701 36.208 75.5945H36.8126C36.868 74.0302 36.9219 72.4835 36.9773 70.9222C36.7704 70.9047 36.5839 70.8887 36.3886 70.8726V70.5779C36.7223 70.5779 37.0399 70.5662 37.3561 70.5808C38.0263 70.6114 38.7052 70.6042 39.3653 70.7078C40.6183 70.9018 41.5012 71.9816 41.5537 73.2948C41.6003 74.4228 40.7538 75.6076 39.6756 75.8979C39.4119 75.968 39.1307 76.0059 38.8582 76.0016C38.0307 75.9884 37.2031 75.949 36.3755 75.9169C36.3202 75.9155 36.2662 75.9009 36.1905 75.8892L36.1919 75.8877ZM37.8573 75.5098C38.0787 75.5229 38.2623 75.5361 38.4444 75.5448C39.0768 75.5711 39.5678 75.307 39.932 74.7992C40.5294 73.9675 40.5498 72.701 39.9641 71.8532C39.4308 71.0813 38.8917 71.0229 38.0175 71.074C37.9651 72.5404 37.9112 74.0098 37.8573 75.5098Z" fill="#E7E7E7"/>
<path d="M17.471 12.5864C17.3035 12.7061 17.149 12.8155 16.9771 12.9381C16.913 12.8549 16.8503 12.7747 16.7833 12.6886C16.827 12.6477 16.8547 12.6171 16.8882 12.5937C17.538 12.1151 18.182 11.6278 18.842 11.1623C20.5001 9.99354 22.671 10.8588 23.0629 12.8462C23.264 13.8661 22.958 14.727 22.1421 15.3807C21.689 15.7426 21.2126 16.0753 20.7434 16.4182C20.5963 16.5262 20.3005 16.4372 20.1562 16.2416C19.7774 15.7295 19.403 15.2129 19.0256 14.6993C18.5565 14.0587 18.0888 13.4196 17.6196 12.7791C17.5745 12.7178 17.5264 12.6594 17.4696 12.5864H17.471ZM21.01 15.6769C21.2053 15.531 21.383 15.4026 21.555 15.2669C21.9804 14.9357 22.18 14.4892 22.1946 13.9566C22.2048 13.5728 22.1115 13.2095 21.9381 12.871C21.5622 12.1312 20.9969 11.6234 20.1708 11.4366C19.4409 11.2718 18.9003 11.6234 18.3787 12.0918C19.2485 13.2781 20.1198 14.4644 21.0086 15.6769H21.01Z" fill="#E7E7E7"/>
<path d="M12.6513 53.4589C12.6469 54.9794 11.3502 56.2299 9.78688 56.224C8.29201 56.2167 7.10747 55.0334 7.1133 53.5509C7.11913 52.0479 8.42022 50.7901 9.96754 50.7945C11.461 50.7989 12.6557 51.9837 12.6513 53.4589ZM9.24342 55.2376C9.24633 55.226 9.25071 55.2143 9.25362 55.2026C9.38766 55.1895 9.52316 55.1851 9.65429 55.1632C10.6305 55.0013 11.4158 54.5402 11.8922 53.6515C12.341 52.8155 11.9884 52.0844 11.0603 51.886C10.3682 51.7386 9.70674 51.8539 9.08607 52.1836C8.47996 52.5061 7.99915 52.9555 7.76166 53.6165C7.5402 54.2323 7.76312 54.762 8.36631 55.01C8.64314 55.1238 8.94911 55.1632 9.24196 55.2376H9.24342Z" fill="#E7E7E7"/>
<path d="M74.1378 26.6484C74.1305 28.1615 72.8396 29.4106 71.2879 29.4047C69.7843 29.3989 68.5939 28.2068 68.6041 26.7184C68.6143 25.2257 69.9402 23.9665 71.4802 23.9854C72.978 24.0044 74.1451 25.1747 74.1378 26.6484ZM70.7896 28.4271C71.1918 28.322 71.6114 28.2637 71.9873 28.1032C72.7464 27.7822 73.3306 27.2612 73.5477 26.4251C73.6672 25.9611 73.4894 25.5351 73.0756 25.2972C72.895 25.1936 72.6895 25.1148 72.4856 25.074C71.7673 24.931 71.0927 25.0842 70.4633 25.4388C69.8921 25.7598 69.4375 26.1961 69.2336 26.841C69.0529 27.4115 69.2642 27.9252 69.812 28.1615C70.1107 28.2899 70.4443 28.3352 70.7911 28.4256L70.7896 28.4271Z" fill="#E7E7E7"/>
<path d="M34.3112 70.5079C34.1014 70.4524 33.912 70.4028 33.7007 70.3474C33.7225 70.2467 33.7415 70.1533 33.7677 70.0322C34.3636 70.1723 34.945 70.3109 35.5409 70.451C35.5146 70.5604 35.4928 70.6465 35.4651 70.7632C35.2436 70.7151 35.0338 70.6684 34.7964 70.6159C34.4059 72.2749 34.0183 73.9252 33.6264 75.5916C33.4282 75.542 33.2519 75.4996 33.0727 75.4544C32.4725 73.9617 31.8765 72.4792 31.2792 70.9952C31.2632 70.9952 31.2471 70.9952 31.2311 70.9952C30.9616 72.1188 30.692 73.2409 30.4196 74.3805C30.6337 74.4374 30.8231 74.487 31.0359 74.5424C31.0126 74.6431 30.9907 74.735 30.963 74.8562C30.3729 74.7132 29.8003 74.5731 29.2015 74.4272C29.2263 74.3148 29.2467 74.2171 29.2715 74.1062C29.4958 74.1601 29.6998 74.2083 29.9213 74.2608C30.0495 73.7253 30.1748 73.2102 30.2972 72.6937C30.4735 71.9568 30.6366 71.2156 30.8319 70.4845C30.9106 70.1898 30.8945 69.9301 30.7314 69.647C30.5725 69.6047 30.3904 69.5551 30.1879 69.5011C30.2098 69.4033 30.2301 69.3172 30.2593 69.1888C30.7882 69.3158 31.3054 69.4398 31.8314 69.5653C32.3865 70.9661 32.9387 72.361 33.4909 73.7545L33.5404 73.7574C33.7969 72.6791 34.0533 71.6008 34.3126 70.5079H34.3112Z" fill="#E7E7E7"/>
<path d="M63.5573 17.0911C64.3003 16.2769 65.0434 15.4612 65.8025 14.6309C65.6495 14.4836 65.5038 14.3435 65.3421 14.1903C65.4106 14.1086 65.4761 14.0298 65.5577 13.9349C66.0094 14.3552 66.4494 14.7637 66.8982 15.181C66.8209 15.2686 66.751 15.3459 66.6738 15.432C66.5033 15.2788 66.346 15.1373 66.1449 14.9563C66.0968 15.0264 66.0604 15.0949 66.0094 15.1519C65.4208 15.8041 64.8307 16.4549 64.2377 17.1042C64.1867 17.1596 64.1241 17.2209 64.057 17.2414C63.534 17.3902 63.0065 17.5303 62.482 17.6718C62.4631 17.6762 62.4427 17.6689 62.4004 17.666C62.568 16.3075 62.7341 14.9534 62.9016 13.5993C62.8885 13.5906 62.8769 13.5803 62.8638 13.5716C62.0872 14.4237 61.3106 15.2759 60.5165 16.147C60.671 16.2944 60.8167 16.433 60.9799 16.5891C60.9085 16.6694 60.8415 16.7467 60.7584 16.8401C60.3053 16.4257 59.8624 16.023 59.4092 15.6086C59.4865 15.521 59.552 15.4481 59.6307 15.3591C59.7982 15.5035 59.9571 15.6407 60.1727 15.826C60.212 15.7618 60.2426 15.6874 60.2936 15.6305C61.1591 14.6747 62.0333 13.7263 62.8856 12.7588C63.0036 12.6246 63.0284 12.4028 63.0794 12.216C63.091 12.1752 63.0313 12.1051 62.9905 12.0628C62.8973 11.9665 62.7953 11.879 62.6758 11.7695C62.7486 11.6849 62.8142 11.609 62.8973 11.5142C63.3008 11.8819 63.6928 12.2379 64.0876 12.5969C63.8953 14.094 63.7044 15.5823 63.5136 17.0706C63.5281 17.0779 63.5442 17.0838 63.5587 17.0911H63.5573Z" fill="#E7E7E7"/>
<path d="M58.0869 8.72271C58.1525 8.62057 58.2006 8.54469 58.2617 8.44985C59.2044 9.05248 60.1325 9.64635 61.0679 10.2446C61.1218 10.1877 61.1641 10.1439 61.2209 10.0826C61.3272 10.1468 61.4336 10.211 61.5691 10.2928C61.3375 10.6575 61.1131 11.0107 60.8814 11.3754C60.7547 11.2967 60.6483 11.231 60.523 11.1522C60.625 10.9873 60.7182 10.8326 60.826 10.6575C60.3598 10.3511 59.9009 10.0505 59.4128 9.73099C59.066 10.2738 58.7265 10.8064 58.3754 11.355C58.7527 11.5929 59.1097 11.8176 59.4769 12.0496C59.5832 11.892 59.6765 11.7519 59.7799 11.5972C59.9038 11.6702 60.0174 11.7373 60.1544 11.819C59.8673 12.2699 59.5891 12.7077 59.302 13.1585C59.1767 13.0812 59.0704 13.0155 58.9436 12.9367C59.0456 12.7733 59.1418 12.6216 59.2467 12.4538C58.8795 12.2218 58.5269 12 58.1452 11.7607C57.7868 12.3239 57.4342 12.8769 57.0685 13.4518C57.5638 13.7714 58.0505 14.0836 58.5517 14.4061C58.6653 14.2368 58.7702 14.0807 58.8839 13.91C59.0048 13.9859 59.1112 14.0515 59.2438 14.1347C59.0412 14.4367 58.846 14.7286 58.6362 15.0408C57.5478 14.3463 56.4711 13.659 55.3798 12.963C55.4468 12.8652 55.5037 12.7792 55.5678 12.6843C55.7426 12.7923 55.9043 12.8915 56.0835 13.0024C56.9242 11.6833 57.7562 10.3774 58.5969 9.0554C58.422 8.94012 58.2647 8.83653 58.0869 8.71979V8.72271Z" fill="#E7E7E7"/>
<path d="M28.9564 11.4487C28.9185 11.3291 28.8894 11.2386 28.8544 11.1336C29.0497 11.065 29.2274 11.0022 29.4285 10.9322C28.9389 9.4424 28.4537 7.96574 27.9613 6.47011C27.7646 6.53139 27.5839 6.58684 27.3829 6.64958C27.3479 6.54598 27.3158 6.45114 27.275 6.33295C27.6626 6.20454 28.0312 6.08051 28.3984 5.9594C28.8413 5.81349 29.2813 5.65298 29.7301 5.52603C30.7616 5.2342 31.63 5.81495 31.7349 6.85386C31.8238 7.73519 31.018 8.63403 30.1089 8.64862C30.0754 8.5494 30.0404 8.44434 29.9996 8.32615C30.055 8.3028 30.0972 8.28091 30.1424 8.26924C30.5926 8.14521 30.8461 7.80085 30.7543 7.34414C30.6902 7.03042 30.5795 6.71524 30.4251 6.43509C30.2211 6.06592 29.8801 5.96524 29.4751 6.08197C29.3192 6.12721 29.1677 6.18119 28.9914 6.2381C29.4722 7.6885 29.9486 9.12284 30.4309 10.5776C30.6509 10.5105 30.8505 10.4478 31.0749 10.3792C31.1113 10.4813 31.1463 10.5762 31.1914 10.7016C30.4425 10.9526 29.7155 11.1963 28.9579 11.4502L28.9564 11.4487Z" fill="#E7E7E7"/>
<path d="M63.1734 61.2113C63.2506 61.3018 63.3059 61.366 63.3773 61.4506C63.2214 61.598 63.0655 61.7468 62.8951 61.9088C62.9606 61.9832 63.0189 62.0518 63.0801 62.1189C63.7256 62.8252 64.3768 63.5255 65.0135 64.2391C65.742 65.0547 65.7712 65.9069 65.1184 66.7619C64.8256 67.1457 64.4672 67.455 64.0286 67.6564C63.8436 67.741 63.644 67.8067 63.4444 67.8403C62.8106 67.9439 62.2962 67.7089 61.8708 67.242C61.2268 66.5343 60.5799 65.8295 59.9359 65.1233C59.8602 65.0401 59.7829 64.957 59.6882 64.8548C59.5353 64.9876 59.3881 65.1146 59.2205 65.2619C59.1477 65.1831 59.0792 65.1087 58.9947 65.0153C59.5557 64.5032 60.1064 63.9998 60.6717 63.4832C60.7518 63.5737 60.8203 63.6496 60.8975 63.7357C60.7504 63.8714 60.6149 63.9954 60.4721 64.1282C60.5027 64.1749 60.5246 64.2172 60.5551 64.2522C61.2414 65.008 61.9276 65.7624 62.6153 66.5154C62.7057 66.6146 62.8047 66.7065 62.9096 66.7911C63.3773 67.172 63.7867 67.1895 64.2879 66.8568C65.0747 66.3373 65.2889 65.4327 64.7119 64.7279C64.0228 63.8845 63.2651 63.098 62.5192 62.2692C62.3429 62.4297 62.1826 62.5742 62.0078 62.7318C61.9305 62.6457 61.8664 62.5742 61.7819 62.4808C62.2409 62.062 62.6926 61.6491 63.1704 61.2113H63.1734Z" fill="#E7E7E7"/>
<path d="M17.3658 64.5472C16.9039 65.0521 16.461 65.535 16.0035 66.0355C16.4362 66.4383 16.8558 66.8279 17.2915 67.232C17.4299 67.0861 17.5596 66.9504 17.7067 66.7972C17.8087 66.8877 17.9049 66.9752 18.0287 67.0847C17.7854 67.3415 17.5494 67.5895 17.2988 67.8551C16.3488 66.9767 15.4105 66.11 14.4635 65.233C14.5421 65.1498 14.6092 65.0783 14.6878 64.9952C14.8365 65.1309 14.9749 65.2593 15.1381 65.4096C16.1929 64.2627 17.2405 63.1245 18.2997 61.9733C18.1467 61.8332 18.0025 61.7033 17.8451 61.5603C17.9428 61.4523 18.0112 61.3765 18.0899 61.2904C18.9102 62.0477 19.7203 62.7962 20.5377 63.5491C20.5974 63.501 20.644 63.4616 20.7067 63.412C20.8072 63.5025 20.9048 63.59 21.0185 63.6936C20.73 64.0102 20.4502 64.3167 20.1588 64.6362C20.0496 64.5399 19.9563 64.4582 19.8485 64.3633C19.9782 64.2145 20.0976 64.0788 20.2346 63.9212C19.8208 63.5375 19.4187 63.1639 18.9991 62.7758C18.5576 63.2544 18.1292 63.7199 17.6892 64.197C18.0156 64.5005 18.3259 64.788 18.6596 65.0973C18.7878 64.9529 18.9044 64.8215 19.0282 64.6814C19.136 64.7763 19.2307 64.8595 19.3444 64.9602C18.983 65.3541 18.6319 65.7379 18.2677 66.1348C18.1584 66.0428 18.0579 65.9582 17.9442 65.8634C18.0681 65.7204 18.1817 65.5876 18.3172 65.4314C18.0054 65.1411 17.6965 64.8536 17.3658 64.5457V64.5472Z" fill="#E7E7E7"/>
<path d="M53.3052 73.5164C53.8647 73.2975 54.3965 73.0903 54.9473 72.8758C54.8788 72.6876 54.8176 72.5168 54.7477 72.3228C54.87 72.2702 54.9895 72.2192 55.1381 72.1564C55.2707 72.4935 55.3975 72.8116 55.533 73.1559C54.3324 73.6287 53.1493 74.0927 51.9429 74.5684C51.9022 74.4721 51.8643 74.3831 51.8176 74.2722C52.0027 74.1919 52.1804 74.1131 52.383 74.0256C51.8118 72.5694 51.2451 71.1219 50.6725 69.6613C50.4729 69.7386 50.2966 69.8057 50.1013 69.8801C50.0605 69.7795 50.0256 69.6905 49.9818 69.5796C51.0207 69.1695 52.0449 68.7654 53.0809 68.3568C53.0619 68.2795 53.0459 68.2138 53.0255 68.1306C53.1566 68.0796 53.2775 68.0314 53.416 67.9774C53.5733 68.3787 53.7248 68.7654 53.8851 69.1739C53.7452 69.2337 53.6258 69.2834 53.4917 69.3403C53.4145 69.1564 53.3431 68.9901 53.2644 68.8018C52.7341 69.0076 52.2227 69.206 51.688 69.4132C51.9255 70.0115 52.1557 70.5937 52.3961 71.2021C52.8099 71.0387 53.2018 70.884 53.6054 70.725C53.5398 70.547 53.4801 70.3894 53.4145 70.2114C53.5471 70.1559 53.6666 70.1063 53.8079 70.0465C54.0031 70.5441 54.1896 71.0227 54.3878 71.5275C54.2566 71.5844 54.1386 71.6355 54.0002 71.6968C53.9244 71.5188 53.8574 71.3597 53.7788 71.1744C53.3795 71.3306 52.9876 71.4852 52.5724 71.6472C52.8186 72.2732 53.0575 72.8831 53.3081 73.5193L53.3052 73.5164Z" fill="#E7E7E7"/>
<path d="M6.67308 28.303C6.61043 28.5087 6.5507 28.7043 6.48368 28.9231C6.37731 28.8969 6.27824 28.8721 6.15148 28.84C6.33361 28.233 6.50844 27.6464 6.69057 27.0408C6.7911 27.0656 6.87706 27.0875 6.98779 27.1153C6.93097 27.3341 6.87706 27.5413 6.81733 27.7675C7.0927 27.8507 7.3535 27.9309 7.61721 28.0097C8.32822 28.2228 9.04069 28.4343 9.7517 28.6474C9.82601 28.6693 9.90031 28.6941 9.97316 28.7203C10.8007 29.0311 11.1883 29.5535 11.2116 30.4348C11.2291 31.1075 11.0339 31.7262 10.6172 32.2573C10.1291 32.8804 9.48799 33.0905 8.72744 32.8716C7.78331 32.6002 6.84355 32.3113 5.90088 32.0311C5.79452 31.999 5.68525 31.9728 5.5614 31.9392C5.50021 32.1347 5.44484 32.3157 5.37928 32.5258C5.27437 32.4937 5.17967 32.4645 5.06457 32.428C5.28312 31.7014 5.49438 30.9922 5.71293 30.2641C5.8222 30.2962 5.91399 30.3239 6.02472 30.356C5.97227 30.5516 5.92273 30.7325 5.86591 30.9397C6.26658 31.0608 6.65706 31.1805 7.04753 31.2957C7.73231 31.4971 8.4171 31.6999 9.1048 31.8954C9.24613 31.9363 9.3962 31.9538 9.54481 31.9626C9.88574 31.9815 10.164 31.8517 10.3767 31.5803C11.0732 30.6843 10.7497 29.5302 9.67448 29.1785C8.72015 28.8662 7.75126 28.5992 6.78819 28.3132C6.76196 28.3059 6.73282 28.3074 6.67454 28.303H6.67308Z" fill="#E7E7E7"/>
<path d="M23.6717 8.57684C23.9675 9.15174 24.2545 9.70914 24.5576 10.2972C24.9466 10.0958 25.3196 9.90321 25.7115 9.70038C25.6284 9.5355 25.5541 9.38521 25.4667 9.21157C25.5891 9.14591 25.7071 9.0817 25.8484 9.00729C26.0947 9.48589 26.3307 9.94406 26.5769 10.4227C26.4575 10.4898 26.3438 10.554 26.2142 10.6284C26.1209 10.4591 26.0364 10.3059 25.9402 10.1323C25.5585 10.3307 25.1841 10.5248 24.7878 10.7305C25.0966 11.3273 25.3982 11.9095 25.7144 12.518C26.236 12.251 26.743 11.9913 27.2734 11.7184C27.1889 11.5389 27.1102 11.3697 27.0228 11.1843C27.1495 11.1158 27.2646 11.0545 27.4001 10.9815C27.5575 11.2894 27.709 11.5827 27.8722 11.9008C26.727 12.4903 25.5964 13.0725 24.4425 13.6664C24.3929 13.5715 24.3492 13.4869 24.2953 13.3818C24.4731 13.2811 24.6435 13.1863 24.83 13.0812C24.1146 11.6921 23.4036 10.3161 22.6853 8.9212C22.4988 9.01458 22.3313 9.09921 22.1404 9.19552C22.0938 9.10213 22.0501 9.0175 21.9947 8.90807C22.9826 8.3959 23.9616 7.88958 24.9524 7.37742C24.9276 7.30592 24.9072 7.24317 24.8796 7.16146C24.9947 7.10018 25.1112 7.04035 25.2511 6.96593C25.4463 7.35115 25.6328 7.72032 25.8295 8.10845C25.7057 8.17849 25.5964 8.23977 25.4667 8.31273C25.3735 8.14639 25.2831 7.99026 25.1782 7.80349C24.6785 8.0603 24.1846 8.31419 23.6717 8.57684Z" fill="#E7E7E7"/>
<path d="M23.4908 71.6315C24.8444 70.3445 26.1892 69.0663 27.5485 67.772C27.6899 67.8347 27.8297 67.8975 27.9944 67.9704C27.8909 69.8265 27.7889 71.6781 27.6855 73.5283C27.786 73.5794 27.8734 73.6232 27.9842 73.6801C27.9419 73.7779 27.9026 73.8712 27.8501 73.9953C27.2469 73.7239 26.6583 73.4583 26.0493 73.184C26.0959 73.0789 26.1338 72.9914 26.179 72.8878C26.3494 72.9564 26.5039 73.0176 26.6933 73.0935C26.7224 72.6178 26.7501 72.164 26.7807 71.6869C26.1819 71.414 25.586 71.1412 24.958 70.8552C24.6506 71.201 24.3461 71.5424 24.0416 71.8853C24.1698 71.9452 24.3461 72.0283 24.5457 72.1232C24.5063 72.2209 24.4714 72.3085 24.4218 72.4311C23.909 72.1991 23.4107 71.9743 22.8964 71.7423C22.943 71.6344 22.9809 71.5454 23.026 71.4432C23.1849 71.5074 23.3276 71.5658 23.4908 71.6315ZM25.3849 70.4904C25.8905 70.7209 26.3494 70.9311 26.8463 71.1572C26.89 70.4262 26.9322 69.7433 26.973 69.059C26.9526 69.0517 26.9337 69.0444 26.9133 69.0371C26.4135 69.5113 25.9152 69.9855 25.3849 70.4889V70.4904Z" fill="#E7E7E7"/>
<path d="M35.9015 9.55479C35.884 9.42638 35.8723 9.33737 35.8577 9.2294C36.037 9.19146 36.206 9.15644 36.4012 9.11412C36.1564 8.70264 35.9262 8.31451 35.6844 7.90886C35.036 8.02268 34.392 8.13503 33.7364 8.24885C33.6373 8.70556 33.5426 9.14622 33.4377 9.63066C33.6635 9.60002 33.8588 9.5723 34.0729 9.54311C34.0904 9.65109 34.1064 9.7474 34.1254 9.86851C33.5805 9.96335 33.0472 10.0553 32.4848 10.1516C32.4644 10.0334 32.4484 9.93563 32.4295 9.82619C32.6043 9.79263 32.7558 9.76345 32.9234 9.73134C33.3124 7.90741 33.7014 6.08784 34.0919 4.25661C34.2536 4.22743 34.4037 4.1997 34.5771 4.16906C35.5328 5.75953 36.4857 7.34855 37.443 8.94049C37.5566 8.92881 37.66 8.9186 37.7824 8.90692C37.8014 9.00761 37.8203 9.10099 37.8436 9.21772C37.1924 9.33154 36.5615 9.44097 35.9015 9.55479ZM33.8427 7.73814C34.3891 7.64184 34.8859 7.55575 35.4134 7.46382C35.0418 6.83201 34.6922 6.23522 34.3075 5.5786C34.1472 6.32423 34.0001 7.00419 33.8427 7.73814Z" fill="#E7E7E7"/>
<path d="M47.2311 75.5638C47.234 75.6061 47.2384 75.6718 47.2442 75.7564C47.1233 75.7856 47.0009 75.8148 46.8392 75.8542C46.7357 75.3799 46.6337 74.9159 46.5259 74.43C46.6804 74.3979 46.8071 74.3702 46.9441 74.3425C46.9703 74.4417 47.0053 74.5147 47.0053 74.5891C47.0096 74.8853 47.1888 75.0006 47.4438 75.0677C47.7804 75.1581 48.1038 75.1377 48.4185 74.9962C48.6706 74.8824 48.8527 74.6985 48.8833 74.4081C48.9168 74.1017 48.7886 73.8551 48.5249 73.7136C48.1956 73.537 47.8459 73.3984 47.505 73.2437C47.1699 73.092 46.8086 72.9826 46.5055 72.7841C45.6386 72.218 45.6575 70.9485 46.5201 70.378C46.88 70.1401 47.2792 70.0409 47.709 70.0482C47.8212 70.0497 47.9348 70.0482 48.0616 70.0482C48.0659 69.9913 48.0703 69.9315 48.0747 69.8483C48.1956 69.8206 48.3224 69.7914 48.4739 69.7564C48.573 70.2102 48.6691 70.6479 48.7697 71.1032C48.6225 71.1382 48.5001 71.1674 48.353 71.2038C48.3078 71.0273 48.2656 70.8595 48.2189 70.6756C47.8867 70.5224 47.5414 70.4538 47.1816 70.5954C46.9193 70.6975 46.7445 70.8857 46.7139 71.1747C46.6818 71.4694 46.8115 71.6941 47.0723 71.8152C47.4569 71.9932 47.8532 72.1465 48.2437 72.3099C48.4069 72.3785 48.5759 72.4354 48.7347 72.5112C49.4559 72.86 49.8202 73.5618 49.6847 74.3293C49.5667 75.0006 48.9591 75.5229 48.1825 75.5828C47.8707 75.6076 47.5546 75.5696 47.2282 75.5609L47.2311 75.5638Z" fill="#E7E7E7"/>
<path d="M12.9501 25.9173C13.0346 25.9771 13.09 26.0165 13.1599 26.0661C13.0929 26.1901 13.0302 26.3069 12.9574 26.4396C12.5319 26.2003 12.1211 25.9683 11.6898 25.7247C11.7597 25.5933 11.8253 25.4737 11.8967 25.338C12.0817 25.4372 12.2478 25.5277 12.43 25.6254C12.9297 25.4343 13.3027 25.1147 13.4076 24.5603C13.511 24.0218 13.0871 23.6001 12.5625 23.7417C12.2056 23.8394 11.869 24.016 11.5266 24.1663C11.1711 24.321 10.8331 24.5354 10.463 24.6347C9.40379 24.9221 8.44363 23.9503 8.70298 22.8808C8.80351 22.4649 9.01623 22.1089 9.32365 21.8112C9.37319 21.7631 9.42419 21.7149 9.48684 21.6551C9.42419 21.6069 9.37028 21.5661 9.3018 21.5135C9.36882 21.3939 9.43293 21.2786 9.50578 21.1502C9.90791 21.3764 10.294 21.5938 10.702 21.8243C10.632 21.9528 10.5694 22.0666 10.4965 22.1993C10.3246 22.1074 10.1702 22.0257 10.0143 21.9411C9.70393 22.0826 9.44604 22.2738 9.3018 22.5846C9.17213 22.8618 9.1765 23.139 9.38193 23.3827C9.58446 23.622 9.85254 23.6775 10.1323 23.5534C10.5519 23.3681 10.954 23.142 11.3766 22.9625C11.6913 22.8297 12.022 22.6765 12.3542 22.6502C13.5256 22.5598 14.343 23.7271 13.8913 24.8112C13.7019 25.2679 13.3945 25.6327 12.9472 25.9129L12.9501 25.9173Z" fill="#E7E7E7"/>
<path d="M57.9781 65.8298C57.93 65.7378 57.8892 65.6561 57.8382 65.5584C57.9548 65.4854 58.0655 65.4154 58.1996 65.3322C58.4531 65.7495 58.6978 66.1522 58.9543 66.5754C58.8319 66.6513 58.7212 66.7213 58.5915 66.8016C58.4924 66.6513 58.4006 66.5112 58.3118 66.3769C57.2321 66.1989 56.253 67.0102 56.2268 68.0944C56.1991 69.25 57.0281 70.4144 58.0917 70.7165C59.0053 70.9762 59.9538 70.5414 60.3253 69.679C60.2321 69.5185 60.1315 69.3492 60.0208 69.1581C60.1432 69.0837 60.2597 69.0122 60.4011 68.9275C60.5847 69.2398 60.7595 69.536 60.93 69.8264C60.1461 70.9718 58.692 71.824 57.3079 71.4344C56.1977 71.1207 55.5522 70.3385 55.3351 69.231C55.118 68.125 55.5274 67.2247 56.3958 66.5331C56.8096 66.2033 57.2787 65.9713 57.8091 65.8808C57.863 65.8721 57.914 65.8502 57.9766 65.8312L57.9781 65.8298Z" fill="#E7E7E7"/>
<path d="M75.9446 32.6516C76.0306 32.6384 76.0859 32.6297 76.1617 32.618C76.1952 32.7464 76.2272 32.8734 76.2651 33.0222C75.8484 33.1272 75.4521 33.2279 75.034 33.3344C74.9946 33.2002 74.9582 33.0762 74.916 32.9288C75.1127 32.8704 75.2919 32.8164 75.4842 32.7595C75.3443 32.2109 75.2074 31.6783 75.0631 31.118C74.4395 31.277 73.8334 31.4317 73.1967 31.5937C73.3074 32.0212 73.4138 32.4341 73.5216 32.8573C73.711 32.815 73.8728 32.777 74.0534 32.7362C74.0884 32.8719 74.119 32.993 74.1569 33.1448C73.644 33.2761 73.1413 33.4045 72.6183 33.5387C72.5775 33.4016 72.5425 33.2819 72.4988 33.136C72.6795 33.0835 72.8514 33.0324 73.0466 32.9755C72.9388 32.5567 72.8339 32.1496 72.7232 31.7162C72.0238 31.8943 71.342 32.0679 70.647 32.2459C70.6878 32.4269 70.7242 32.5903 70.765 32.7712C70.6732 32.8033 70.5887 32.831 70.4692 32.8719C70.2886 32.1569 70.1094 31.4565 69.9258 30.7299C70.038 30.7007 70.1298 30.6773 70.2376 30.6481C70.2915 30.8437 70.341 31.0261 70.4007 31.242C71.9102 30.8583 73.4123 30.476 74.9378 30.0864C74.8897 29.8792 74.8446 29.6909 74.7965 29.4867C74.9101 29.4589 75.0034 29.437 75.1126 29.4108C75.3909 30.4979 75.6634 31.566 75.9417 32.6516H75.9446Z" fill="#E7E7E7"/>
<path d="M69.509 53.3743C69.4522 53.5216 69.4041 53.6442 69.3488 53.7857C68.919 53.6223 68.5052 53.4662 68.071 53.3013C68.1249 53.1568 68.1715 53.0343 68.2196 52.9044C68.2983 52.919 68.358 52.9292 68.4498 52.9467C68.8971 51.7604 69.3459 50.5712 69.7975 49.3733C69.7305 49.3324 69.6737 49.2959 69.5994 49.2507C69.646 49.1281 69.6926 49.0041 69.7509 48.8538C70.1822 49.0187 70.6018 49.1777 71.0345 49.3426C70.9777 49.4885 70.9282 49.6111 70.8728 49.7526C70.663 49.6782 70.4677 49.6082 70.2492 49.5294C70.0846 49.9686 69.9272 50.3888 69.7582 50.8368C71.186 51.3767 72.592 51.9078 74.0155 52.4448C74.1088 52.1967 74.1962 51.9676 74.2923 51.7137C74.3929 51.7488 74.4832 51.7809 74.5969 51.8202C74.288 52.6374 73.9849 53.4414 73.6775 54.2585C73.5711 54.2191 73.4866 54.187 73.3759 54.1461C73.4604 53.9054 73.5405 53.6748 73.6352 53.4063C72.2249 52.8767 70.8203 52.3485 69.3939 51.8115C69.2206 52.2653 69.0588 52.6914 68.8898 53.1335C69.0982 53.2137 69.289 53.2867 69.509 53.3713V53.3743Z" fill="#E7E7E7"/>
<path d="M48.8447 5.88771C48.6873 5.86291 48.5635 5.84394 48.4221 5.82059C48.4527 5.60026 48.4819 5.39306 48.5139 5.15668C48.0506 5.07934 47.6018 5.00347 47.1298 4.92467C46.8734 6.43052 46.6228 7.90718 46.3678 9.40281C46.633 9.45388 46.8806 9.50203 47.1429 9.5531C47.121 9.66837 47.1036 9.76322 47.0817 9.87849C46.2206 9.73258 45.3741 9.58958 44.5116 9.44512C44.532 9.32839 44.548 9.23355 44.5684 9.11682C44.8234 9.15913 45.0638 9.19853 45.3391 9.2423C45.5927 7.74521 45.8447 6.25834 46.1012 4.74958C45.6305 4.66932 45.192 4.59491 44.7199 4.51611C44.6777 4.73352 44.6369 4.94364 44.5917 5.17565C44.4489 5.15376 44.3207 5.13333 44.1721 5.11145C44.2508 4.65327 44.3236 4.21699 44.4008 3.76465C44.5524 3.78654 44.6835 3.8055 44.8205 3.82447V4.0594C46.0647 4.26951 47.3163 4.48109 48.578 4.69413C48.6086 4.61825 48.6319 4.55551 48.664 4.47526C48.7864 4.49422 48.9088 4.51319 49.069 4.53654C48.9933 4.98742 48.9219 5.42224 48.8432 5.88771H48.8447Z" fill="#E7E7E7"/>
<path d="M40.8394 48.1577C41.192 48.254 41.5183 48.3736 41.8564 48.4305C42.3867 48.5195 42.8792 48.3678 43.3396 48.1022C43.6091 47.9461 43.8757 47.7841 44.154 47.6455C44.5809 47.4339 45.0107 47.4383 45.4362 47.6688C45.8864 47.9125 46.341 48.1504 46.8232 48.4057C46.5508 48.5254 46.2725 48.6742 45.9782 48.7705C44.9627 49.1017 43.9428 49.4169 42.9229 49.7365C42.1958 49.9641 41.4411 50.126 40.8394 50.7185V48.1562V48.1577Z" fill="#E7E7E7"/>
<path d="M75.597 46.3429C75.6378 46.1576 75.6786 45.9723 75.7237 45.7636C75.8287 45.7913 75.9219 45.8162 76.0385 45.8468C75.8957 46.5837 75.7529 47.3103 75.6072 48.0603C75.4906 48.0384 75.3916 48.0195 75.2794 47.999C75.3158 47.7962 75.3478 47.6109 75.3857 47.4037C74.9821 47.322 74.5873 47.2738 74.2114 47.16C73.5193 46.9499 72.8826 47.0156 72.2357 47.3497C71.6908 47.6313 71.1022 47.8298 70.534 48.0647C70.5208 48.0705 70.5107 48.0808 70.4844 48.1012C70.4524 48.2427 70.4159 48.4003 70.3766 48.574C70.2673 48.555 70.1741 48.5389 70.0517 48.517C70.1959 47.7758 70.3373 47.0506 70.483 46.3006C70.601 46.3225 70.7001 46.34 70.8079 46.359C70.7758 46.5516 70.7467 46.7223 70.7117 46.9382C71.3819 46.6698 72.0084 46.4188 72.6757 46.1518C72.1541 45.6761 71.6617 45.2252 71.1372 44.7466C71.0847 44.9932 71.041 45.196 70.9929 45.4193C70.8822 45.3959 70.7889 45.3769 70.6651 45.3521C70.7875 44.7305 70.9055 44.1221 71.0279 43.499C71.1473 43.5238 71.2406 43.5443 71.3499 43.5661C71.3382 43.6537 71.3411 43.7339 71.3149 43.8025C71.2158 44.0564 71.3236 44.214 71.516 44.3803C72.0405 44.8341 72.5461 45.3127 73.0633 45.7768C73.1332 45.8395 73.225 45.8993 73.3154 45.9183C74.022 46.0657 74.7301 46.2028 75.4396 46.34C75.4863 46.3487 75.5358 46.34 75.5984 46.34L75.597 46.3429Z" fill="#E7E7E7"/>
<path d="M68.7115 16.8067C68.6372 16.849 68.5818 16.8811 68.5148 16.9205C69.3045 17.955 70.0723 18.9618 70.8489 19.9789C70.9188 19.9438 70.9786 19.9132 71.0485 19.8796C71.1301 19.9847 71.2073 20.0839 71.3049 20.2109C70.9407 20.491 70.5837 20.7639 70.2122 21.0484C70.1189 20.9288 70.0388 20.8252 69.947 20.707C70.1218 20.5669 70.285 20.4356 70.4671 20.2897C70.1903 19.922 69.9193 19.563 69.6265 19.1719C68.4172 20.097 67.2166 21.0134 66.0073 21.937C66.1661 22.1501 66.3133 22.3471 66.4721 22.5616C66.389 22.6258 66.3133 22.6856 66.2113 22.7644C65.7654 22.1822 65.3283 21.6131 64.8752 21.0222C64.983 20.9682 65.0675 20.9244 65.1637 20.8762C65.2293 20.9463 65.2905 21.0119 65.3779 21.1039C66.5784 20.1875 67.7775 19.2697 68.9883 18.3446C68.6984 17.9667 68.423 17.6077 68.133 17.2298C67.9553 17.3611 67.7863 17.4852 67.5983 17.6238C67.5124 17.5144 67.4293 17.4064 67.3317 17.2809C67.7018 16.9964 68.0544 16.7279 68.423 16.4448C68.5133 16.5586 68.5949 16.6622 68.71 16.8067H68.7115Z" fill="#E7E7E7"/>
<path d="M23.8322 65.8443C23.7652 65.945 23.7113 66.0238 23.6457 66.1215C23.4738 66.0092 23.3179 65.9056 23.1416 65.7903C22.2921 67.0495 21.45 68.2986 20.5977 69.5637C21.0858 69.8905 21.5549 70.2057 22.0401 70.5311C22.1552 70.3647 22.263 70.2101 22.3825 70.0379C22.5049 70.1167 22.6141 70.1882 22.7453 70.2713C22.5398 70.5778 22.3446 70.8681 22.1377 71.1775C21.0756 70.4596 20.028 69.7504 18.9644 69.0325C19.0241 68.9391 19.0766 68.8574 19.1421 68.7568C19.3141 68.8676 19.4772 68.9742 19.6681 69.0967C20.5336 67.8054 21.3961 66.5199 22.2732 65.2125C22.1071 65.0957 21.9483 64.9834 21.772 64.8594C21.8274 64.7733 21.8798 64.693 21.9512 64.5836C22.5806 65.0053 23.1999 65.4197 23.8336 65.8443H23.8322Z" fill="#E7E7E7"/>
<path d="M71.9449 57.06C72.0003 56.9637 72.0455 56.8849 72.0892 56.8061C72.1344 56.7259 72.1781 56.6456 72.2349 56.5435C72.331 56.5931 72.4199 56.6398 72.5292 56.6952C72.165 57.365 71.8124 58.0158 71.4481 58.6841C71.3505 58.633 71.266 58.5878 71.1567 58.5308C71.2529 58.3499 71.3432 58.1777 71.4452 57.9822C70.0771 57.241 68.7177 56.5026 67.3336 55.7526C67.2316 55.9248 67.1325 56.0926 67.0203 56.2808C66.9256 56.2312 66.8367 56.1845 66.7318 56.1291C67.0946 55.4623 67.4487 54.81 67.8144 54.1373C67.9135 54.1928 68.0023 54.2424 68.1043 54.2993C68.0111 54.4773 67.9266 54.6393 67.8275 54.8275C69.1985 55.5702 70.5623 56.31 71.9435 57.06H71.9449Z" fill="#E7E7E7"/>
<path d="M11.6528 28.7001C11.3658 28.6972 11.1239 28.4564 11.1225 28.1704C11.1225 27.883 11.3818 27.6247 11.6688 27.6306C11.9559 27.6364 12.1992 27.883 12.1977 28.1631C12.1977 28.4594 11.9471 28.703 11.6514 28.6987L11.6528 28.7001Z" fill="#E7E7E7"/>
<path d="M14.2466 22.3528C14.2495 22.0537 14.4753 21.8348 14.7754 21.8392C15.0668 21.8435 15.2985 22.0814 15.2941 22.3703C15.2898 22.6607 15.0479 22.8941 14.7594 22.8883C14.4651 22.8824 14.2436 22.6504 14.2466 22.3528Z" fill="#E7E7E7"/>
<path d="M40.1311 24.4363C39.7115 24.5895 39.3356 24.7267 38.983 24.8551C38.7747 24.7325 38.5809 24.6187 38.3624 24.4888C38.9481 24.4129 39.5061 24.2539 40.1311 24.4363Z" fill="#E7E7E7"/>
<path d="M22.2306 48.7432C21.9785 48.5462 21.961 48.2675 21.9421 47.9917C21.8998 47.3716 21.929 46.7558 22.1592 46.1707C22.2393 45.9664 22.3588 45.7767 22.4884 45.5914C22.2655 46.6347 22.1053 47.6736 22.2306 48.7432Z" fill="#E7E7E7"/>
<path d="M19.4524 42.2481C19.1581 43.2608 18.858 44.2895 18.5608 45.3123C18.3029 44.7214 18.9061 42.6742 19.4524 42.2481Z" fill="#E7E7E7"/>
</g>
</g>
</svg>
