<svg width="80" height="81" viewBox="0 0 80 81" fill="none" xmlns="http://www.w3.org/2000/svg">
<g opacity="0.65">
<path d="M78.6042 40.5C78.6042 19.1795 61.3205 1.89582 40 1.89582C18.6795 1.89582 1.39582 19.1795 1.39582 40.5C1.39582 61.8205 18.6795 79.1042 40 79.1042C61.3205 79.1042 78.6042 61.8205 78.6042 40.5ZM80 40.5C80 62.5915 62.0915 80.5 40 80.5C17.9085 80.5 0 62.5915 0 40.5C0 18.4085 17.9085 0.5 40 0.5C62.0915 0.5 80 18.4085 80 40.5Z" fill="#E7E7E7"/>
<circle cx="40.4824" cy="40.4834" r="28.2286" fill="#E7E7E7" stroke="#E7E7E7" stroke-width="0.542871"/>
<g clip-path="url(#clip0_2145_144064)">
<path d="M56.9627 35.6471L54.7109 37.9936V57.5452C54.7109 60.7515 53.1464 61.1837 51.8949 61.863L40.0952 67.5869L28.0774 61.8393C26.9159 61.2455 25.4131 60.7562 25.4131 57.5452V37.9889L23.0996 35.6423L23.7254 34.6543H56.3986L56.9627 35.6471Z" stroke="#181818" stroke-width="0.503448" stroke-miterlimit="2" stroke-linecap="square"/>
<path d="M6.32829 41.4748L5.20948 42.2871L5.6077 40.9808L4.57422 40.1781H5.85896L6.26666 38.9763L6.67437 40.1496L8.0397 40.1448L6.95881 40.9523L7.36652 42.2491L6.32829 41.4748Z" fill="white"/>
<path d="M45.0749 7.6594L44.7288 9.4502L43.6953 9.26495L44.378 4.86633L47.5448 5.28434L47.4215 6.17737L45.3546 5.86861L45.1649 6.79488L46.8574 7.07038L46.7009 7.90166L45.0749 7.6594Z" fill="white"/>
<path d="M34.0359 9.84863L33.3959 6.3953L32.0496 6.60905L31.8789 5.70178L35.5862 5.06051L35.7853 5.94878L34.3962 6.23854L35.022 9.69188L34.0359 9.84863Z" fill="white"/>
<path d="M30.1791 6.20977L30.9281 8.58483L28.7711 6.60878L27.5527 6.97929L28.937 11.2021L29.9658 10.8649L29.2167 8.39958L31.625 10.4374L32.5447 10.1951L31.3406 5.87251L30.1791 6.20977Z" fill="white"/>
<path d="M53.8049 10.2811C53.5252 10.7751 53.4209 10.8226 53.0558 11.1457C52.5249 11.4544 51.3397 11.5874 50.6144 10.8986C50.1735 10.4379 49.8179 9.84887 49.7705 9.23135C49.7184 8.09608 50.3631 7.04155 51.5246 6.60929C52.2262 6.36228 52.9705 6.49053 53.5726 6.88479C54.1747 7.37881 54.5018 8.08657 54.2979 8.78484L53.3213 8.53784C53.3403 8.21008 53.3403 7.99632 53.0938 7.72557C52.7667 7.37881 52.084 7.28855 51.6147 7.68756C51.1406 8.15783 51.0221 8.45709 50.913 9.1316C50.913 9.62562 51.207 10.0294 51.6384 10.3144C52.2689 10.4331 52.5344 10.2906 52.7714 9.93912L53.8049 10.2811Z" fill="white"/>
<path d="M25.8879 11.6063L27.9833 10.6183L28.391 11.4828L25.3237 12.8604L23.3516 8.83224L26.4757 7.43096L26.8265 8.19573L24.6979 9.141L25.044 9.91053L26.8787 9.084L27.2674 9.91053L25.4517 10.6515L25.8879 11.6063Z" fill="white"/>
<path d="M23.8243 13.6967L22.4969 11.6257L23.2317 14.0435L22.4163 14.6277L20.2261 12.9319L21.8237 15.1217L20.9799 15.7393L18.3535 12.1624L19.6383 11.2361C20.2403 11.7777 21.2738 12.6374 21.9233 13.0554L21.1743 10.1579L22.2077 9.50235L24.6871 13.1552L23.8243 13.6967Z" fill="white"/>
<path d="M61.0637 16.542L60.3763 15.9245L62.0972 13.7964L59.779 15.2785L59.0584 14.7559L59.7458 12.2289L58.4326 14.2952L57.6172 13.7109L60.0255 10.0723L61.059 10.7183L60.2767 13.8344L62.9695 12.1054L63.9698 12.9984L61.0637 16.542Z" fill="white"/>
<path d="M15.6626 15.5967L15.0605 14.8795L17.9903 12.4616L18.5355 13.1457L17.5637 14.0387L19.7918 16.656L18.9717 17.3115L16.7814 14.661L15.6626 15.5967Z" fill="white"/>
<path d="M70.6915 20.9252L69.952 21.4144L68.7099 19.6189L68.0699 20.0892L69.1982 21.785L68.4776 22.184L67.3825 20.5167L66.6003 21.1009L67.8092 22.8727L67.0696 23.3857L65.2539 20.7637L68.7573 18.1369L70.6915 20.9252Z" fill="white"/>
<path d="M7.12292 28.3799L7.95729 26.4751L7.12292 26.0855L5.84766 29.0971L9.95314 30.8262L11.1478 27.8953L10.304 27.5581L9.4601 29.4391L8.58306 29.0686L9.3321 27.3396L8.54988 26.9406L7.7724 28.6791L7.12292 28.3799Z" fill="white"/>
<path d="M73.2222 29.1432C73.4924 28.9104 73.9665 28.2359 73.6157 27.7656C73.2696 27.2716 72.9472 27.3381 72.5443 27.2669C71.7952 27.3429 71.0367 27.5234 70.738 28.2929C70.5911 28.7489 70.6432 29.0957 70.8945 29.3427C71.1694 29.5897 71.4871 29.6799 71.8474 29.6372L72.146 30.573C71.6435 30.8675 70.8945 30.5587 70.392 30.2357C69.6666 29.5469 69.5481 28.5684 69.7662 27.8939C70.1407 26.8774 71.1694 26.3596 72.0702 26.1838C72.9899 26.1648 73.426 26.1649 73.9902 26.6256C74.6776 27.3049 74.6871 27.7181 74.7108 28.3832C74.6871 29.0482 74.2746 29.6847 73.6488 29.9792L73.2222 29.1432Z" fill="white"/>
<path d="M75.9699 33.6137L75.1971 30.4311L70.8262 31.4999L71.6416 34.6777L72.4902 34.4545L71.9545 32.3644L72.86 32.1174L73.3625 33.9367L74.1731 33.7515L73.7654 31.9322L74.6093 31.7184L75.1118 33.8465L75.9699 33.6137Z" fill="white"/>
<path d="M74.8626 41.4328L73.7438 42.2451L74.1468 40.9388L73.1133 40.1361H74.398L74.8057 38.9343L75.2134 40.1076L76.5788 40.1028L75.4979 40.9103L75.9056 42.2071L74.8626 41.4328Z" fill="white"/>
<path d="M9.27657 47.5031L9.57524 48.4674L6.5222 49.3556C6.11924 49.5551 6.07657 50.0349 6.20457 50.3817C6.42264 50.9992 7.29968 50.7522 7.83064 50.5954L10.0209 49.9494L10.3006 50.8852L7.20012 51.7069C6.07183 51.9539 5.42709 51.2082 5.19953 50.7522C4.95301 49.9731 4.95301 49.0801 6.04812 48.5244L9.27657 47.5031Z" fill="white"/>
<path d="M71.7686 51.7211C71.2661 51.6973 70.6925 51.8921 70.5692 52.4336C70.4175 52.8753 70.6688 53.2981 70.9959 53.6164C71.5458 53.9109 72.1716 54.2339 72.8495 54.0106C73.2003 53.9109 73.4279 53.5689 73.5275 53.2459C73.5037 52.8991 73.4279 52.5808 73.1008 52.3576L73.4516 51.4218C73.902 51.5928 74.3286 51.9396 74.4282 52.4336C74.6273 53.1746 74.376 53.8634 73.9541 54.4334C73.4042 55.0272 72.7026 55.2742 71.8492 55.1507C70.8963 55.0034 70.0477 54.4096 69.6732 53.4976C69.5215 52.7803 69.6495 52.0393 70.0477 51.4741C70.574 50.904 71.2993 50.6095 72.0768 50.8328L71.7686 51.7211Z" fill="white"/>
<path d="M7.94957 56.6807L12.055 54.9754L11.5525 54.0111L9.30068 54.9374L10.9552 52.4341L10.557 51.5933L6.52734 53.3223L6.86394 54.2296L9.24379 53.3366L7.5229 55.7734L7.94957 56.6807Z" fill="white"/>
<path d="M72.3943 57.3174L68.4121 55.3983L68.8862 54.4341L72.9253 56.3579L72.3943 57.3174Z" fill="white"/>
<path d="M8.50391 57.5685L12.4055 55.6494L12.8891 56.5092L9.05857 58.5518L8.50391 57.5685Z" fill="white"/>
<path d="M69.3118 62.0864L67.1358 64.6895L63.8789 61.8536L65.8511 59.4168L66.4816 59.8918L65.1305 61.5734L65.7231 62.0674L66.9556 60.5331L67.6336 61.0271L66.4105 62.5946L67.1927 63.2407L68.5391 61.5734L69.3118 62.0864Z" fill="white"/>
<path d="M62.1939 66.1042L63.7347 67.8807L62.9761 68.541L60.127 65.2682L61.1889 64.3799L63.4739 65.5817L62.5969 63.1449L63.4123 62.3421L66.4464 65.3964L65.631 66.1565L64.0049 64.4084L65.0668 66.66L64.4315 67.2395L62.1939 66.1042Z" fill="white"/>
<path d="M22.7896 70.2996C22.4151 71.0407 22.9034 71.2687 23.2258 71.4397C23.5008 71.5157 24.008 71.6582 24.1218 71.0882C23.7947 70.2236 22.1449 69.6061 22.6711 68.3473C22.8228 67.9768 23.221 67.7061 23.5719 67.5826C24.2972 67.4828 24.8471 67.7298 25.3733 68.0528C25.947 68.4993 26.3262 69.1549 25.8853 69.9909L24.9799 69.5586C24.9799 69.5586 25.5013 68.9839 24.6053 68.5706C23.8848 68.3236 23.6999 68.7844 23.7899 69.0314C24.264 69.9956 25.7621 70.5134 25.1031 71.8054C24.6528 72.3992 24.0839 72.5655 23.3822 72.3897C22.7328 72.1664 22.1733 72.0572 21.6945 71.2164C21.4954 70.7984 21.5713 70.2284 21.9126 69.7344L22.7896 70.2996Z" fill="white"/>
<path d="M54.8056 68.6028L51.9375 69.8569L53.5636 73.9277L54.5402 73.5192L53.9144 71.9754L55.5926 71.2107L55.1802 70.3604L53.6489 71.0682L53.3171 70.2701L55.1802 69.4294L54.8056 68.6028Z" fill="white"/>
<path d="M64.7442 20.166L64.1373 19.4725L66.1095 17.5677L63.6301 18.76L62.9806 18.152L63.9762 15.7247L62.4165 17.6199L61.6816 16.9407L64.5213 13.6203L65.4648 14.3851L64.3033 17.3824L67.1904 15.9907L68.0722 16.9977L64.7442 20.166Z" fill="white"/>
<path d="M12.3555 57.4458L13.133 56.9185L15.3232 60.0061L14.5836 60.4811L13.7635 59.4503L10.9238 61.4121L10.3359 60.5476L13.2088 58.6285L12.3555 57.4458Z" fill="white"/>
<path d="M15.8048 61.8059L17.2318 63.3307L17.9286 62.7369L15.6578 60.3619L12.3867 63.3544L14.6149 65.625L15.2738 65.0027L13.8753 63.4779L14.5769 62.8414L15.8712 64.219L16.5586 63.6774L15.2643 62.2714L15.8048 61.8059Z" fill="white"/>
<path d="M26.2715 69.8238L26.6318 68.964L30.1731 70.3796L29.8128 71.1728L28.6419 70.7263L27.3239 73.8994L26.2904 73.5099L27.5752 70.3796L26.2715 69.8238Z" fill="white"/>
<path d="M32.7832 72.0038L32.9539 71.0918L36.718 71.7473L36.5379 72.5976L35.3005 72.4028L34.6748 75.7754L33.5796 75.6044L34.177 72.2793L32.7832 72.0038Z" fill="white"/>
<path d="M38.2922 72.6795L40.3924 72.7982L40.4777 71.8957L37.1687 71.7437L36.9316 76.1328L40.1364 76.2373L40.1696 75.3395L38.0884 75.2018L38.1405 74.2613L40.0463 74.3658L40.1601 73.506L38.2353 73.3825L38.2922 72.6795Z" fill="white"/>
<path d="M42.0139 74.7925C42.066 75.619 42.6681 75.619 43.0379 75.6047C43.2654 75.5477 43.7253 75.2675 43.5688 74.8162C42.8483 74.2272 41.1037 74.5075 40.9235 73.1584C40.8666 72.7642 41.0752 72.3319 41.317 72.0516C41.8954 71.6099 42.4974 71.5529 43.1137 71.5719C43.8391 71.6716 44.498 72.0611 44.5407 72.9969L43.5357 73.0682C43.5357 73.0682 43.6968 72.3177 42.7108 72.3984C41.9617 72.5409 42.0328 73.0349 42.2414 73.2012C43.1564 73.8092 44.6829 73.2534 44.7872 74.9587C44.6971 75.695 44.2989 76.1795 43.602 76.3743C42.8909 76.5595 42.3789 76.6213 41.5351 76.132C41.1511 75.866 40.9283 75.3387 40.9757 74.7402L42.0139 74.7925Z" fill="white"/>
<path d="M42.0248 7.82441C41.8019 8.21867 41.3231 8.51318 40.8254 8.31842C40.4224 8.19492 40.2754 7.77691 40.1759 7.43015C40.0526 6.91238 40.0763 6.29487 40.4034 5.87686C40.8538 5.21184 41.9062 5.58235 42.1054 6.24737C42.2002 6.78889 42.2002 7.30665 42.0248 7.82441ZM42.6268 5.11209C42.1528 4.59433 41.4985 4.44707 40.7732 4.51833C40.0479 4.64183 39.2941 5.30684 39.095 6.00036C38.8674 6.91239 38.8959 8.02391 39.5691 8.71268C40.0194 9.08319 40.4935 9.4537 41.1193 9.3777C42.0437 9.40145 42.8734 8.73643 43.2242 7.94791C43.4754 6.95989 43.3759 5.82461 42.6268 5.11209Z" fill="white"/>
<path d="M57.1515 11.5446C56.8054 12.1289 56.1986 12.3521 55.6487 12.1289C55.1224 11.8819 55.0845 11.2643 55.1888 10.7371C55.3405 10.1433 55.7387 9.53054 56.393 9.37854C56.9002 9.35479 57.379 9.50679 57.4928 10.0341C57.6445 10.5993 57.4027 11.0506 57.1515 11.5446ZM57.8958 8.91303C57.2463 8.37152 56.1417 8.17201 55.369 8.61852C54.3165 9.21228 53.8804 10.5138 53.9941 11.4258C54.1506 12.1669 54.5583 12.5659 55.1936 12.9364C56.0279 13.3354 56.5589 13.1549 57.3411 12.8461C58.2703 12.3759 58.5263 11.5683 58.6258 10.6563C58.6448 9.9818 58.3461 9.35479 57.8958 8.91303Z" fill="white"/>
<path d="M14.496 18.3274L13.7138 17.6814C13.965 17.3109 14.3064 16.8501 14.5576 16.8311C14.9653 16.6649 15.027 16.8169 15.2166 17.0971C15.3873 17.4962 14.7994 17.9854 14.496 18.3274ZM17.3879 18.9022L17.9899 18.1849C17.3642 17.9142 16.8806 17.2349 16.032 17.3109C16.1885 16.7266 15.9656 16.3609 15.7144 16.0664C14.3443 14.9073 12.8415 17.2491 12.2773 17.9617L15.6622 20.8545L16.3117 20.0897L15.1597 19.0304L15.7476 18.3654C16.4776 18.0139 16.7621 18.8784 17.3879 18.9022Z" fill="white"/>
<path d="M12.496 22.2805L11.6805 21.2308L12.9937 21.6013L12.496 22.2805ZM10.7798 19.915L10.1777 20.827L12.88 24.5273L13.4915 23.6343L13.0554 22.9551L13.8376 21.7818L14.6814 22.0335L15.2835 21.1453C13.7854 20.7557 12.2826 20.3377 10.7798 19.915Z" fill="white"/>
<path d="M70.8578 24.683C70.654 24.4835 70.4501 24.0987 70.2652 23.6949L70.9905 23.2959C71.2371 23.6379 71.5642 23.9894 71.5405 24.4787C71.4551 24.7447 71.2134 24.949 70.8578 24.683ZM71.2371 21.7236L67.4492 23.9134L67.9802 24.93L69.4403 24.1842C69.7011 24.531 69.8148 24.7257 69.8385 25.0725C69.6868 25.5902 69.1986 25.8562 68.7103 26.1317L69.1369 27.0723C70.0424 26.6258 70.5876 26.3312 70.8626 25.5902L71.1043 25.7327C71.6353 25.8895 71.9956 25.709 72.2943 25.4572C73.2993 24.3742 71.8676 22.7687 71.2371 21.7236Z" fill="white"/>
<path d="M9.95855 25.0536L8.97721 24.5311C9.07677 24.2081 9.20477 23.8138 9.57929 23.6428C9.9064 23.6191 10.2809 23.7663 10.3046 24.1131C10.2809 24.4551 10.134 24.7829 9.95855 25.0536ZM10.8545 25.5381C10.9588 25.1154 11.6225 24.3554 11.2528 23.4671C10.9541 22.8781 10.352 22.5313 9.70255 22.5313C8.27558 22.6786 8.1144 24.1606 7.59766 25.1201L11.4898 27.1484L12.054 26.1794L10.8545 25.5381Z" fill="white"/>
<path d="M8.33281 33.4424L5.84392 32.8107C6.02881 31.9271 6.37488 31.5329 6.92481 31.4996C7.65014 31.4759 8.33281 31.7419 8.48925 32.3024C8.56511 32.7204 8.42762 33.1052 8.33281 33.4424ZM9.40422 31.7086C8.83533 30.6731 7.24718 30.1269 5.92451 30.6969C5.01903 31.1576 4.78674 32.5827 4.61133 33.5944L9.0534 34.668C9.31888 33.6894 9.83562 32.4734 9.40422 31.7086Z" fill="white"/>
<path d="M73.7137 49.7875L72.429 49.0323L73.9176 49.0418L73.7137 49.7875ZM75.7143 49.1035L76.0367 47.9112L71.386 48.2152L71.1016 49.2603L75.0079 51.8301L75.2971 50.7518L74.3822 50.1913L74.6666 49.1463L75.7143 49.1035Z" fill="white"/>
<path d="M68.5128 58.9174L67.6689 58.2999C68.1382 57.2834 68.8067 57.0459 69.0153 57.8059C68.9916 58.2049 68.764 58.6229 68.5128 58.9174ZM69.9871 58.5469C70.7693 58.6371 70.4849 58.7749 71.3951 59.1929L72.1489 58.0529C71.0016 57.6206 70.5845 57.0364 69.9255 57.5921C69.9776 57.4449 69.9871 57.2501 69.8639 56.9746C69.6126 56.3856 68.6123 55.8346 67.612 56.8511L66.2988 58.8272L69.8686 61.4492L70.575 60.3994L69.2476 59.4352C69.3661 59.1169 69.6316 58.7226 69.9871 58.5469Z" fill="white"/>
<path d="M51.1122 73.6815C50.8515 74.109 50.5812 74.2183 50.0123 74.0995C49.5383 73.9285 49.2633 73.3823 49.1116 72.9167C48.9883 72.3372 49.0879 71.6817 49.6615 71.3872C50.4248 71.1354 50.9131 71.5582 51.1122 72.152C51.2355 72.646 51.3635 73.2112 51.1122 73.6815ZM51.5104 70.8409C50.9083 70.2994 49.8322 70.0999 49.1069 70.5464C48.2535 70.9929 47.879 71.8527 47.9786 72.7932C48.0023 73.5913 48.5901 74.6743 49.4055 74.9878C50.2067 75.2586 51.0838 75.0638 51.7095 74.5698C52.1125 74.1233 52.3116 73.7005 52.359 73.1067C52.3306 72.2755 52.212 71.563 51.5104 70.8409Z" fill="white"/>
<path d="M19.2454 66.0184C18.9373 66.6692 18.3873 67.1442 17.809 67.0302C17.3965 66.9067 17.1121 66.6122 16.8466 66.3746L18.5485 64.4746C19.2644 65.0446 19.4635 65.5244 19.2454 66.0184ZM18.3968 63.0353L15.4102 66.4506C16.1734 67.1299 17.041 68.1369 17.9275 68.1037C19.1222 68.0752 20.3358 66.9257 20.4211 65.5054C20.4164 64.4983 19.2359 63.6481 18.3968 63.0353Z" fill="white"/>
<path d="M30.3449 73.3059L31.1176 72.0613L31.1508 73.5101L30.3449 73.3059ZM32.3739 75.4102L32.0231 70.9165L30.9612 70.6078L28.3301 74.3414L29.4584 74.7119L29.8898 73.9661L31.2124 74.3129V75.1441L32.3739 75.4102Z" fill="white"/>
<path d="M59.6952 69.0356L59.2259 67.6534L60.3732 68.5606L59.6952 69.0356ZM58.9225 66.2331L57.998 66.8363L59.2069 71.2207L60.2215 70.6079L59.918 69.8052L61.0369 69.0309L61.6863 69.5677L62.644 68.8599L58.9225 66.2331Z" fill="white"/>
<path d="M36.8344 25.0115C36.4077 25.0352 35.9573 25.2347 35.5591 25.0115C35.4074 24.7882 35.1324 24.717 35.2083 24.47C35.5828 25.0115 36.384 24.9117 36.8344 25.0115Z" fill="black"/>
<path d="M41.1239 25.7146C41.0244 25.8144 40.8964 25.9854 40.7731 25.8381L40.6973 25.6671C40.8964 25.9854 41.1239 25.2206 41.1239 25.7146Z" fill="black"/>
<path d="M41.1251 26.431C41.0729 26.5308 40.9734 26.4785 40.8975 26.4785C40.8217 26.431 40.7221 26.355 40.7743 26.2553C40.8738 26.3788 41.272 25.9607 41.1251 26.431Z" fill="black"/>
<path d="M36.6386 20.5789C37.2122 21.0729 37.563 21.738 37.416 22.4552C37.1648 22.802 37.1174 23.296 37.2406 23.714C37.3639 23.9373 37.6152 24.1558 37.8427 24.3078C38.4448 24.4313 38.8193 23.9373 39.1464 23.543C39.3218 23.125 39.9239 22.2367 39.0469 22.1132L38.9236 21.9897L38.7482 22.3602C38.3737 22.2842 38.4495 21.8425 38.4495 21.5195C38.3974 21.2724 38.5728 20.9494 38.8525 20.9779C39.2033 21.1252 39.4783 21.0017 39.7011 20.7547C40.4264 20.7072 41.1043 20.9779 41.6306 21.3484C41.2797 21.4957 41.7064 21.89 41.5547 22.1132C41.6306 22.5312 41.678 22.707 41.7538 23.125H41.6306C42.1568 23.4955 41.4314 25.0725 42.8347 24.607C43.7117 23.4955 42.1568 22.5075 42.7589 21.2772L43.2566 20.5837C45.4089 18.8546 48.1396 18.1421 50.0406 16.0188C50.3914 17.0781 49.2157 17.8429 48.462 18.5601C47.0587 19.7429 45.1577 20.0422 44.0815 21.643C44.0578 21.966 44.0578 22.4552 44.456 22.4552H44.6314C44.3565 22.479 44.2048 22.6547 44.2569 22.9492C44.5556 23.2722 43.982 23.6428 44.2569 24.0608C44.1052 24.0608 44.1574 24.2318 44.0815 24.3078C44.6314 24.4835 44.9349 23.7663 45.4611 23.7663C45.3852 24.113 45.0107 24.2603 44.7594 24.4313C44.2854 24.5785 43.8303 24.3078 43.6074 24.9015C44.0341 25.0725 44.2854 24.5548 44.7594 24.6545C44.3565 25.1961 43.5079 25.0963 42.958 25.196C42.958 24.949 43.3325 25.0488 43.432 24.778C44.6362 23.7663 43.2092 22.213 44.1574 21.1014C45.8356 19.5957 47.9357 18.9069 49.4907 17.2016L49.4386 17.1256L43.5553 20.6787C43.0291 21.0729 42.8063 21.567 42.83 22.1607C42.8821 23.0252 44.0057 24.2318 42.83 24.8255C42.6546 24.949 42.427 24.873 42.2279 24.9015C42.1283 25.0725 42.2042 25.3718 41.9292 25.4193C42.1046 25.6188 42.2563 25.8896 42.1046 26.1366C42.0051 26.4596 41.6543 26.6543 41.4552 26.9013C41.4789 27.0248 41.6069 26.9536 41.6827 26.9773L41.934 26.6828C42.0857 26.8538 41.9103 27.2481 41.6353 27.2766C41.5073 27.3004 41.4599 27.2291 41.384 27.1531C41.4836 26.8348 41.2608 26.8063 41.2608 26.5118C41.3366 26.5593 41.4125 26.6591 41.512 26.6116C41.787 26.5118 41.512 26.3408 41.512 26.2173C41.64 26.1176 41.9861 26.1413 41.9387 25.8468C41.787 25.8468 41.4883 25.8706 41.4646 25.6236V25.5001C41.5405 25.4763 41.5642 25.5761 41.64 25.6236C42.1663 25.4241 41.3414 25.0583 41.8629 24.9063C41.5879 24.7353 41.3129 25.4003 41.2134 24.7828C41.2655 24.8825 41.3651 24.8303 41.4646 24.8303C41.4883 24.7305 41.6163 24.683 41.5642 24.5358C41.3651 24.5358 41.1612 24.3363 40.9621 24.4883L41.0854 24.1415C41.2845 24.1415 41.512 24.4883 41.6874 24.1938L41.7633 24.1415C41.4125 23.8708 40.8863 23.8708 40.6634 23.5478C40.7867 23.5478 40.8626 23.6713 40.9621 23.7188C41.0143 23.619 41.1375 23.5478 41.0854 23.4243C41.1375 23.524 41.2371 23.6238 41.3366 23.7188H41.4599C41.5594 23.3958 41.2845 23.0537 40.9574 22.954C40.8341 23.2485 40.6824 22.9065 40.5544 22.8827L40.4786 22.707C40.5307 22.6072 40.6777 22.954 40.8531 22.8827L40.9526 22.6595C41.0522 22.783 41.2039 22.8305 41.3272 22.8827C41.3793 22.6832 41.2513 22.4125 41.0759 22.2415L41.3746 22.1655C41.0996 21.871 41.1992 21.624 41.1517 21.3532C40.7014 21.2059 40.251 20.7879 39.7485 21.1062C39.848 21.5527 40.3506 21.2059 40.5497 21.5242C40.0756 22.3365 39.1227 20.4649 38.5491 21.5242C38.5728 21.6715 38.4969 21.871 38.6723 21.9422C38.7245 21.5242 39.2744 21.5005 39.5257 21.6952C39.6252 21.7427 39.5494 21.8662 39.5778 21.9422C39.4261 21.9185 39.2507 21.719 39.1037 21.8662C39.4546 22.1607 39.9571 22.46 39.5778 23.0015C39.3787 23.1487 39.7011 23.2247 39.6537 23.3483L39.1037 23.5953C39.1559 23.7188 39.355 23.5953 39.355 23.7663L39.1559 23.9373L39.4546 24.0133C39.3313 24.1605 39.1274 24.2128 38.9283 24.1843L38.8525 24.132C38.7529 24.1558 38.8288 24.2793 38.8003 24.3553C38.35 24.3553 37.8759 24.626 37.4729 24.3553C37.0463 23.9848 36.795 23.4908 36.9989 22.9492C37.2501 22.5312 37.2975 21.985 37.1743 21.5195C35.3443 19.6194 32.8175 18.9021 30.7411 17.3251L30.2149 16.8311C29.9873 17.0306 30.3903 17.1256 30.3381 17.3251C32.2392 19.6432 36.6717 19.7429 36.3968 23.543C36.5722 24.0608 37.0463 24.531 37.6009 24.7258H38.1509C38.1272 24.949 38.203 25.3908 37.8522 25.4906C37.4492 25.2198 37.4018 25.7376 37.051 25.7138C36.648 25.9133 36.2735 25.6663 35.9227 25.4906V25.3196C36.2735 25.12 36.3494 25.6141 36.648 25.6141C36.9752 25.6378 37.2501 25.5143 37.4729 25.3196L37.3497 25.196C37.5014 25.196 37.9233 25.2198 38.075 24.949C37.8 24.778 37.2738 24.8493 36.9467 24.6545C35.8706 23.9895 35.9938 22.802 35.918 21.8187C35.4913 21.6477 35.918 21.4482 35.6193 21.2249C33.8937 19.7192 31.7651 19.1254 30.0869 17.5008C29.8119 17.0306 29.4611 16.4416 29.7882 15.8953C31.6608 18.1659 34.4104 18.8309 36.6386 20.5789Z" fill="black"/>
<path d="M48.2844 19.6674L44.9043 21.3965C46.5304 19.7434 49.3843 19.6199 50.2139 17.0786C50.1855 18.1142 49.1852 19.0784 48.2844 19.6674Z" fill="black"/>
<path d="M31.587 19.3207L34.5926 20.8027C32.9239 19.981 30.3971 19.5962 29.9609 17.5964C30.4824 18.1617 30.8617 18.9264 31.587 19.3207Z" fill="black"/>
<path d="M49.1856 19.9663C48.8585 20.1658 48.5598 20.3605 48.209 20.4365C48.6119 20.0898 49.2851 19.7953 49.4842 19.2015L49.0102 19.3725L49.9631 18.4367C50.0863 19.1017 49.5601 19.5197 49.1856 19.9663Z" fill="black"/>
<path d="M31.2832 19.6195C31.1078 19.5198 30.956 19.42 30.7806 19.325C30.5815 19.5245 30.9039 19.648 30.9798 19.7953C31.3638 20.1706 31.8378 20.3748 32.4067 20.6836C32.0085 20.7073 31.4823 20.3606 31.0319 20.1421C31.0319 20.4651 31.506 20.4888 31.6814 20.7358L31.3306 20.5648C31.5297 21.1063 32.3072 21.4293 32.8334 21.7476C32.9566 21.7001 33.0325 21.8236 33.1321 21.8711C32.3072 21.7951 31.2784 21.3533 30.7806 20.4413L30.7285 20.1468H31.0272C30.5246 19.8 30.3492 19.2823 30.1738 18.7883C30.5815 19.002 30.9086 19.3488 31.2832 19.6195Z" fill="black"/>
<path d="M49.1849 21.026C48.5828 21.5675 47.9333 21.938 47.1322 21.9902C47.0089 21.8192 47.08 21.4962 47.3076 21.52H47.4356V21.6197C48.1135 21.596 48.8625 21.1257 49.237 20.4369C48.9621 20.3894 48.7108 20.76 48.4122 20.855L49.6637 19.7957C49.7633 20.3087 49.512 20.703 49.1849 21.026Z" fill="black"/>
<path d="M33.0886 20.6792C33.6622 21.2207 34.3639 21.5199 35.0655 21.8145C33.923 21.5722 32.7236 21.0877 32.3633 20.0854C32.8089 20.0379 32.8089 20.4559 33.0886 20.6792Z" fill="black"/>
<path d="M47.9074 20.0911C47.6087 21.4496 46.0775 21.8439 44.9018 22.1621L44.8496 22.1146C45.7504 21.7203 46.8265 21.5493 47.3764 20.5613L46.4757 20.9318C46.9829 20.7038 47.3575 20.1861 47.9074 20.0911Z" fill="black"/>
<path d="M33.9112 21.9898C34.3853 22.2844 34.8641 22.5836 35.414 22.7071C34.4943 22.7594 33.6979 22.0801 33.2617 21.5718L33.3139 21.4008C33.6836 21.4198 33.6836 21.7666 33.9112 21.9898Z" fill="black"/>
<path d="M32.4883 21.99C32.3888 21.99 32.3129 21.8427 32.2371 21.99C32.4693 22.389 33.0762 22.8165 33.7399 22.9258C32.9624 22.902 31.9621 22.484 31.5117 21.6195V21.4485C31.8625 21.5672 32.1612 21.8142 32.4883 21.99Z" fill="black"/>
<path d="M44.8024 22.9258L44.7266 22.8783C45.4803 22.6313 46.3289 22.2845 46.9073 21.6955C46.656 22.579 45.6036 22.8023 44.8024 22.9258Z" fill="black"/>
<path d="M48.634 21.6915C48.0841 22.6558 47.0316 23.1498 45.927 23.1736C45.6284 23.6438 45.1258 23.7151 44.5996 23.6913C45.2254 23.6438 45.5525 22.9503 46.1024 22.7556V23.0026C46.6524 23.0501 47.1786 22.7318 47.6052 22.3375C47.4061 22.2378 47.2023 22.5085 47.0032 22.5845C47.3303 22.1855 48.0604 21.9148 48.634 21.6915Z" fill="black"/>
<path d="M35.5382 23.5191C34.9361 23.5666 34.2629 23.2958 33.9121 22.7068L33.988 22.5073C34.2629 22.6118 34.9551 23.5761 35.5382 23.5191Z" fill="black"/>
<path d="M33.0877 23.1729C33.1493 23.4721 33.6187 23.5814 34.088 23.8141C33.4385 23.9139 32.6847 23.4674 32.2344 22.8784V22.7026L33.685 23.3439L33.0877 23.1729Z" fill="black"/>
<path d="M47.61 23.0021C47.4346 23.3964 46.9605 23.6196 46.6097 23.8904C46.7093 24.0376 46.8373 23.8381 46.9605 23.8144C47.0364 24.1849 46.4343 24.5079 46.1119 24.7027L45.709 24.8262C45.8607 24.7027 46.1594 24.5317 46.3111 24.3559L46.0124 24.2799L46.4106 24.0566L45.709 23.9806C46.0835 23.9331 46.4865 23.7811 46.7093 23.4629L46.3063 23.3869C46.7567 23.3204 47.1549 23.0971 47.61 23.0021Z" fill="black"/>
<path d="M36.1862 24.3556C35.6363 24.5266 35.0864 24.3319 34.636 24.0611L34.3848 23.5909C34.9631 23.6621 35.3945 24.4886 36.1862 24.3556Z" fill="black"/>
<path d="M33.7384 24.0617C33.6389 24.114 33.6389 24.2612 33.7384 24.285C34.1129 24.855 35.1417 24.3325 35.1891 25.1733L35.3645 25.3728C35.1654 25.4488 34.8146 25.0783 34.7624 24.779C33.9328 24.6935 33.1269 24.4085 32.9609 23.7672L33.7384 24.0617Z" fill="black"/>
<path d="M40.7749 24.2324C40.7986 24.2894 40.6374 24.4984 40.4004 24.6504H40.3008C40.2961 24.5316 40.6469 24.1611 40.7749 24.2324Z" fill="black"/>
<path d="M44.8554 25.762C44.0306 25.8855 44.8317 27.1443 43.7793 26.7738L44.2534 26.427C44.2534 26.2798 44.0021 26.2275 44.078 26.0565C44.2771 26.009 44.4525 25.8855 44.6042 25.7098C44.4525 25.1683 45.4054 25.116 45.1541 24.4747L45.3295 24.3512C45.7799 24.9498 44.7037 25.173 44.8554 25.762Z" fill="black"/>
<path d="M46.7779 24.5792C46.5266 25.2442 45.825 25.5435 45.1992 25.667C45.4742 25.5672 45.8771 25.3962 46.0478 25.1255L45.9246 24.9545C46.2043 24.8262 46.5266 24.7787 46.7779 24.5792Z" fill="black"/>
<path d="M34.6917 25.5391C34.2935 25.5153 33.8147 25.3918 33.6914 24.9453V24.7743C34.3314 24.589 34.2081 25.5391 34.6917 25.5391Z" fill="black"/>
<path d="M40.6445 25.1211L40.7062 24.9216L40.7678 24.9976L40.6445 25.1211Z" fill="black"/>
<path d="M44.2997 25.297C44.2475 25.6675 43.8493 25.715 43.5981 25.8385C43.3231 25.962 43.0244 25.8385 42.7969 25.715C43.2994 25.7387 43.8256 25.468 44.2997 25.297Z" fill="black"/>
<path d="M45.5053 26.3555H45.0312C45.2067 26.1845 45.657 26.2557 45.7566 25.8852L45.4058 25.9612L46.4061 25.2962C46.3302 25.738 45.9035 26.156 45.5053 26.3555Z" fill="black"/>
<path d="M38.1199 25.9606C38.0867 26.0081 37.5605 26.0129 37.4704 25.9606C37.4467 25.9084 37.3945 25.8846 37.3945 25.8371C37.5936 25.8134 37.9208 25.8609 38.0725 25.5901C38.172 25.6139 38.0962 25.8371 38.1199 25.9606Z" fill="black"/>
<path d="M35.5387 26.4794C35.24 26.8024 34.9366 26.4034 34.638 26.3559C34.4388 26.1849 34.2634 25.9141 34.3867 25.6671C34.8655 25.6861 34.7517 26.6837 35.5387 26.4794Z" fill="black"/>
<path d="M40.2227 25.7139V25.666H40.347L40.3614 25.6421L40.2227 25.7139Z" fill="black"/>
<path d="M37.3949 26.3098C37.8215 26.1103 37.8974 26.6043 38.2482 26.4333C38.2719 26.533 38.2482 26.7278 38.0728 26.6565C37.6224 26.286 36.8686 26.6328 36.4467 26.1388C36.2855 26.229 35.7261 26.2908 35.6692 26.2623L35.418 25.8443C36.0912 26.3573 36.7454 25.7873 37.3949 26.3098Z" fill="black"/>
<path d="M43.7809 26.0081C43.5818 26.3786 43.2073 26.5781 42.7569 26.4783L42.6289 26.3548C43.0508 26.3311 43.3258 25.9606 43.7809 26.0081Z" fill="black"/>
<path d="M45.2781 27.0731C45.0268 27.2441 44.804 27.0493 44.5527 27.0208C45.1264 27.1443 45.4819 26.4793 46.0034 26.3035C46.0318 26.7026 45.5578 26.9211 45.2781 27.0731Z" fill="black"/>
<path d="M36.9212 26.6496C36.8643 26.8444 36.3144 26.7921 36.2717 26.7731L36.1484 26.5499C36.3665 26.8491 36.6699 26.4549 36.9212 26.6496Z" fill="black"/>
<path d="M37.7677 27.0204C37.8909 26.8731 38.2702 27.0726 38.4171 27.1439C38.2654 27.3386 37.7013 26.8256 37.341 26.9444C37.2888 26.8446 37.0897 26.6213 37.341 26.5976L37.7677 27.0204Z" fill="black"/>
<path d="M40.3965 26.5502H40.596V26.5977H40.3965V26.5502Z" fill="black"/>
<path d="M43.0479 26.7263C43.0479 26.8308 42.7208 27.1301 42.6971 27.1443C42.5975 27.1206 42.4458 27.1966 42.3984 27.0683L42.9247 26.6503C42.9768 26.7026 43.0005 26.7501 43.0479 26.7263Z" fill="black"/>
<path d="M35.7381 27.197H36.3876C36.1885 27.4678 35.6623 27.615 35.3636 27.368C35.1645 27.197 34.9891 26.95 35.0649 26.7268C35.539 26.6033 35.264 27.2208 35.7381 27.197Z" fill="black"/>
<path d="M37.6927 27.2438C37.631 27.3768 37.0622 27.4053 36.8678 27.3673C36.7445 27.2676 36.5691 27.0966 36.6924 26.9493C36.8678 27.2676 37.394 27.2676 37.6927 27.2438Z" fill="black"/>
<path d="M43.9002 27.3671C43.7532 27.6759 43.2223 27.5191 43.099 27.4906L43.0469 27.4431C43.2697 27.4194 43.6489 27.2721 43.6964 26.9491C43.8481 26.9966 43.9239 27.1961 43.9002 27.3671Z" fill="black"/>
<path d="M40.8991 27.0731C41.0081 26.9924 40.572 27.2251 40.6479 27.2441L40.5957 27.1966L40.8233 27.0209L40.8991 27.0731Z" fill="black"/>
<path d="M44.7274 27.8379C44.5283 27.8141 44.3292 27.8379 44.2012 27.6669C44.8032 27.7666 44.9028 27.0494 45.5049 27.1491C45.5049 27.3914 45.1304 27.8094 44.7274 27.8379Z" fill="black"/>
<path d="M38.5923 27.7391C38.4406 27.8151 38.1419 27.8626 37.9902 27.6631C37.995 27.6631 38.469 27.5396 38.4928 27.4921C38.5212 27.5158 38.6445 27.6156 38.5923 27.7391Z" fill="black"/>
<path d="M41.2011 27.7383L41.002 27.4913L41.4286 27.5388L41.2011 27.7383Z" fill="black"/>
<path d="M43.0474 27.9088C43.0806 27.8803 42.4927 28.0893 42.4453 28.0798C42.469 27.8565 42.872 27.8328 42.872 27.5382C43.0995 27.5667 43.0474 27.7378 43.0474 27.9088Z" fill="black"/>
<path d="M36.7893 27.7383C36.813 27.6481 36.173 28.2751 35.789 28.0328L35.5898 27.7858C35.9881 27.4153 36.3626 28.0091 36.7893 27.7383Z" fill="black"/>
<path d="M37.6916 27.8372C37.7437 27.7374 37.867 27.8134 37.9428 27.7897C37.9665 27.8134 38.0187 27.8657 37.995 27.9132C37.6963 28.1222 37.4782 27.6519 37.4688 27.6662L37.6916 27.8372Z" fill="black"/>
<path d="M38.8081 28.0089L38.7939 28.2559L38.3672 28.2084C38.3719 28.1086 38.8081 27.5908 38.8081 28.0089Z" fill="black"/>
<path d="M44.4291 28.2558C44.102 28.6501 43.6516 28.2796 43.3008 28.2083C43.3434 28.2036 44.0356 28.2321 44.0783 27.9138C44.23 27.9851 44.5523 27.9328 44.4291 28.2558Z" fill="black"/>
<path d="M36.2656 28.379C36.4173 27.9088 36.9436 28.3315 37.2944 28.0323C37.2944 28.1938 36.6733 28.5405 36.2656 28.379Z" fill="black"/>
<path d="M37.9948 28.0852C37.9189 28.3797 37.7198 28.7028 37.3927 28.8025C37.1415 28.9023 36.7669 28.8738 36.6152 28.6315C37.0609 28.3227 37.7056 28.5935 37.8905 28.09H37.9948V28.0852Z" fill="black"/>
<path d="M43.4019 28.3785C43.4777 28.6017 43.7764 28.426 43.7764 28.673C43.3735 28.7727 42.8757 28.7727 42.5723 28.426V28.2027C42.8709 28.1362 43.0274 28.54 43.4019 28.3785Z" fill="black"/>
<path d="M42.1485 32.3029C42.0726 32.5736 42.5751 32.8444 42.8738 32.9441C43.4237 33.1911 44.1775 33.1911 44.8033 33.1911C44.2012 33.6092 43.2768 33.4144 42.6984 33.1199C42.248 33.4666 41.5701 33.4666 40.9965 33.3669C40.7452 33.2434 40.4703 33.1436 40.2948 32.8966C40.219 32.7256 40.5461 32.6259 40.347 32.4786L40.6978 32.6021C40.8732 32.4311 40.5983 31.8849 41.0723 32.0606C40.9965 32.3836 41.371 32.5309 41.499 32.7779C41.5986 32.5071 41.5986 32.2839 41.5511 32.0131C41.7503 32.0796 42.0252 32.0559 42.1485 32.3029Z" fill="black"/>
<path d="M39.3242 30.3261C39.3242 30.4069 39.3242 30.4876 39.3242 30.5684C39.3337 30.4924 39.3384 30.4116 39.3242 30.3261Z" fill="black"/>
<path d="M39.4807 32.6157C39.452 32.6396 39.4186 32.6683 39.3947 32.697L39.3613 32.7305C39.4234 32.697 39.4616 32.6587 39.4807 32.6157Z" fill="black"/>
<path d="M39.6965 32.303L39.5732 32.1795H39.6965V32.303ZM40.0473 32.6973V32.3505C39.9478 32.1273 39.7202 32.0037 39.4974 31.9325C39.3267 32.1415 39.5732 32.417 39.4832 32.6165C39.6633 32.4693 39.9383 32.4645 40.0473 32.6973Z" fill="black"/>
<path d="M43.2257 31.5848C42.8274 31.8318 42.4766 31.3378 42.3249 31.0432C42.3439 30.8105 42.1495 30.4922 42.2064 30.2927L42.9223 31.0812L42.3249 30.1502L42.2017 29.3902C42.5525 30.1312 43.4532 30.6965 43.2257 31.5848ZM41.7987 31.2903C42.0737 31.2143 42.2728 31.39 42.4482 31.5848C42.3249 31.5373 41.7987 31.5373 41.7987 31.2903ZM40.4713 31.637C40.2437 31.637 40.0446 31.5373 39.8692 31.4138C40.0446 31.5135 40.5187 31.561 40.77 31.2903C40.8743 31.5135 40.5993 31.6085 40.4713 31.637ZM38.5466 31.4613C38.447 31.4613 38.4233 31.561 38.2953 31.5135L38.4944 31.1668C38.594 31.238 38.5229 31.3615 38.5466 31.4613ZM46.9092 32.302C46.7101 32.0313 46.4352 31.9315 46.1839 31.808C45.1552 31.2903 44.3066 32.5965 43.5291 31.7605C43.8277 30.7962 43.0313 30.0077 42.4008 29.2667L43.1024 29.1432C42.927 28.9722 42.6283 28.7727 42.2775 28.8487C41.5522 28.6254 41.903 28.0364 41.903 27.4902C40.751 28.1077 42.306 29.0672 41.9789 29.984H41.903L42.0263 30.9957C41.8034 31.0195 41.5285 30.725 41.5 30.7012L41.2014 31.1193C40.9027 30.9482 41.0023 30.6252 40.9027 30.402C40.8506 30.573 41.0023 30.82 40.7795 30.9197C40.6277 30.9435 40.5282 31.2428 40.3528 31.0432C40.751 30.1312 40.0541 28.8724 40.7036 28.2074C40.5045 28.3072 40.2295 28.8012 39.9261 28.3784C40.5519 29.243 40.002 30.079 40.1774 31.0432H40.0541C40.002 30.9957 39.9024 30.9435 39.9309 30.8722L39.58 31.1193C39.3809 30.9767 39.3383 30.782 39.3335 30.573C39.3098 30.7392 39.2387 30.8912 39.2055 31.0432C39.0301 30.9435 38.9069 31.2665 38.8073 30.9957C38.7552 30.896 38.8595 30.8485 38.8595 30.7487L38.6082 30.7012L38.8073 29.813L38.684 29.9365L38.5608 29.813C38.6129 29.2715 38.9353 28.7014 39.1107 28.3309C38.4328 29.0957 38.4612 30.1312 37.8354 30.9197L38.5134 30.0315C38.7125 30.2547 38.3901 30.5255 38.4375 30.82C38.21 31.0907 38.063 31.6608 37.5368 31.5135C37.2381 31.4138 37.4372 31.0955 37.3092 30.9197C37.6363 30.0552 38.3332 29.2905 38.7362 28.5019H38.5608C38.3617 29.0434 37.7075 28.6254 37.532 29.0957L37.9587 29.2192C37.532 29.7892 37.1575 30.3545 37.058 31.0432C37.0058 31.637 37.5842 31.6608 37.8354 31.884C37.3614 31.8603 36.7072 31.6608 36.1572 31.808C35.759 31.808 35.5077 32.378 35.1332 31.9315C34.6829 31.7605 33.9812 31.7083 33.6304 32.1025C33.3792 32.397 33.4029 32.891 33.7537 33.1143C34.4032 33.5561 35.4319 33.4326 36.034 33.1143L35.9107 32.9908C35.887 32.9148 35.7874 32.9148 35.7353 32.9908C35.1332 33.1381 34.1566 33.2853 33.7584 32.6963C33.6589 32.5015 33.7821 32.2545 34.0097 32.1025C35.5599 31.6085 36.1857 33.6796 37.7169 33.4088C38.5418 32.7438 39.343 33.7033 40.2437 33.3613V33.1903C39.5658 33.2141 38.8926 33.1903 38.3901 32.7723C38.1389 32.6725 38.3143 32.4493 38.4423 32.3543C39.068 31.7368 38.6177 32.8958 39.2197 32.8958L39.3857 32.7343C39.3572 32.7485 39.3288 32.7628 39.2956 32.7723C38.8926 32.6013 39.1439 32.2545 38.9969 31.9315C38.594 31.8318 38.3949 32.3258 38.1436 32.4018C38.044 32.302 38.1199 32.131 38.0914 32.0075C38.2669 31.7843 38.466 31.637 38.7409 31.713C39.2909 30.6537 39.7934 31.9125 40.367 32.1073C40.642 31.713 40.9928 31.466 41.4432 31.295C41.4953 31.9838 42.671 31.5658 42.4197 32.4065C42.5193 32.3068 42.4435 32.0598 42.4719 32.0123C44.1217 31.5183 44.8233 33.8363 46.5015 33.2948C46.8571 33.1143 47.0846 32.6963 46.9092 32.302Z" fill="black"/>
<path d="M47.8572 46.5628C47.7574 46.6626 47.5817 46.6103 47.4297 46.6103C47.5342 46.5153 47.7099 46.5866 47.8572 46.5628Z" fill="black"/>
<path d="M47.3846 46.9094C47.3609 47.0329 47.1855 46.9569 47.0859 46.9806C47.1855 46.9569 47.2613 46.9094 47.3846 46.9094Z" fill="black"/>
<path d="M46.5312 46.9092H46.8305V46.9805H46.5312V46.9092Z" fill="black"/>
<path d="M47.6786 47.2798C47.5554 47.3511 47.4037 47.3511 47.252 47.4033C47.3278 47.2038 47.5317 47.3036 47.6786 47.2798Z" fill="black"/>
<path d="M47.2069 47.6971L46.9082 47.7969L47.0078 47.6259C47.0552 47.6971 47.131 47.6971 47.2069 47.6971Z" fill="black"/>
<path d="M40.3477 56.039H40.3998V56.21H40.3477V56.039Z" fill="black"/>
<path d="M40.1707 61.417C40.0949 61.5927 40.1707 61.6877 40.2229 61.835L40.1707 61.417Z" fill="black"/>
<path d="M39.9963 62.7979C40.2475 62.7741 40.5462 62.8454 40.7738 62.7266L40.5225 62.3086C40.4229 62.5081 40.7501 62.6316 40.4703 62.7266C40.1717 62.7266 40.3186 62.3323 40.0958 62.2088L39.8683 62.3086C39.8967 62.4796 39.7735 62.6981 39.9963 62.7979Z" fill="black"/>
<path d="M39.7455 62.3053L39.6934 62.7233L39.7455 62.7471L39.7977 62.3291L39.7455 62.3053Z" fill="black"/>
<path d="M40.6958 64.6746C40.7953 64.4514 41.0229 64.1806 40.8949 63.9099C40.819 63.5394 40.3165 63.7151 40.2928 63.4396C40.8427 63.1926 41.9189 63.0453 42.1938 63.7864C42.2176 64.2804 41.7672 64.5511 41.369 64.6746H40.6958ZM37.766 64.5749C37.766 64.2281 37.6901 63.9336 37.5147 63.6106C38.1927 63.3161 39.2404 62.9218 39.8661 63.4871L39.5675 63.8576C39.8946 63.9051 40.5962 63.6866 40.6958 64.1521C40.0463 64.9216 38.7189 64.6984 37.766 64.5749ZM39.4442 65.2162L39.2688 65.0451H39.4964C39.4916 65.0926 39.5201 65.1924 39.4442 65.2162ZM42.1464 64.7459C41.8715 64.7981 41.5444 65.1164 41.2979 64.9169C41.6724 64.6461 42.1464 64.6699 42.4499 64.2756C42.6727 63.9811 42.5494 63.5584 42.3266 63.3114C41.9236 62.9883 41.4258 62.9171 40.8996 62.8933C40.0226 63.6581 39.0697 62.4516 38.0694 63.0168C37.2682 64.1759 35.9408 62.9931 34.8884 63.7816C34.8362 63.9051 34.6893 64.0049 34.8884 64.0761C35.5663 64.0524 36.2395 63.6819 37.0407 63.7294C37.3156 63.7769 37.6427 63.9526 37.5147 64.3231C37.3393 64.6461 37.0122 64.8409 36.6899 64.9169C36.9411 65.1116 37.3915 65.0404 37.6901 64.9644C38.1927 65.7529 38.8184 64.6176 39.3162 65.3349C39.4679 65.5582 39.3399 65.8052 39.193 65.9762L40.0463 65.8527C40.1696 66.0237 40.4208 66.1234 40.3971 66.3467C40.5725 66.1234 40.3734 65.9049 40.345 65.6817L40.2928 65.7529C40.0179 65.7767 39.8187 65.6532 39.6149 65.5059C39.4158 65.2827 39.7381 65.1354 39.8661 64.9644C40.2407 64.7649 40.819 64.8171 41.1177 65.1639C41.2173 65.4822 40.7906 65.8527 40.9423 66.1519L41.4922 65.3872C42.0421 64.9169 42.7201 64.8219 43.4691 64.7934C43.0993 64.5986 42.5494 64.6746 42.1464 64.7459Z" fill="black"/>
<path d="M43.1016 63.4916C43.0258 63.5913 42.803 63.5391 42.8788 63.7386L43.8317 63.6911C44.2821 63.7148 44.557 64.5271 45.0358 64.1614C44.6281 63.4916 43.8507 63.4393 43.1016 63.4916Z" fill="black"/>
<path d="M26.543 49.4644H53.5794V49.835H26.543V49.4644Z" fill="black"/>
<path d="M41.9731 36.668C42.0252 36.9625 41.9209 37.0623 41.6744 37.086C41.5227 36.915 41.6222 36.5445 41.9731 36.668ZM42.3997 36.7915C42.5514 36.7155 42.5514 36.915 42.6225 36.9625C42.6462 37.162 42.5988 37.2095 42.4471 37.257H42.2717C42.3002 37.1145 42.1722 36.8153 42.3997 36.7915ZM39.9962 40.0976C40.0483 39.8981 39.8729 39.8031 39.7971 39.6273C39.6454 39.1333 39.8208 38.6393 40.1716 38.2688L43.3526 38.5633C43.4048 38.6868 43.2768 38.7628 43.2294 38.8578C43.0539 39.3043 43.0302 39.9693 43.3526 40.3398C43.0255 39.6511 43.4048 38.8816 43.7034 38.3923L41.8024 38.2688C41.5274 38.0693 41.5037 37.7035 41.6033 37.428C41.8545 37.105 42.0536 37.5753 42.3286 37.504C42.4803 37.333 42.9307 37.6038 42.8027 37.2095C42.8785 36.839 42.7505 36.3972 42.2765 36.5445C42.0489 36.2737 41.3994 36.6442 41.4231 36.1502L41.2999 37.8508C40.9728 38.4683 40.2237 37.9505 39.7971 38.1453C39.9962 38.3163 39.7449 38.4683 39.6975 38.6155C39.5979 39.1096 39.5221 39.8031 39.9962 40.0976Z" fill="black"/>
<path d="M51.2883 45.4366C51.2075 45.4509 51.1315 45.4604 51.0508 45.4746C51.1315 45.4699 51.2123 45.4556 51.2883 45.4366Z" fill="black"/>
<path d="M51.5897 45.333C51.4901 45.3805 51.3906 45.4137 51.291 45.4375C51.4048 45.4185 51.5233 45.3995 51.6371 45.3805L51.5897 45.333Z" fill="black"/>
<path d="M36.7461 47.0427C36.8648 47.0617 36.9789 47.0855 37.0881 47.1045C36.9694 47.0617 36.8601 47.0475 36.7461 47.0427Z" fill="black"/>
<path d="M45.7049 41.1091C45.6433 41.1233 45.6101 41.0948 45.5817 41.0568C45.5722 41.0426 45.558 41.0283 45.5438 41.0141C45.5343 41.0046 45.5248 40.9951 45.5153 40.9903C45.5106 40.9856 45.5058 40.9856 45.5058 40.9808L45.4442 41.1281C45.4347 41.1708 45.4205 41.2041 45.4063 41.2278L45.4442 41.1281C45.4726 41.0141 45.4774 40.8621 45.3304 40.8811H45.4584C45.4442 40.9238 45.4726 40.9523 45.5058 40.9808C45.5106 40.9856 45.5106 40.9856 45.5153 40.9903C45.5248 40.9998 45.5343 41.0046 45.5438 41.0141C45.558 41.0283 45.5675 41.0426 45.5817 41.0521C45.6054 41.0046 45.6528 40.9761 45.6291 40.9286H45.7049V41.1091ZM47.9852 43.6504C47.5112 43.0329 47.8335 42.1684 48.1606 41.5793C47.5112 41.4083 46.3829 41.7741 46.1838 41.0616L47.0086 41.2848C46.4587 40.9143 45.9088 40.4963 45.155 40.5961C45.0033 40.6958 44.6525 40.8431 44.8042 41.1138H44.9038C44.9796 41.0141 44.9796 40.8906 45.1029 40.8193C45.2024 40.7956 45.2546 40.8668 45.3257 40.9428C45.1266 42.0306 43.6475 40.4726 43.6475 41.8311C43.5716 42.3014 43.4721 42.9664 43.8987 43.3131C43.875 43.2371 43.9509 43.1184 43.8229 43.0661C43.747 42.5246 43.6712 41.8596 44.1974 41.4891C44.5719 41.4416 44.8753 41.5651 45.1977 41.5888C46.0463 41.7361 47.0513 41.5413 47.8525 41.7836C47.5775 42.0068 47.6534 42.3774 47.5538 42.6719C47.6107 43.0329 47.6581 43.4556 47.9852 43.6504Z" fill="black"/>
<path d="M51.6388 46.6149C51.013 46.8619 50.4346 47.1564 49.7852 47.3321C50.3351 47.4081 50.7143 47.0091 51.2121 46.9854L51.4112 47.4034C51.5866 47.4509 51.9612 47.5269 52.0607 47.3274H51.5866C51.5108 47.2039 51.288 47.1564 51.3354 46.9806C51.3875 46.8334 51.5866 46.7099 51.6388 46.6149Z" fill="black"/>
<path d="M29.6587 46.9799L28.0801 47.6211C28.7059 47.8206 29.2558 46.9324 29.7062 47.6971C30.0664 47.9204 30.678 47.7066 30.8582 47.4976L30.1423 47.5641C29.7583 47.5546 29.7109 47.1319 29.6587 46.9799Z" fill="black"/>
<path d="M26.9548 47.8686C27.4811 48.2154 28.0831 48.3864 28.7563 48.3864C30.6763 48.3057 31.5107 47.7214 32.8381 47.5741C32.8902 47.7214 32.7385 47.9684 32.9613 48.0444C34.4405 48.3912 36.2419 47.9209 37.6926 47.7499C37.6926 47.8734 37.6926 48.0207 37.7685 48.0967C39.1954 48.4909 40.7456 47.9256 42.1015 47.7024V47.7499C42.9264 48.6382 44.5572 48.0967 45.5812 47.7499L45.7566 48.2202C47.2594 48.9849 48.8096 48.1489 50.1371 47.6264L50.2603 47.7499C50.1608 47.7974 50.2082 47.8971 50.2082 47.9969C51.1848 48.6619 52.5596 48.0444 53.4366 47.5789C52.5359 47.8259 51.436 48.3437 50.5068 47.8021C50.431 47.6549 50.6064 47.5789 50.6064 47.4554C48.9519 47.5551 47.2262 49.0609 45.6997 47.8734L46.0505 47.4554C44.9222 47.8021 43.4953 48.3199 42.3196 47.7024C42.2674 47.5314 42.4191 47.4554 42.4428 47.3319C41.5421 47.5551 40.6651 47.8496 39.7406 47.9969C39.0911 47.9209 38.2141 48.3912 37.7637 47.8021L38.1904 47.4079L36.3131 47.7024C35.2369 47.6026 34.0328 48.1489 32.9566 47.7024C32.9045 47.5314 33.0325 47.4554 33.0799 47.3319C31.7051 47.5551 30.5009 48.0967 29.0976 48.2202C28.3533 48.2202 27.5474 48.2202 27.0686 47.7024C26.8932 47.8021 26.4286 47.9114 26.5661 47.9969C26.7273 47.9922 26.8268 47.9209 26.9548 47.8686Z" fill="black"/>
<path d="M40.8201 48.4628C41.1187 48.2158 41.3463 48.4628 41.4221 48.7573C42.0479 49.2751 42.925 49.1278 43.7024 49.0518C44.4515 49.2228 45.4281 47.5983 45.7552 49.0993C46.9072 49.7406 48.1066 48.9995 49.1827 48.6813C49.8844 48.2633 49.8085 49.2988 50.4343 49.2228C51.5341 49.3701 52.6387 49.0755 53.3878 48.3345L52.0082 48.9283C51.3303 48.9283 50.4058 49.2228 49.9033 48.6813C49.8038 48.4818 50.055 48.4105 50.1309 48.287C48.8272 48.5103 47.6278 49.2751 46.1771 48.9758C45.9021 48.876 45.3996 48.705 45.4992 48.287C44.423 48.6338 43.2473 49.0993 42.0195 48.7573C41.7682 48.7098 41.2941 48.4105 41.4932 48.0923C40.0663 48.439 38.6915 49.1801 37.0891 48.7573C36.8615 48.6575 36.5629 48.3108 36.8615 48.0923C35.9608 48.2395 35.207 48.7573 34.2826 48.8095C33.4814 48.7858 32.5522 49.1801 31.879 48.686C31.6799 48.4865 31.9549 48.2918 31.9786 48.1683C30.8029 48.7858 29.3759 48.8855 27.9727 48.9805C28.5747 49.1801 29.3475 49.1278 30.0017 49.0565C30.6038 49.1563 31.3291 48.2443 31.6278 48.9805C33.2538 49.5221 35.0316 48.8095 36.487 48.4628V48.5863C37.6438 49.6978 39.4927 48.762 40.8201 48.4628Z" fill="black"/>
<path d="M41.1908 52.9806H39.0196V51.8454H41.1956L41.1908 52.9806ZM41.0723 61.7874V61.9109H40.9491V61.7161C40.9965 61.7161 41.0249 61.7636 41.0723 61.7874ZM40.6978 53.3749L40.347 53.2514H40.6978V53.3749ZM40.0673 50.5296C40.7736 50.5438 40.8969 50.9761 40.8637 51.5794H39.2519C39.1902 51.0093 39.5173 50.5296 40.0673 50.5296ZM40.8211 56.8757C40.6693 57.0468 40.6978 56.529 40.5224 56.8757L40.7736 57.27L40.2237 57.2178L40.347 56.5765C40.5461 56.529 40.6978 56.6002 40.8211 56.7475V56.8757ZM40.6456 54.8047L40.5935 54.3107H40.6931C40.7926 54.4104 40.4939 54.6337 40.7689 54.7287C40.7215 54.7572 40.6978 54.8047 40.6456 54.8047ZM41.3188 51.6079C41.3188 51.6079 41.3805 51.3941 41.1956 50.8383C40.8969 49.9928 39.3988 49.8978 38.9722 50.8383C38.7351 51.2849 38.8157 51.6696 38.8157 51.6696L26.8311 50.4583L36.9953 51.9404L26.8311 52.0116L36.9194 52.4296L26.7031 53.9592L37.3935 52.7764L26.7031 55.7357L38.0714 53.0234L26.9544 57.5645L37.2181 53.7169L27.4285 59.6403L38.8963 53.1279L39.0954 53.2514L38.7209 62.6234L39.1902 62.6709C38.9627 61.8349 39.0717 60.9276 39.0196 60.0156L39.195 59.8446C39.0196 59.5738 39.0196 59.0798 39.195 58.8328C38.9437 58.2153 39.1428 57.7213 39.2708 57.1038C38.9959 55.8972 39.5458 54.5862 39.2708 53.3797C39.4225 53.0851 39.9488 53.2087 40.2237 53.2562C40.2237 53.4272 39.9488 53.4794 40.0483 53.6742C40.0246 53.9972 40.1242 53.8452 40.347 53.9687C40.4465 53.8689 40.3707 53.5507 40.6456 53.6742C40.7973 53.7454 40.7689 53.8974 40.7689 54.0209L39.9156 54.1444C40.091 54.3439 40.6172 53.9972 40.5176 54.4437C40.6172 54.8142 40.1668 54.8854 39.9914 54.9139H40.3896C40.5413 55.0137 40.8637 54.9377 40.8163 55.2085C40.7926 55.2845 40.7168 55.2845 40.6409 55.2845V55.408C40.7168 55.408 40.7926 55.3842 40.8163 55.4555C40.7926 55.5267 40.8685 55.6502 40.7642 55.7025C40.3896 55.7262 40.1905 55.4555 40.2901 55.161H39.8634V55.7025C40.2142 55.6787 40.5651 55.6787 40.8163 55.9257C40.3138 56.149 41.0391 56.1965 40.7642 56.4672C40.5651 56.3437 40.2901 56.4197 40.0388 56.396C40.091 56.5907 39.5885 57.0373 39.8634 57.4078H40.5888C41.2145 57.555 40.4892 57.973 40.8874 58.2485C40.8116 58.2723 40.7879 58.3958 40.6883 58.372L40.5888 57.6595V58.125C40.5129 58.5715 40.0625 57.9778 39.9867 58.4195C40.3612 58.296 40.6125 58.372 40.9396 58.5905L40.6409 58.885C40.7642 58.9611 40.9917 58.9848 40.9396 59.1796C40.6883 59.3791 40.4892 59.3031 40.2142 59.2556V58.5905C40.091 58.5905 39.963 58.5905 39.8634 58.6665C39.6359 59.5073 40.6409 59.2081 40.9396 59.5548C40.6883 59.7781 41.1387 59.9253 40.9396 60.1486C40.6646 60.1723 40.7405 59.8541 40.6409 59.7306V59.8873C40.5888 60.2341 40.2664 59.9586 40.0388 60.1343V60.1818H40.6978C40.8211 60.2293 41.0486 60.2816 40.9965 60.4763C40.9206 60.6236 40.7689 60.5998 40.6456 60.5998L40.9965 60.8231C41.1197 60.9229 41.0486 61.0701 40.9443 61.1224L40.7689 60.8991V60.9466C40.6931 61.0939 40.5413 61.0701 40.3944 61.0701C40.0673 60.9941 40.2948 60.5998 40.219 60.3528H40.0436C39.7165 60.3766 39.7923 60.8469 39.8682 61.0701C40.1668 61.0701 40.6931 61.0464 40.9965 61.3171C40.9965 61.3646 41.0202 61.4406 40.9443 61.4881C40.9206 61.4644 40.8685 61.4121 40.8211 61.4121C40.5461 61.5356 40.8211 61.7066 40.8211 61.8301C40.6978 62.1769 40.2711 61.9299 40.0957 62.0011C40.219 62.2481 41.1908 61.8396 40.987 62.6281L41.5179 62.6424L41.0628 53.2799L41.3141 53.1707L52.6634 59.2841L42.8027 53.6219L53.019 57.346C49.4397 55.8925 45.7846 54.5814 42.2812 52.9521L53.0285 55.5552L42.7079 52.6054L53.0616 52.8096L42.3333 52.1399L53.0616 51.7931L43.4 51.7694L53.0901 50.1638L41.3188 51.6079Z" fill="black"/>
<path d="M44.2509 47.5031H43.9522V47.4556H44.2509V47.5031ZM43.3501 47.6266V47.5031H43.7009C43.6014 47.5744 43.4971 47.6504 43.3501 47.6266ZM43.1747 47.4034C43.2269 47.6979 42.8239 47.5744 42.748 47.6979C43.2221 47.7739 43.8242 47.7739 44.2983 47.6979C44.5732 47.1041 45.199 47.5981 45.5735 47.2799C44.8008 47.4034 43.9238 47.2561 43.1747 47.4034Z" fill="black"/>
<path d="M39.0973 47.5029H38.8982V47.4554H39.0973V47.5029ZM39.5713 47.4507C39.6235 47.5267 39.723 47.5742 39.6946 47.6977L39.87 47.4507C40.3204 47.4744 40.7233 47.6217 41.1216 47.3272C40.3204 47.3272 39.5192 47.3272 38.718 47.3272C38.8176 47.5504 38.5426 47.6977 38.3672 47.6217V47.7452C38.718 47.6454 39.1684 47.9684 39.4955 47.6977C39.5713 47.6977 39.2442 47.6739 39.2679 47.4982C39.3248 47.4032 39.4718 47.4744 39.5713 47.4507Z" fill="black"/>
<path d="M45.407 43.4802C45.3074 44.416 45.0562 45.404 45.1557 46.2686C45.3074 45.3565 45.3311 44.2925 45.407 43.4802Z" fill="black"/>
<path d="M40.8965 52.1914H41.0719C41.0198 52.6094 40.7211 52.1154 40.5979 52.4384L40.1712 52.3149C39.9721 52.4859 40.2944 52.6854 40.0953 52.8564C39.8678 52.7329 40.3466 52.4147 39.9199 52.3862C39.9721 52.0917 40.4461 52.3387 40.394 51.9682C40.3703 52.1677 40.6737 52.3387 40.8965 52.1914Z" fill="black"/>
<path d="M41.0739 52.7333L40.9506 52.9043C40.8985 52.7333 40.6235 52.8045 40.4766 52.7808V52.681C40.6235 52.7855 40.8748 52.7095 41.0739 52.7333Z" fill="black"/>
<path d="M41.7882 45.9115L42.7647 46.3058C42.4376 46.3295 41.4136 46.624 41.7882 45.9115ZM41.3093 46.3058L41.3615 45.959C41.4847 46.035 41.4136 46.206 41.4373 46.3058H41.3093ZM37.7064 46.13V45.8355C37.8581 45.9353 38.005 45.9828 38.133 46.13H37.7064ZM37.3556 46.0825H37.2323V45.788C37.2844 45.7643 37.384 45.8355 37.3556 45.9115V46.0825ZM34.3025 46.377L34.9046 46.5005L34.8809 46.548L34.2788 46.4245C34.2741 46.4293 34.3025 46.377 34.3025 46.377ZM35.1274 46.8995L35.1796 46.9755L34.8287 46.8995H35.1274ZM35.3028 47.2653H35.5541V47.3128H35.3028V47.2653ZM35.8527 47.023L35.9049 47.0943L35.4308 46.9708C35.4261 46.9708 35.8527 47.023 35.8527 47.023ZM31.3301 45.731C32.2403 46.2868 33.1316 46.89 33.9754 47.6121C34.7007 47.8353 35.1037 47.4411 35.8527 47.4886C35.7769 46.9233 36.4027 47.6358 36.7535 47.3176C36.7013 47.194 35.9523 47.3413 36.0756 46.9708C36.3458 47.0705 36.5733 47.023 36.8104 47.0325C36.251 46.9328 35.6062 46.8283 35.0516 46.6003L35.1748 46.5005C37.1849 46.9708 38.2184 46.8283 39.6833 46.8948C37.7016 46.6763 35.5019 46.6003 33.6246 45.9068C37.9292 46.7475 42.6889 46.719 47.3206 46.5955C46.9461 46.9423 46.5194 46.719 46.1164 46.795C45.6661 46.8948 45.192 46.795 44.8649 46.966C45.192 47.0658 45.6139 46.7428 45.941 47.0183L46.0643 46.8948C46.1639 46.9185 46.2919 46.8473 46.363 46.9708L46.0643 47.194C46.1639 47.3651 46.2634 47.1465 46.4151 47.194C46.6664 47.6121 46.9887 46.871 47.1404 47.3936C46.965 47.5646 46.5147 47.5408 46.4625 47.4933L46.7138 47.6928L46.4151 47.9873H47.0646C48.0933 48.1108 48.7428 46.8995 49.4682 46.3105H49.7668C49.2927 46.9518 48.5911 47.4696 48.0412 47.9873C48.9419 47.5456 49.8664 46.7808 50.4447 45.9163C49.0415 46.1158 47.515 46.2345 46.1117 46.263C47.2021 46.0873 48.3019 45.9163 49.397 45.7405H47.7188L46.7138 45.845C46.7517 45.807 46.7896 45.7738 46.8323 45.7405H46.5953C46.4673 45.8593 46.3345 45.959 46.1639 45.9685C46.1449 45.8925 46.1307 45.8165 46.1212 45.7358L45.7941 45.7405C45.7846 45.9068 45.7751 46.0825 45.7656 46.263L45.7751 45.7405H45.4053C45.3911 45.9115 45.3864 46.0873 45.3911 46.263C45.2394 46.3628 45.0403 46.3153 44.8649 46.3153L44.955 45.7405H44.808L44.7416 46.3153L44.315 46.3913L44.4477 45.7453H44.2581C44.2202 45.921 44.1822 46.0968 44.1348 46.2678C43.8219 46.0065 43.8599 45.9068 43.9594 45.7453H43.4664C43.5375 45.9543 43.6228 46.149 43.7082 46.32C43.1724 46.3723 42.7363 46.0113 42.2575 45.7453H40.5982L41.0533 45.8023V46.2535C40.7547 46.3295 40.3043 46.4008 40.053 46.206C40.0056 45.9828 40.2284 45.7975 40.4039 45.731H39.8966C39.7733 45.8593 39.7449 46.0398 39.6833 46.206C39.5742 46.0635 39.4842 45.902 39.4083 45.731H39.0812C39.157 45.9068 39.2424 46.0825 39.3324 46.2535C39.0907 46.1728 38.9911 45.959 38.9153 45.731L38.5502 45.7263L38.7825 46.2013C38.4744 46.13 38.2042 45.94 37.9339 45.731L36.9905 45.7263C36.9905 45.7595 36.9858 45.7928 36.981 45.8308V46.0018C36.488 46.0018 35.9286 46.073 35.6204 45.7263L35.2507 45.7215V45.7785C35.0942 45.8213 34.9757 45.7928 34.8856 45.7215L31.3301 45.731Z" fill="black"/>
<path d="M34.0518 45.6128C33.8527 45.4418 34.104 45.2898 34.1514 45.1188C34.3268 45.2186 34.3268 45.4893 34.4026 45.6603C34.2509 45.7126 34.2035 45.5416 34.0518 45.6128ZM32.3499 45.0713V44.9003C32.6486 44.9241 32.9235 45.0476 33.1511 45.2471C32.9757 45.2708 32.5727 45.2186 32.3499 45.0713ZM31.525 44.7246H31.4018C31.4539 44.6771 31.5013 44.5773 31.5772 44.6011C31.5961 44.6533 31.5487 44.6771 31.525 44.7246ZM30.1455 44.2305L31.2216 44.354C31.0225 44.9003 30.4726 44.354 30.1455 44.2305ZM46.8376 45.7316C47.4918 45.2281 48.4495 45.6508 49.298 45.4181C48.6438 45.2946 47.8948 45.1711 47.1932 45.3183C46.9561 45.3326 46.7855 45.5511 46.6006 45.7268L46.8376 45.7316ZM40.4092 45.7316C40.4281 45.7221 40.4423 45.7173 40.4613 45.7126L40.6083 45.7316H42.2675C42.0779 45.6223 41.8788 45.5321 41.6655 45.4893C41.0918 45.4656 40.4898 45.2423 39.9872 45.6603C39.954 45.6793 39.9256 45.7031 39.9019 45.7268L40.4092 45.7316ZM35.621 45.7316C35.6163 45.7268 35.6068 45.7221 35.602 45.7126C35.5499 45.5131 35.7016 45.3896 35.8533 45.2423C36.2515 45.1473 36.9816 45.2328 36.9863 45.7268H37.9298C37.4462 45.3516 36.9674 44.8956 36.3274 44.8956C35.8249 44.7483 35.4266 45.0951 35.2512 45.4893V45.7316H35.621ZM48.5395 43.3565C48.7623 44.1925 49.4403 44.9146 50.0234 45.4893L47.7241 45.7316H49.4023C49.976 45.6413 50.5449 45.5511 51.1138 45.4608C50.3789 45.4988 49.7626 44.8956 49.298 44.354C49.1416 44.0595 48.9283 43.7033 48.8524 43.3518L48.5395 43.3565ZM46.3066 43.3565C46.3351 43.4183 46.245 43.5228 46.2972 43.5893C46.7238 43.2663 47.122 43.689 47.5724 43.6368C47.397 43.5513 47.1932 43.4515 46.9703 43.3518L46.3066 43.3565ZM45.5386 43.3565C45.6666 44.1735 45.4723 44.9288 45.4106 45.7316H45.7804L45.8183 43.5893L45.9416 43.7603C45.88 44.4918 45.8373 45.0618 45.7994 45.7268L46.1265 45.7316C45.9985 44.9763 46.0127 44.0833 46.1597 43.3565C46.1549 43.3565 45.5386 43.3565 45.5386 43.3565ZM45.0788 43.3565L44.8086 45.7316H44.9555L45.3253 43.3565H45.0788ZM44.7754 43.3565C44.5573 44.1308 44.434 44.9336 44.2634 45.7316H44.453L44.946 43.3565H44.7754ZM39.9114 43.3565C41.106 43.556 42.3955 43.5988 43.666 43.6415C43.1446 44.2115 43.2346 45.0428 43.4717 45.7363L43.9647 45.7316C44.0263 45.6318 44.1022 45.5131 44.1401 45.3183L44.7706 43.3565H44.434C44.3961 43.442 44.4056 43.537 44.4909 43.6415L43.7656 45.6651L43.666 45.4181C43.5143 44.7246 43.5902 43.9645 44.1401 43.4705C43.704 43.4088 43.2346 43.4135 42.7938 43.3613L39.9114 43.3565ZM38.6788 43.3565C38.1905 43.9075 38.2663 44.8243 38.4323 45.4893L38.5508 45.7316H38.9158C38.8732 45.6081 38.8352 45.4798 38.7831 45.3658C38.6314 44.8481 38.5555 44.0833 38.8589 43.5893C38.6835 44.3445 38.8115 45.0666 39.0818 45.7268L39.4089 45.7316C39.1007 45.0191 39.0723 44.1023 39.2951 43.3565H38.6788ZM27.2109 43.3565C28.5715 44.1925 29.97 44.9098 31.3306 45.7363L34.8909 45.7316C34.6634 45.5606 34.597 45.1283 34.4548 44.9003C34.4358 44.3873 34.4595 43.8363 34.6539 43.3613H34.3505C34.194 44.0738 34.2225 44.9288 33.6299 45.4941C33.4308 44.9526 32.8524 44.8291 32.4258 44.6058C32.5775 44.164 32.7813 43.7508 33.0326 43.3565H32.7718C32.4874 43.8743 32.2409 44.4063 32.0512 44.9478C32.0275 44.5013 31.4492 44.107 31.0509 43.936C30.5484 43.7888 30.0506 43.9835 29.5481 44.012C29.8705 43.803 30.1929 43.5845 30.5152 43.3565L30.0554 43.3613C29.9463 43.442 29.8326 43.518 29.7235 43.594C29.3206 44.1593 28.6711 43.765 28.2729 43.4705C28.3487 43.4325 28.4246 43.3993 28.5004 43.3613H28.0927C28.05 43.3803 28.0121 43.404 27.9695 43.423C27.922 43.404 27.8746 43.3803 27.8272 43.3613L27.2109 43.3565Z" fill="black"/>
<path d="M37.4066 42.6526V42.8236L37.3544 42.6526H37.4066ZM41.0617 43.0468L41.1375 43.1181L40.9621 43.0468H41.0617ZM41.4836 42.8758C41.4599 42.9518 41.5358 43.0706 41.4315 43.1228L41.3556 42.8283C41.4362 42.7998 41.4599 42.8521 41.4836 42.8758ZM35.8042 40.5008L35.8564 40.3773L35.9796 40.5008H35.8042ZM34.1023 41.7643L35.8564 39.394L35.9085 40.0353L34.1023 41.7643ZM37.2786 37.7172C37.3781 37.8882 37.3781 38.2587 37.1032 38.3822H36.8045L37.2786 37.7172ZM37.7574 37.0284C37.9328 37.0284 38.1082 36.9809 38.1319 37.1994C38.1319 37.4084 38.0324 37.4227 37.8807 37.4227H37.7053L37.7574 37.0284ZM38.4827 37.1994C38.6581 37.1234 38.7814 37.2754 38.734 37.4227C38.7861 37.5937 38.6581 37.6175 38.5586 37.6697H38.3595C38.4069 37.5225 38.2552 37.2754 38.4827 37.1994ZM46.3666 37.7172H46.542C46.5657 37.8645 46.542 38.064 46.3666 38.0877V37.7172ZM46.9687 37.9642C47.1441 37.9167 47.1441 38.0402 47.1915 38.1352C47.2152 38.1827 47.1678 38.235 47.1393 38.2587H46.9639V37.9642H46.9687ZM48.8507 43.3556C48.7891 43.0801 48.8128 42.8141 48.9977 42.5766C48.6469 42.7001 48.1207 42.6526 47.969 42.9946C48.1681 43.0706 48.2676 42.8711 48.4715 42.9471C48.481 43.0848 48.5047 43.2179 48.5378 43.3509L48.8507 43.3556ZM44.769 43.3556L44.7879 43.2939C44.7832 43.3129 44.7784 43.3366 44.769 43.3556H44.9396L44.9633 43.2464H45.0866L45.0724 43.3556H45.3189L45.3378 43.2464H45.5132C45.518 43.2844 45.5275 43.3176 45.5322 43.3556H46.1532C46.158 43.3366 46.1627 43.3129 46.1675 43.2939C46.2528 43.3034 46.2907 43.3224 46.305 43.3556H46.9734C46.3808 43.0943 45.6602 42.8616 44.9681 42.9471C44.7974 43.0468 44.513 43.1798 44.4324 43.3556C44.4324 43.3604 44.769 43.3556 44.769 43.3556ZM34.6475 43.3556C34.7044 43.2131 34.7802 43.0753 34.875 42.9471L38.7293 43.2939C38.7103 43.3129 38.6913 43.3319 38.6724 43.3509L39.2934 43.3556C39.3029 43.3176 39.3171 43.2844 39.3313 43.2464C39.521 43.2891 39.7153 43.3224 39.9097 43.3556H42.7921C42.5266 43.3271 42.2706 43.2701 42.0383 43.1703C42.062 43.0468 41.9861 42.8996 42.0904 42.8236C42.3417 42.7476 42.4413 42.9946 42.6404 42.9946C42.3417 42.7476 41.9909 42.5481 41.6638 42.3533C41.2371 42.1538 40.5639 41.9353 40.161 42.3533C40.0093 42.5528 39.9334 42.8236 40.2368 42.9471C40.289 42.7998 40.1135 42.4531 40.4122 42.3533C40.6113 42.3771 40.8863 42.2773 41.0143 42.4531L40.7156 43.1703C39.6869 42.9993 38.7387 43.0706 37.71 42.8758C37.6863 42.6763 37.9612 42.8283 37.9612 42.7048C37.7337 42.3866 37.3876 42.3106 37.1079 42.1111C36.705 41.8878 36.1313 41.8641 35.7805 42.2346C35.7047 42.3343 35.6573 42.5813 35.8564 42.6526L36.0839 42.1586C36.283 42.2061 36.686 42.0588 36.8614 42.2821C36.7097 42.4293 36.9373 42.7286 36.686 42.8236L34.4578 42.7001V42.8236H34.5337C34.4484 42.9851 34.3962 43.1656 34.3535 43.3556H34.6475ZM30.5088 43.3556C32.3435 42.0446 34.1307 40.458 35.899 38.9047C34.8608 40.3013 33.633 41.7691 32.7654 43.3604H33.0261C33.6804 42.3201 34.6332 41.4271 35.6525 40.5863L35.7758 40.686C35.4487 41.2275 34.9224 41.8973 35.3017 42.5386L35.4771 41.4793C35.9796 39.8738 37.5061 41.2845 38.606 40.9378L38.8573 41.1088C38.7577 41.1848 38.7577 41.2798 38.6581 41.3558C38.459 41.8261 38.5064 42.4911 38.8573 42.8853C38.6818 42.4388 38.606 41.7263 38.9094 41.2798C39.1607 41.7976 39.1085 42.6146 39.6347 42.8331C39.483 42.4151 39.1607 42.0683 39.2081 41.5743C39.2839 41.1325 39.2602 40.5863 39.6821 40.3393C40.8341 40.5388 42.0098 40.6623 43.2377 40.686L43.4653 40.8855C43.0149 41.5268 43.0623 42.4388 43.4131 43.1323C43.4131 42.6621 43.0623 41.4033 43.7118 40.8855C44.0389 40.439 44.1858 40.9853 44.4371 41.1088C44.4134 41.0328 44.4892 40.9093 44.3612 40.8855C44.1858 40.2443 44.385 39.6505 44.8638 39.2087L47.8694 39.5033C47.8457 39.6743 47.6703 39.774 47.6181 39.9213C47.419 40.3393 47.4664 40.9568 47.6703 41.351C47.5944 40.5625 47.7698 39.8975 48.2202 39.3275C47.5186 39.1565 46.3666 39.5508 46.1675 38.6862C46.2433 37.627 46.817 38.957 47.3716 38.4392C47.3716 38.1922 47.4238 37.8977 47.3195 37.6745C47.1962 37.6982 47.0445 37.627 46.9687 37.722C46.8928 37.6745 46.7933 37.5985 46.8454 37.4987C46.5704 37.2754 46.1438 37.722 46.1201 37.2042C45.8688 37.646 46.0964 38.292 45.9447 38.8097C45.5701 39.4035 44.8922 38.9095 44.366 38.9807L44.4418 39.2752C44.091 39.6458 44.1147 40.1873 43.9678 40.6338L42.0383 40.4628C41.915 40.2918 41.6638 40.192 41.6638 39.9925C41.9909 39.8928 42.3654 40.363 42.6404 40.287C42.1141 39.869 41.5405 39.375 40.8389 39.5698C40.6872 39.6695 40.3364 39.8168 40.4644 40.0875L40.7156 39.793C40.891 39.7455 41.1897 39.6695 41.3177 39.869C40.9432 40.8808 39.1654 39.5745 39.0374 40.7573C38.6866 40.781 38.3358 40.7335 38.0087 40.6813C37.8095 40.6338 37.6815 40.3868 37.71 40.287C37.9375 40.287 38.1367 40.3868 38.3121 40.5103C37.9138 40.0923 37.4113 39.8453 36.8093 39.9165C36.6101 40.0163 36.3589 40.2633 36.5106 40.458C36.7855 40.5578 36.7097 40.1873 36.9373 40.0875C37.0605 40.1113 37.2122 40.0638 37.2881 40.211L36.9373 40.629C36.6101 40.6765 36.3636 40.553 36.0887 40.5055C36.2641 40.2348 36.0128 39.7645 36.0887 39.3227C36.3873 37.9167 37.8901 39.052 38.8667 38.805L39.0421 38.976C38.8146 39.4225 38.5396 40.1113 38.9189 40.5055C38.843 39.812 39.0184 39.223 39.4688 38.729L37.8901 38.558C37.6389 38.3585 37.6389 38.0402 37.6626 37.7172C37.8617 37.5462 38.113 37.6697 38.1888 37.9167C38.4401 37.893 38.715 37.9642 38.9141 37.8407C38.9378 37.5937 38.862 37.2992 38.9663 37.0759C38.7672 36.9287 38.5918 37.0284 38.3642 37.0759C38.3405 36.3872 37.4635 37.1757 37.5393 36.4347L37.4161 37.3229C35.041 39.4985 32.5947 41.5601 30.0632 43.3556H30.5088ZM28.494 43.3556C30.7364 42.2583 32.8175 40.7715 34.875 39.1992C32.609 40.6813 30.4661 42.1348 28.0863 43.3556H28.494ZM27.8208 43.3556C27.6122 43.2559 27.3894 43.1323 27.1855 43.1703V43.3414C27.1903 43.3461 27.1998 43.3509 27.2045 43.3556H27.8208Z" fill="black"/>
</g>
</g>
<defs>
<clipPath id="clip0_2145_144064">
<rect width="73" height="73" fill="white" transform="translate(4.57422 4.5)"/>
</clipPath>
</defs>
</svg>
