<svg width="246" height="44" viewBox="0 0 246 44" fill="none" xmlns="http://www.w3.org/2000/svg">
<path d="M5.25761 34.5C4.79761 34.5 4.56761 34.3313 4.56761 33.994C4.56761 33.6567 4.76695 33.4727 5.16561 33.442L7.23561 33.12C7.84895 33.028 8.26295 32.8747 8.47761 32.66C8.69228 32.4147 8.79961 31.97 8.79961 31.326V3.726C8.79961 3.29667 8.70761 2.99 8.52361 2.806C8.33961 2.622 7.95628 2.53 7.37361 2.53C6.23895 2.53 5.11961 3.02066 4.01561 4.002C2.91161 4.98333 2.19095 6.56267 1.85361 8.74L1.62361 10.258C1.56228 10.6567 1.34761 10.856 0.979613 10.856C0.519613 10.856 0.320279 10.5953 0.381613 10.074L0.795613 1.748C0.856946 1.04267 1.13295 0.689999 1.62361 0.689999C1.83828 0.689999 2.03761 0.751333 2.22161 0.874C2.40561 0.965999 2.71228 1.07333 3.14161 1.196C3.60161 1.31867 4.32228 1.38 5.30361 1.38H15.5616C16.5429 1.38 17.2483 1.31867 17.6776 1.196C18.1376 1.07333 18.4596 0.965999 18.6436 0.874C18.8583 0.751333 19.0576 0.689999 19.2416 0.689999C19.7323 0.689999 20.0083 1.04267 20.0696 1.748L20.4836 10.074C20.5449 10.5953 20.3456 10.856 19.8856 10.856C19.5176 10.856 19.3029 10.6567 19.2416 10.258L19.0116 8.74C18.7049 6.56267 17.9996 4.98333 16.8956 4.002C15.7916 3.02066 14.6569 2.53 13.4916 2.53C12.9089 2.53 12.5256 2.622 12.3416 2.806C12.1576 2.99 12.0656 3.29667 12.0656 3.726V31.326C12.0656 31.97 12.1729 32.4147 12.3876 32.66C12.6329 32.8747 13.0469 33.028 13.6296 33.12L15.6996 33.442C16.0983 33.4727 16.2976 33.6567 16.2976 33.994C16.2976 34.3313 16.0676 34.5 15.6076 34.5H5.25761ZM21.3547 34.5C20.9867 34.5 20.8027 34.3313 20.8027 33.994C20.8027 33.6873 20.9714 33.5033 21.3087 33.442L21.9527 33.35C22.5967 33.258 23.0107 33.074 23.1947 32.798C23.4094 32.522 23.5167 32.062 23.5167 31.418V5.06C23.5167 4.508 23.4247 4.14 23.2407 3.956C23.0874 3.74133 22.7961 3.60333 22.3667 3.542L21.4007 3.404C21.0634 3.34266 20.8947 3.15867 20.8947 2.852C20.8947 2.54533 21.0634 2.36133 21.4007 2.3C22.2594 2.116 22.9801 1.90133 23.5627 1.656C24.1454 1.41066 24.6361 1.16533 25.0347 0.919999C25.5254 0.613333 25.8934 0.46 26.1387 0.46C26.4761 0.46 26.6447 0.705332 26.6447 1.196V13.386C26.6447 13.662 26.7367 13.8307 26.9207 13.892C27.1047 13.9227 27.3347 13.8153 27.6107 13.57C28.7761 12.4967 29.8034 11.7607 30.6927 11.362C31.5821 10.9633 32.5174 10.764 33.4987 10.764C34.9401 10.764 36.0747 11.2547 36.9027 12.236C37.7307 13.1867 38.1447 14.5973 38.1447 16.468V31.418C38.1447 32.062 38.2367 32.522 38.4207 32.798C38.6354 33.0433 39.0647 33.212 39.7087 33.304L40.7207 33.442C41.0581 33.5033 41.2267 33.6873 41.2267 33.994C41.2267 34.3313 41.0427 34.5 40.6747 34.5H32.9467C32.5174 34.5 32.3027 34.3313 32.3027 33.994C32.3027 33.6873 32.4714 33.5033 32.8087 33.442L33.4527 33.35C34.0967 33.258 34.5107 33.074 34.6947 32.798C34.9094 32.522 35.0167 32.062 35.0167 31.418V16.974C35.0167 15.4713 34.7407 14.4133 34.1887 13.8C33.6367 13.1867 32.8547 12.88 31.8427 12.88C30.8614 12.88 29.9721 13.1713 29.1747 13.754C28.4081 14.306 27.7947 15.0573 27.3347 16.008C26.8747 16.928 26.6447 17.9553 26.6447 19.09V31.418C26.6447 32.062 26.7367 32.522 26.9207 32.798C27.1354 33.074 27.5647 33.2427 28.2087 33.304L29.4507 33.442C29.7881 33.5033 29.9567 33.6873 29.9567 33.994C29.9567 34.3313 29.7727 34.5 29.4047 34.5H21.3547ZM49.6322 34.914C48.1602 34.914 46.8415 34.4233 45.6762 33.442C44.5108 32.4607 43.5755 31.0807 42.8702 29.302C42.1955 27.4927 41.8582 25.4073 41.8582 23.046C41.8582 20.6233 42.2108 18.492 42.9162 16.652C43.6215 14.812 44.5875 13.3707 45.8142 12.328C47.0408 11.2853 48.4055 10.764 49.9082 10.764C51.7175 10.764 53.1742 11.5153 54.2782 13.018C55.4128 14.49 55.9802 16.8973 55.9802 20.24C55.9802 21.252 55.5968 21.758 54.8302 21.758H46.0902C45.4768 21.758 45.1702 22.1107 45.1702 22.816C45.1702 26.0667 45.6455 28.5047 46.5962 30.13C47.5468 31.7553 48.7582 32.568 50.2302 32.568C51.3955 32.568 52.3462 32.154 53.0822 31.326C53.8182 30.498 54.4162 29.1027 54.8762 27.14C54.9682 26.8027 55.1675 26.634 55.4742 26.634C55.8422 26.634 55.9802 26.9407 55.8882 27.554C55.3975 30.2833 54.6155 32.2 53.5422 33.304C52.4688 34.3773 51.1655 34.914 49.6322 34.914ZM45.9522 20.608H50.5982C52.0702 20.608 52.8062 19.8413 52.8062 18.308C52.8062 16.3147 52.5608 14.7507 52.0702 13.616C51.5795 12.4813 50.8435 11.914 49.8622 11.914C48.6662 11.914 47.6542 12.604 46.8262 13.984C46.0288 15.364 45.5075 17.3267 45.2622 19.872C45.2008 20.3627 45.4308 20.608 45.9522 20.608ZM68.5561 34.5C68.0961 34.5 67.8661 34.3313 67.8661 33.994C67.8661 33.6567 68.0655 33.4727 68.4641 33.442L70.5341 33.12C71.1475 33.028 71.5615 32.8747 71.7761 32.66C71.9908 32.4147 72.0981 31.97 72.0981 31.326V3.726C72.0981 3.29667 72.0061 2.99 71.8221 2.806C71.6381 2.622 71.2548 2.53 70.6721 2.53C69.5375 2.53 68.4181 3.02066 67.3141 4.002C66.2101 4.98333 65.4895 6.56267 65.1521 8.74L64.9221 10.258C64.8608 10.6567 64.6461 10.856 64.2781 10.856C63.8181 10.856 63.6188 10.5953 63.6801 10.074L64.0941 1.748C64.1555 1.04267 64.4315 0.689999 64.9221 0.689999C65.1368 0.689999 65.3361 0.751333 65.5201 0.874C65.7041 0.965999 66.0108 1.07333 66.4401 1.196C66.9001 1.31867 67.6208 1.38 68.6021 1.38H78.8601C79.8415 1.38 80.5468 1.31867 80.9761 1.196C81.4361 1.07333 81.7581 0.965999 81.9421 0.874C82.1568 0.751333 82.3561 0.689999 82.5401 0.689999C83.0308 0.689999 83.3068 1.04267 83.3681 1.748L83.7821 10.074C83.8435 10.5953 83.6441 10.856 83.1841 10.856C82.8161 10.856 82.6015 10.6567 82.5401 10.258L82.3101 8.74C82.0035 6.56267 81.2981 4.98333 80.1941 4.002C79.0901 3.02066 77.9555 2.53 76.7901 2.53C76.2075 2.53 75.8241 2.622 75.6401 2.806C75.4561 2.99 75.3641 3.29667 75.3641 3.726V31.326C75.3641 31.97 75.4715 32.4147 75.6861 32.66C75.9315 32.8747 76.3455 33.028 76.9281 33.12L78.9981 33.442C79.3968 33.4727 79.5961 33.6567 79.5961 33.994C79.5961 34.3313 79.3661 34.5 78.9061 34.5H68.5561ZM88.2941 13.984C89.5514 11.8373 91.0694 10.764 92.8481 10.764C93.8601 10.764 94.6114 11.0707 95.1021 11.684C95.5928 12.2667 95.8381 12.926 95.8381 13.662C95.8381 14.2447 95.6848 14.72 95.3781 15.088C95.1021 15.456 94.6574 15.64 94.0441 15.64C93.5534 15.64 93.1854 15.5327 92.9401 15.318C92.7254 15.0727 92.5414 14.7967 92.3881 14.49C92.2654 14.1833 92.1121 13.9227 91.9281 13.708C91.7441 13.4627 91.4374 13.34 91.0081 13.34C90.4561 13.34 89.9347 13.6773 89.4441 14.352C88.9534 14.996 88.5394 15.87 88.2021 16.974C87.8954 18.078 87.7421 19.3353 87.7421 20.746V31.418C87.7421 32.062 87.8341 32.522 88.0181 32.798C88.2327 33.074 88.6621 33.2427 89.3061 33.304L90.5481 33.442C90.8854 33.5033 91.0541 33.672 91.0541 33.948C91.0541 34.316 90.8241 34.5 90.3641 34.5H82.5901C82.1301 34.5 81.9001 34.3313 81.9001 33.994C81.9001 33.718 82.0994 33.534 82.4981 33.442L83.0501 33.35C83.6941 33.2273 84.1081 33.0433 84.2921 32.798C84.5067 32.522 84.6141 32.062 84.6141 31.418V15.962C84.6141 15.41 84.5221 15.042 84.3381 14.858C84.1847 14.6433 83.8934 14.5053 83.4641 14.444L82.4981 14.306C82.0994 14.2753 81.9001 14.1067 81.9001 13.8C81.9001 13.5547 82.1454 13.386 82.6361 13.294C83.5867 13.1407 84.3074 12.8953 84.7981 12.558C85.3194 12.2207 85.8561 11.8067 86.4081 11.316C86.6841 11.04 86.9141 10.902 87.0981 10.902C87.3741 10.902 87.5121 11.086 87.5121 11.454V13.938C87.5121 14.1527 87.6041 14.2907 87.7881 14.352C87.9721 14.3827 88.1408 14.26 88.2941 13.984ZM102.801 34.914C102.034 34.914 101.298 34.7453 100.593 34.408C99.8873 34.0707 99.3046 33.534 98.8446 32.798C98.3846 32.062 98.1546 31.0807 98.1546 29.854V13.846C98.1546 13.294 98.0626 12.9107 97.8786 12.696C97.7253 12.4813 97.4339 12.3587 97.0046 12.328L96.2226 12.236C95.7013 12.1747 95.4406 11.9753 95.4406 11.638C95.4406 11.2393 95.7319 11.04 96.3146 11.04H100.593C101.053 11.04 101.283 11.27 101.283 11.73V28.888C101.283 30.2987 101.543 31.3107 102.065 31.924C102.617 32.5067 103.368 32.798 104.319 32.798C105.269 32.798 106.113 32.5373 106.849 32.016C107.585 31.464 108.167 30.7433 108.597 29.854C109.057 28.934 109.287 27.9373 109.287 26.864V13.846C109.287 13.294 109.195 12.9107 109.011 12.696C108.857 12.4813 108.566 12.3587 108.137 12.328L107.355 12.236C106.833 12.1747 106.573 11.9753 106.573 11.638C106.573 11.2393 106.864 11.04 107.447 11.04H111.725C112.185 11.04 112.415 11.27 112.415 11.73V29.578C112.415 30.13 112.491 30.5133 112.645 30.728C112.829 30.912 113.135 31.0347 113.565 31.096L114.531 31.234C114.929 31.2647 115.129 31.418 115.129 31.694C115.129 31.97 114.883 32.154 114.393 32.246C113.442 32.3687 112.675 32.614 112.093 32.982C111.541 33.35 111.05 33.7947 110.621 34.316C110.345 34.592 110.115 34.73 109.931 34.73C109.655 34.73 109.517 34.546 109.517 34.178V32.062C109.517 31.8167 109.425 31.6787 109.241 31.648C109.087 31.5867 108.919 31.648 108.735 31.832C107.6 32.9667 106.588 33.764 105.699 34.224C104.84 34.684 103.874 34.914 102.801 34.914ZM116.283 34.5C115.823 34.5 115.593 34.3313 115.593 33.994C115.593 33.718 115.793 33.534 116.191 33.442L116.743 33.35C117.387 33.2273 117.801 33.0433 117.985 32.798C118.2 32.522 118.307 32.062 118.307 31.418V15.962C118.307 15.41 118.215 15.042 118.031 14.858C117.878 14.6433 117.587 14.5053 117.157 14.444L116.191 14.306C115.793 14.2753 115.593 14.1067 115.593 13.8C115.593 13.5547 115.839 13.386 116.329 13.294C117.28 13.1407 118.001 12.8953 118.491 12.558C119.013 12.2207 119.549 11.8067 120.101 11.316C120.377 11.04 120.607 10.902 120.791 10.902C121.067 10.902 121.205 11.086 121.205 11.454V13.524C121.205 13.7387 121.297 13.9073 121.481 14.03C121.665 14.122 121.865 14.0607 122.079 13.846C123.337 12.65 124.425 11.8373 125.345 11.408C126.296 10.9787 127.247 10.764 128.197 10.764C129.087 10.764 129.869 11.0093 130.543 11.5C131.249 11.96 131.77 12.6653 132.107 13.616C132.199 13.8613 132.353 14.0147 132.567 14.076C132.813 14.1067 133.043 14.0147 133.257 13.8C134.515 12.6347 135.603 11.8373 136.523 11.408C137.443 10.9787 138.379 10.764 139.329 10.764C140.617 10.764 141.66 11.2547 142.457 12.236C143.285 13.1867 143.699 14.5973 143.699 16.468V31.418C143.699 32.062 143.791 32.522 143.975 32.798C144.19 33.0433 144.619 33.212 145.263 33.304L146.275 33.442C146.613 33.5033 146.781 33.6873 146.781 33.994C146.781 34.3313 146.597 34.5 146.229 34.5H138.363C137.934 34.5 137.719 34.3313 137.719 33.994C137.719 33.6873 137.888 33.5033 138.225 33.442L138.869 33.35C139.575 33.258 140.035 33.074 140.249 32.798C140.464 32.522 140.571 32.062 140.571 31.418V16.974C140.571 15.4713 140.295 14.4133 139.743 13.8C139.222 13.1867 138.501 12.88 137.581 12.88C136.661 12.88 135.818 13.1713 135.051 13.754C134.315 14.306 133.717 15.0573 133.257 16.008C132.797 16.928 132.567 17.9553 132.567 19.09V31.418C132.567 32.062 132.675 32.522 132.889 32.798C133.104 33.0433 133.549 33.212 134.223 33.304L135.235 33.442C135.573 33.5033 135.741 33.6873 135.741 33.994C135.741 34.3313 135.557 34.5 135.189 34.5H127.369C126.94 34.5 126.725 34.3313 126.725 33.994C126.725 33.6873 126.894 33.5033 127.231 33.442L127.875 33.35C128.519 33.258 128.933 33.074 129.117 32.798C129.332 32.522 129.439 32.062 129.439 31.418V16.974C129.439 15.4713 129.163 14.4133 128.611 13.8C128.09 13.1867 127.369 12.88 126.449 12.88C125.529 12.88 124.686 13.1713 123.919 13.754C123.183 14.306 122.585 15.0573 122.125 16.008C121.665 16.928 121.435 17.9553 121.435 19.09V31.418C121.435 32.062 121.527 32.522 121.711 32.798C121.926 33.074 122.355 33.2427 122.999 33.304L124.241 33.442C124.579 33.5033 124.747 33.672 124.747 33.948C124.747 34.316 124.517 34.5 124.057 34.5H116.283ZM147.614 43.93C147.154 43.93 146.924 43.7613 146.924 43.424C146.924 43.0867 147.123 42.9027 147.522 42.872L148.166 42.78C148.81 42.688 149.224 42.504 149.408 42.228C149.623 41.952 149.73 41.492 149.73 40.848V15.962C149.73 15.41 149.638 15.042 149.454 14.858C149.301 14.6433 149.009 14.5053 148.58 14.444L147.614 14.306C147.215 14.2753 147.016 14.1067 147.016 13.8C147.016 13.5547 147.261 13.386 147.752 13.294C148.703 13.1407 149.423 12.8953 149.914 12.558C150.435 12.2207 150.972 11.8067 151.524 11.316C151.8 11.04 152.03 10.902 152.214 10.902C152.49 10.902 152.628 11.086 152.628 11.454V12.88C152.628 13.0947 152.72 13.248 152.904 13.34C153.088 13.4013 153.303 13.3093 153.548 13.064L154.054 12.558C154.667 11.9447 155.296 11.5 155.94 11.224C156.584 10.9173 157.32 10.764 158.148 10.764C159.559 10.764 160.801 11.2393 161.874 12.19C162.978 13.11 163.837 14.398 164.45 16.054C165.094 17.71 165.416 19.6573 165.416 21.896C165.416 24.4413 165.017 26.6953 164.22 28.658C163.423 30.6207 162.319 32.154 160.908 33.258C159.528 34.362 157.933 34.914 156.124 34.914C155.204 34.914 154.391 34.7453 153.686 34.408C153.134 34.1627 152.858 34.3313 152.858 34.914V40.848C152.858 41.492 152.95 41.9213 153.134 42.136C153.349 42.3813 153.778 42.55 154.422 42.642L156.124 42.872C156.461 42.9333 156.63 43.102 156.63 43.378C156.63 43.746 156.4 43.93 155.94 43.93H147.614ZM156.262 33.764C157.979 33.764 159.359 32.752 160.402 30.728C161.475 28.704 162.012 25.9747 162.012 22.54C162.012 19.3813 161.552 16.974 160.632 15.318C159.712 13.662 158.409 12.834 156.722 12.834C155.679 12.834 154.775 13.2633 154.008 14.122C153.241 14.9807 152.858 16.1767 152.858 17.71V29.302C152.858 30.682 153.165 31.7707 153.778 32.568C154.422 33.3653 155.25 33.764 156.262 33.764ZM185.944 34.914C183.674 34.914 181.681 34.2087 179.964 32.798C178.277 31.3873 176.958 29.4093 176.008 26.864C175.088 24.288 174.628 21.252 174.628 17.756C174.628 14.3827 175.134 11.4387 176.146 8.924C177.188 6.37866 178.568 4.416 180.286 3.036C182.034 1.62533 183.966 0.919999 186.082 0.919999C187.339 0.919999 188.443 1.04267 189.394 1.288C190.344 1.50266 191.188 1.794 191.924 2.162C192.292 2.37667 192.476 2.69866 192.476 3.128L192.614 10.12C192.614 10.6413 192.43 10.902 192.062 10.902C191.724 10.902 191.51 10.7027 191.418 10.304L190.958 8.602C190.314 6.21 189.562 4.554 188.704 3.634C187.876 2.714 186.879 2.254 185.714 2.254C183.567 2.254 181.773 3.588 180.332 6.256C178.921 8.89333 178.216 12.7267 178.216 17.756C178.216 21.1907 178.568 24.0887 179.274 26.45C180.01 28.8113 180.945 30.59 182.08 31.786C183.245 32.982 184.472 33.58 185.76 33.58C187.14 33.58 188.244 33.1507 189.072 32.292C189.93 31.4333 190.651 29.7773 191.234 27.324L191.786 25.07C191.878 24.61 192.123 24.4107 192.522 24.472C192.859 24.5333 193.028 24.794 193.028 25.254L192.844 32.706C192.844 33.1353 192.644 33.4573 192.246 33.672C191.51 34.04 190.636 34.3313 189.624 34.546C188.642 34.7913 187.416 34.914 185.944 34.914ZM199.489 34.914C198.201 34.914 197.143 34.5153 196.315 33.718C195.487 32.89 195.073 31.8013 195.073 30.452C195.073 29.1333 195.487 27.8913 196.315 26.726C197.143 25.53 198.278 24.4567 199.719 23.506C201.161 22.5553 202.801 21.7887 204.641 21.206C205.04 21.0833 205.239 20.8227 205.239 20.424V16.238C205.239 14.766 205.009 13.7233 204.549 13.11C204.089 12.466 203.461 12.144 202.663 12.144C201.897 12.144 201.191 12.4967 200.547 13.202C199.934 13.8767 199.489 15.0267 199.213 16.652C199.06 17.6333 198.723 18.354 198.201 18.814C197.711 19.2433 197.205 19.458 196.683 19.458C195.825 19.458 195.395 19.0287 195.395 18.17C195.395 17.2807 195.641 16.4067 196.131 15.548C196.653 14.6587 197.327 13.8613 198.155 13.156C198.983 12.42 199.888 11.8373 200.869 11.408C201.851 10.9787 202.832 10.764 203.813 10.764C206.849 10.764 208.367 12.5273 208.367 16.054V30.13C208.367 31.418 208.689 32.062 209.333 32.062C209.732 32.062 210.1 31.8013 210.437 31.28C210.775 30.728 210.943 29.808 210.943 28.52C210.943 28.0293 211.143 27.784 211.541 27.784C211.909 27.784 212.093 28.0447 212.093 28.566C212.093 30.8047 211.695 32.43 210.897 33.442C210.131 34.4233 209.257 34.914 208.275 34.914C207.539 34.914 206.957 34.6227 206.527 34.04C206.098 33.4267 205.807 32.706 205.653 31.878C205.623 31.5713 205.485 31.418 205.239 31.418C205.025 31.3873 204.81 31.5253 204.595 31.832C203.859 32.844 203.108 33.6107 202.341 34.132C201.575 34.6533 200.624 34.914 199.489 34.914ZM200.731 32.798C201.529 32.798 202.265 32.522 202.939 31.97C203.614 31.3873 204.166 30.6207 204.595 29.67C205.025 28.7193 205.239 27.646 205.239 26.45V23.092C205.239 22.5093 204.917 22.3407 204.273 22.586C202.403 23.2607 200.946 24.196 199.903 25.392C198.891 26.5573 198.385 27.968 198.385 29.624C198.385 31.74 199.167 32.798 200.731 32.798ZM218.506 13.984C219.764 11.8373 221.282 10.764 223.06 10.764C224.072 10.764 224.824 11.0707 225.314 11.684C225.805 12.2667 226.05 12.926 226.05 13.662C226.05 14.2447 225.897 14.72 225.59 15.088C225.314 15.456 224.87 15.64 224.256 15.64C223.766 15.64 223.398 15.5327 223.152 15.318C222.938 15.0727 222.754 14.7967 222.6 14.49C222.478 14.1833 222.324 13.9227 222.14 13.708C221.956 13.4627 221.65 13.34 221.22 13.34C220.668 13.34 220.147 13.6773 219.656 14.352C219.166 14.996 218.752 15.87 218.414 16.974C218.108 18.078 217.954 19.3353 217.954 20.746V31.418C217.954 32.062 218.046 32.522 218.23 32.798C218.445 33.074 218.874 33.2427 219.518 33.304L220.76 33.442C221.098 33.5033 221.266 33.672 221.266 33.948C221.266 34.316 221.036 34.5 220.576 34.5H212.802C212.342 34.5 212.112 34.3313 212.112 33.994C212.112 33.718 212.312 33.534 212.71 33.442L213.262 33.35C213.906 33.2273 214.32 33.0433 214.504 32.798C214.719 32.522 214.826 32.062 214.826 31.418V15.962C214.826 15.41 214.734 15.042 214.55 14.858C214.397 14.6433 214.106 14.5053 213.676 14.444L212.71 14.306C212.312 14.2753 212.112 14.1067 212.112 13.8C212.112 13.5547 212.358 13.386 212.848 13.294C213.799 13.1407 214.52 12.8953 215.01 12.558C215.532 12.2207 216.068 11.8067 216.62 11.316C216.896 11.04 217.126 10.902 217.31 10.902C217.586 10.902 217.724 11.086 217.724 11.454V13.938C217.724 14.1527 217.816 14.2907 218 14.352C218.184 14.3827 218.353 14.26 218.506 13.984ZM233.473 34.914C232.124 34.914 230.912 34.454 229.839 33.534C228.796 32.5833 227.984 31.28 227.401 29.624C226.818 27.9373 226.527 25.99 226.527 23.782C226.527 21.206 226.926 18.952 227.723 17.02C228.52 15.0573 229.624 13.524 231.035 12.42C232.446 11.316 234.04 10.764 235.819 10.764C236.248 10.764 236.678 10.81 237.107 10.902C237.536 10.9633 237.95 11.086 238.349 11.27C238.84 11.5153 239.085 11.408 239.085 10.948V5.06C239.085 4.508 238.993 4.12466 238.809 3.91C238.656 3.69533 238.364 3.57266 237.935 3.542L236.739 3.404C236.402 3.34266 236.233 3.15867 236.233 2.852C236.233 2.54533 236.402 2.36133 236.739 2.3C237.72 2.116 238.502 1.90133 239.085 1.656C239.698 1.41066 240.204 1.16533 240.603 0.919999C241.094 0.613333 241.462 0.46 241.707 0.46C242.044 0.46 242.213 0.705332 242.213 1.196V30.13C242.213 31.418 242.535 32.062 243.179 32.062C243.578 32.062 243.946 31.8013 244.283 31.28C244.62 30.728 244.789 29.808 244.789 28.52C244.789 28.0293 244.988 27.784 245.387 27.784C245.755 27.784 245.939 28.0447 245.939 28.566C245.939 30.8047 245.556 32.43 244.789 33.442C244.022 34.4233 243.148 34.914 242.167 34.914C241.278 34.914 240.603 34.6227 240.143 34.04C239.683 33.4267 239.376 32.706 239.223 31.878C239.192 31.6327 239.085 31.51 238.901 31.51C238.717 31.4793 238.548 31.5867 238.395 31.832C237.536 33.028 236.754 33.8407 236.049 34.27C235.344 34.6993 234.485 34.914 233.473 34.914ZM234.485 32.798C235.282 32.798 236.018 32.5373 236.693 32.016C237.398 31.464 237.966 30.728 238.395 29.808C238.855 28.888 239.085 27.8607 239.085 26.726V16.376C239.085 14.996 238.763 13.9073 238.119 13.11C237.506 12.3127 236.693 11.914 235.681 11.914C233.964 11.914 232.568 12.926 231.495 14.95C230.452 16.9433 229.931 19.6727 229.931 23.138C229.931 26.2967 230.33 28.704 231.127 30.36C231.955 31.9853 233.074 32.798 234.485 32.798Z" fill="url(#paint0_linear_2264_1487)" fill-opacity="0.35"/>
<defs>
<linearGradient id="paint0_linear_2264_1487" x1="1" y1="14" x2="245.053" y2="31.7679" gradientUnits="userSpaceOnUse">
<stop stop-color="white" stop-opacity="0.9"/>
<stop offset="0.341746" stop-color="white" stop-opacity="0.6"/>
<stop offset="1" stop-color="white" stop-opacity="0.5"/>
</linearGradient>
</defs>
</svg>
